<svg xmlns="http://www.w3.org/2000/svg" width="35.931" height="31.446" viewBox="0 0 35.931 31.446"><g transform="translate(-273.709 -542.213)"><path d="M34.6,22.194H.335A.334.334,0,0,1,0,21.861V20.048a.334.334,0,0,1,.335-.333h2.92c.191-.006.385-.012.583-.029l.012-.472V19.2c.012-.422.026-.946.026-1.444a1.133,1.133,0,0,1,.976-.351c.084,0,.171-.006.254-.014V12.253a2.79,2.79,0,0,0-.329-.021c-.358-.01-.727-.02-.881-.382A23.811,23.811,0,0,1,3.868,9.4H.583A.334.334,0,0,1,.25,9.063V6.043a2.583,2.583,0,0,0,.012-.314c0-.335.006-.68.315-.848.7-.5,3.114-2.1,7.173-4.78-.007.161-.011.318-.011.468a9.536,9.536,0,0,0,5.9,8.751H10.594a13.3,13.3,0,0,0-.04,1.518c0,.31.007.63,0,.949a1.272,1.272,0,0,1-1.16.477,4.132,4.132,0,0,0-.036.8v3.359a2.313,2.313,0,0,1,0,.293v.019a1,1,0,0,0,.134.721l.1-.006c.086-.006.171-.012.26-.012a.58.58,0,0,1,.627.339c.059.64.086,1.292.083,1.937H14.46c.01-.645.017-1.277,0-1.91a.072.072,0,0,1,.012-.011c.007-.006.012-.011.012-.018v-.162a.334.334,0,0,1,.335-.333h.906L15.721,12.3h-.9a.333.333,0,0,1-.333-.333V9.632a10.079,10.079,0,0,0,3.07.475A10.021,10.021,0,0,0,21.2,9.43c0,.047,0,.1,0,.142v2.4a.339.339,0,0,1-.334.333h-.812c-.036.516-.03,1.038-.026,1.543,0,.166,0,.337,0,.506.007.929.01,1.467,0,1.475v-.009a.02.02,0,0,1,0-.011c0,.011,0,.191.028,1.474h.812a.333.333,0,0,1,.331.333v2.1h3.233c.217-.006.44-.012.668-.024V17.614a.329.329,0,0,1,.333-.333h.959l0-4.98h-.958a.334.334,0,0,1-.335-.333V9.322c-.255,0-.516,0-.843,0h-.885l-.748,0c-.449,0-.832,0-1.169.007A9.536,9.536,0,0,0,27.377.568c0-.166-.006-.347-.017-.568,4.183,2.821,6.512,4.4,7.12,4.839.381.195.41.613.435.983,0,.063.008.13.015.195V9.08a.334.334,0,0,1-.333.333l-2.765.006c-.006.2-.006.409-.006.609v.086c0,.364,0,.74-.022,1.109v.751a.337.337,0,0,1-.331.333h-.813c-.006.854-.01,1.382-.014,1.733-.006.7-.006.7,0,1.158,0,.272.007.783.015,2.083h.813a.333.333,0,0,1,.331.333v2.1h2.786a.332.332,0,0,1,.33.333v1.813a.325.325,0,0,1-.222.309A.266.266,0,0,1,34.6,22.194ZM6.728,12.215h0l-.6.012c0,1.7,0,2.151,0,2.483v.029c0,.384,0,.615.014,2.689l.591.012V12.215Zm1.01.009h0v5.125l.606.015V12.224H7.739Zm19.7.08h0l-.01.422-.006.312c-.006.179-.008.3-.011.378,0,0,.006.14-.006,1.257.006.306,0,.626,0,.909v.035c0,.546-.006,1.11.036,1.664h.533v-.01a2,2,0,0,0,.036-.328V14.017L28,12.633c-.006-.2-.01-.3-.011-.3v.028l0-.054Zm-9.02,0h0c0,1.445-.006,1.973-.01,2.3-.006.438-.006.463.028,2.677h.525l0-4.977h-.545Zm10.614,1.33c0,.039,0,.254-.006,1.369.006.274,0,.552,0,.821v.05c0,.461,0,.938.025,1.408h.574V12.315h-.58c-.01.831-.015,1.232-.021,1.34a.078.078,0,0,0,0-.022ZM16.795,12.3h0v.751c0,.491,0,1-.006,1.449-.008.909-.018,1.848.028,2.778h.526L17.332,12.3h-.537ZM28,14.241h0v-.032c0-.039,0-.106,0-.172a1.984,1.984,0,0,1,0-.206h0v0c0,.038,0,.11,0,.209v.091A.8.8,0,0,1,28,14.241Z" transform="translate(274.209 550.966)" fill="#383838" stroke="rgba(0,0,0,0)" stroke-miterlimit="10" stroke-width="1"/><path d="M8.482,16.961a8.481,8.481,0,1,1,8.482-8.481A8.491,8.491,0,0,1,8.482,16.961Zm2.382-6.791a1.7,1.7,0,1,0,1.641,1.7A1.672,1.672,0,0,0,10.864,10.17Zm-.22-7.537L4.28,12.024,6.1,13.338l6.364-9.389ZM5.937,2.254A1.671,1.671,0,0,0,4.3,3.95a1.643,1.643,0,1,0,3.284,0A1.672,1.672,0,0,0,5.937,2.254Z" transform="translate(283.394 542.713)" fill="#383838" stroke="rgba(0,0,0,0)" stroke-miterlimit="10" stroke-width="1"/></g></svg>