<svg xmlns="http://www.w3.org/2000/svg" width="25.614" height="31.105" viewBox="0 0 25.614 31.105"><g transform="translate(-1845.027 -488.211)"><path d="M12.251,18.73a.423.423,0,0,1-.846,0c.057-8.812,0-18.191,0-17.991A.722.722,0,0,1,11.625.22h0A.734.734,0,0,1,12.147,0H27.161a.728.728,0,0,1,.522.217l.034.034A.753.753,0,0,1,27.9.739V8.952h8.5a.629.629,0,0,1,.437.181h0a.629.629,0,0,1,.181.437V28.8a.42.42,0,0,1-.42.42H34.556a.423.423,0,1,1,0-.846h1.622V9.8H27.9v8.495a.423.423,0,1,1-.846,0V.846h-14.8Zm19.444,1.3h2.446c.039,0,.071.023.071.048v1.374c0,.031-.031.054-.071.054H31.7c-.04,0-.071-.023-.071-.054V20.087c0-.025.031-.048.071-.048ZM14.139,2.477H25.172a.339.339,0,0,1,.336.344v3.9a.339.339,0,0,1-.336.327H14.139a.339.339,0,0,1-.336-.336v-3.9a.336.336,0,0,1,.336-.336ZM30.756,16.408h3.385c.039,0,.071.023.071.051v1.374c0,.031-.031.054-.071.054H30.756c-.037,0-.071-.023-.071-.054V16.459C30.685,16.431,30.719,16.408,30.756,16.408Zm-.629-3.321h4.02c.039,0,.071.023.071.051v1.377c0,.028-.031.051-.071.051h-4.02c-.037,0-.068-.023-.068-.051V13.138C30.059,13.11,30.09,13.088,30.127,13.088Zm-7.442.632h2.483a.073.073,0,0,1,.071.071v1.854l-.071.071h-2.5a.073.073,0,0,1-.071-.071V13.79a.073.073,0,0,1,.071-.071Zm-4.266,0H20.9a.073.073,0,0,1,.071.071v1.854a.073.073,0,0,1-.071.071H18.418a.073.073,0,0,1-.071-.071V13.79A.073.073,0,0,1,18.418,13.72Zm-4.266,0h2.483a.071.071,0,0,1,.071.071v1.854a.071.071,0,0,1-.071.071H14.147a.073.073,0,0,1-.071-.071V13.79a.073.073,0,0,1,.071-.071Zm8.514-4.658H25.15a.073.073,0,0,1,.071.071v2.641a.071.071,0,0,1-.071.068H22.667a.071.071,0,0,1-.071-.068V9.132A.071.071,0,0,1,22.667,9.062Zm-4.266,0h2.483a.073.073,0,0,1,.071.071v2.641a.071.071,0,0,1-.071.068H18.4a.071.071,0,0,1-.071-.068V9.132A.071.071,0,0,1,18.4,9.062Zm-4.266,0h2.483a.071.071,0,0,1,.071.071v2.641a.071.071,0,0,1-.071.068H14.147a.071.071,0,0,1-.071-.068V9.132a.071.071,0,0,1,.071-.071Z" transform="translate(1833.622 488.211)" fill="#383838" fill-rule="evenodd"/><path d="M7.335,5.233a1.135,1.135,0,0,1,.171.588,1.1,1.1,0,0,1-.1.444,4.373,4.373,0,0,0-.865-.306,2.18,2.18,0,0,0,.79-.726ZM5.491,6.571a3.743,3.743,0,1,1-3.743,3.743A3.743,3.743,0,0,1,5.491,6.571ZM6.2,8.6h.458a.1.1,0,0,1,.1.095.088.088,0,0,1-.017.053L4.887,11.979a.1.1,0,0,1-.088.05H4.341a.1.1,0,0,1-.1-.095.088.088,0,0,1,.017-.053L6.113,8.648A.1.1,0,0,1,6.2,8.6Zm-2.833.89a1.03,1.03,0,0,1,.026-.227.978.978,0,0,1,.081-.214h0a.754.754,0,0,1,.142-.193.765.765,0,0,1,.2-.14.99.99,0,0,1,.243-.086A1.262,1.262,0,0,1,4.334,8.6a1.205,1.205,0,0,1,.394.06.848.848,0,0,1,.311.185.809.809,0,0,1,.2.286v.006a1.037,1.037,0,0,1,0,.713.785.785,0,0,1-.2.288.845.845,0,0,1-.311.184,1.205,1.205,0,0,1-.394.06,1.353,1.353,0,0,1-.277-.028.951.951,0,0,1-.243-.086l-.007,0a.8.8,0,0,1-.192-.138.754.754,0,0,1-.142-.193l0-.006a.981.981,0,0,1-.078-.21v0a1.017,1.017,0,0,1-.025-.225Zm.815,0a.9.9,0,0,0,.019.2.3.3,0,0,0,.049.114v0a.087.087,0,0,0,.031.025.143.143,0,0,0,.053.01.094.094,0,0,0,.082-.035v0a.3.3,0,0,0,.049-.114.9.9,0,0,0,.019-.2.876.876,0,0,0-.019-.2h0a.3.3,0,0,0-.05-.117h0a.067.067,0,0,0-.029-.024.143.143,0,0,0-.053-.01.122.122,0,0,0-.054.01h0a.08.08,0,0,0-.032.025h0a.31.31,0,0,0-.049.114v0a.981.981,0,0,0-.017.2Zm1.5,1.638a.966.966,0,0,1,.107-.444.711.711,0,0,1,.14-.192.846.846,0,0,1,.2-.143l.006,0a.955.955,0,0,1,.239-.083,1.253,1.253,0,0,1,.277-.028.986.986,0,0,1,.706.246.8.8,0,0,1,.2.288,1.046,1.046,0,0,1,0,.72.785.785,0,0,1-.2.288.989.989,0,0,1-.706.246A1.363,1.363,0,0,1,6.374,12a.99.99,0,0,1-.243-.086h0a.8.8,0,0,1-.2-.142.734.734,0,0,1-.14-.192,1,1,0,0,1-.107-.448Zm.813.006a.9.9,0,0,0,.019.2.307.307,0,0,0,.049.115h0a.067.067,0,0,0,.029.024.146.146,0,0,0,.054.01.106.106,0,0,0,.086-.035l0,0a.327.327,0,0,0,.046-.113.9.9,0,0,0,.019-.2.55.55,0,0,0-.068-.317.07.07,0,0,0-.032-.025h0a.122.122,0,0,0-.054-.01.094.094,0,0,0-.082.035l0,.006a.331.331,0,0,0-.046.111.9.9,0,0,0-.019.2ZM1.965,7.551C.8,7.217,0,6.568,0,5.821a1.139,1.139,0,0,1,.171-.588A3.8,3.8,0,0,0,3.023,6.575a4.5,4.5,0,0,0-1.058.976Zm14.952.612a1.139,1.139,0,0,1,.171.588c0,1.086-1.681,1.968-3.753,1.968S9.581,9.837,9.581,8.751a1.139,1.139,0,0,1,.171-.588c.477.8,1.9,1.379,3.582,1.379s3.105-.58,3.582-1.379ZM13.88,5.286,13.873,4.8a.413.413,0,0,0,.27-.1.335.335,0,0,0,.017-.5.56.56,0,0,0-.363-.138.507.507,0,0,0-.359.075.35.35,0,0,0-.14.261.494.494,0,0,0,.153.391l-.092.388-1.295-.363.111-1.282.453.039-.079.915.423.113a.741.741,0,0,1-.053-.339.726.726,0,0,1,.282-.526.845.845,0,0,1,.629-.171.911.911,0,0,1,.541.229.806.806,0,0,1,.275.713.852.852,0,0,1-.238.555.768.768,0,0,1-.528.221Zm-.545-1.954c1.7,0,3.084.542,3.084,1.21s-1.381,1.21-3.084,1.21-3.084-.542-3.084-1.21,1.381-1.21,3.084-1.21Zm0-.4c2.072,0,3.753.882,3.753,1.968s-1.681,1.968-3.753,1.968S9.581,5.984,9.581,4.9,11.262,2.93,13.334,2.93Zm3.6,3.28a1.124,1.124,0,0,1,.157.565c0,1.086-1.681,1.968-3.753,1.968s-3.753-.88-3.753-1.968a1.134,1.134,0,0,1,.157-.565c.463.811,1.9,1.4,3.6,1.4s3.133-.591,3.6-1.4ZM5.109,1.167l-.043.488-1.843-.16a1.685,1.685,0,0,1,.316.663L3.1,2.119a1.415,1.415,0,0,0-.2-.435.908.908,0,0,0-.382-.343l.035-.4,2.561.222ZM3.753.4c1.7,0,3.084.542,3.084,1.21S5.457,2.82,3.753,2.82.669,2.278.669,1.61,2.05.4,3.753.4Zm0-.4C5.825,0,7.506.88,7.506,1.968S5.825,3.935,3.753,3.935,0,3.054,0,1.968,1.681,0,3.753,0Zm3.6,3.279a1.124,1.124,0,0,1,.157.565c0,1.086-1.681,1.968-3.753,1.968S0,4.93,0,3.844a1.138,1.138,0,0,1,.157-.565c.463.811,1.9,1.4,3.6,1.4s3.133-.592,3.6-1.4ZM1.114,11.265A1.724,1.724,0,0,1,0,9.868a1.147,1.147,0,0,1,.195-.626,2.272,2.272,0,0,0,.832.724q-.013.171-.013.346a4.375,4.375,0,0,0,.1.953Zm.031-2.036A1.747,1.747,0,0,1,0,7.815a1.141,1.141,0,0,1,.177-.6,2.684,2.684,0,0,0,1.36.99,4.418,4.418,0,0,0-.392,1.021Z" transform="translate(1846.845 505.259)" fill="#383838" fill-rule="evenodd"/></g></svg>