<svg xmlns="http://www.w3.org/2000/svg" width="53" height="51" viewBox="0 0 53 51"><g transform="translate(-406.918 -103)"><rect width="53" height="51" rx="5" transform="translate(406.918 103)" fill="#fe5862"/><path d="M163.747,53.261l.05-4.943a8.62,8.62,0,0,1,3.573.55.821.821,0,0,1,.521.854c-.008,1.484-4.059,3.6-4.457,3.807-5.129,2.591-12.363,3.033-12.363,3.033L151.138,62a41.907,41.907,0,0,0,15.424-4.668c3.335-1.788,6.938-4.726,6.265-8.939-.644-4.068-4.948-5.211-9-5.038l-.043,4.95a8.772,8.772,0,0,1-3.574-.55.82.82,0,0,1-.52-.854c0-1.484,4.051-3.6,4.449-3.807,5.136-2.591,12.371-3.033,12.371-3.033l-.072-5.436a41.909,41.909,0,0,0-15.416,4.662c-3.335,1.787-6.945,4.733-6.266,8.945.644,4.061,4.948,5.211,8.993,5.03Zm-6.605-19.578a3.13,3.13,0,1,1-3.125,3.135,3.135,3.135,0,0,1,3.125-3.135ZM171.1,28.429a3.13,3.13,0,1,1-3.124,3.134,3.135,3.135,0,0,1,3.124-3.134Zm-7.277,2.055a3.13,3.13,0,1,1-3.133,3.127,3.127,3.127,0,0,1,3.133-3.127Z" transform="translate(269.406 83.287)" fill="#fff" fill-rule="evenodd"/></g></svg>