<svg xmlns="http://www.w3.org/2000/svg" width="52.162" height="43.552" viewBox="0 0 52.162 43.552">
  <g id="Group_19466" data-name="Group 19466" transform="translate(951.854 -592.99)">
    <g id="Group_19461" data-name="Group 19461" transform="translate(2.524 70.99)">
      <path id="Subtraction_122" data-name="Subtraction 122" d="M-3205.906-3982.354h-7.737v-3.126h-1.548v-37.509h46.425v14.1a16.94,16.94,0,0,0-1.547-.82v-11.722h-43.331v5.47h1.547v-2.337a1.564,1.564,0,0,1,1.555-1.57h37.127a1.564,1.564,0,0,1,1.554,1.57v7.96a16.962,16.962,0,0,0-5.62-.951,17,17,0,0,0-11.092,4.118,9.312,9.312,0,0,0-2.241-3.675.083.083,0,0,1-.008-.013l-.007-.011-.012-.008a.032.032,0,0,1-.011-.007,9.18,9.18,0,0,0-6.543-2.73,9.178,9.178,0,0,0-6.542,2.73l-.008.006,0,0a.035.035,0,0,0-.011.006l-.008.012a.023.023,0,0,1-.008.012,9.364,9.364,0,0,0-2.7,6.607,9.366,9.366,0,0,0,2.7,6.608.031.031,0,0,1,.008.013.056.056,0,0,0,.007.011.038.038,0,0,0,.012.008.043.043,0,0,1,.011.007,9.186,9.186,0,0,0,6.542,2.731,9.176,9.176,0,0,0,2.948-.483c-.021.344-.032.7-.032,1.055a16.964,16.964,0,0,0,.971,5.678h-17.034a1.564,1.564,0,0,1-1.555-1.569v-2.337h-1.547v5.469h20.779a17.112,17.112,0,0,0,.839,1.563h-13.881v3.125Zm-7.737-12.5v.78h1.547v-.78Zm0-17.192v15.628h1.547v-15.628Zm0-2.344v.781h1.547v-.781Zm15.475,17.934h0a7.658,7.658,0,0,1-4.118-1.728l.517-.521a.79.79,0,0,0,0-1.106.772.772,0,0,0-.548-.229.766.766,0,0,0-.546.229l-.517.521a7.809,7.809,0,0,1-1.71-4.16h.734a.779.779,0,0,0,.773-.782.778.778,0,0,0-.773-.781h-.734a7.816,7.816,0,0,1,1.71-4.16l.517.521a.764.764,0,0,0,.547.229.767.767,0,0,0,.547-.229.789.789,0,0,0,0-1.1l-.517-.521a7.651,7.651,0,0,1,4.118-1.729v.742a.778.778,0,0,0,.773.781.779.779,0,0,0,.774-.781v-.742a7.657,7.657,0,0,1,4.119,1.729l-.516.521a.786.786,0,0,0,0,1.1.763.763,0,0,0,.547.229.757.757,0,0,0,.546-.229l.517-.521a7.769,7.769,0,0,1,1.561,3.227c-.3.314-.586.645-.86.984a.779.779,0,0,0-.493.641,17.013,17.013,0,0,0-3.049,7.228,7.6,7.6,0,0,1-2.372.637v-.741a.779.779,0,0,0-.774-.781.778.778,0,0,0-.773.781v.741Zm.773-10.9a3.114,3.114,0,0,0-3.094,3.126,3.114,3.114,0,0,0,3.094,3.127,3.115,3.115,0,0,0,3.1-3.127A3.114,3.114,0,0,0-3197.394-4007.361Zm.394,4.967a1.579,1.579,0,0,1-1.569-1.585,1.578,1.578,0,0,1,1.569-1.584,1.578,1.578,0,0,1,1.569,1.584A1.579,1.579,0,0,1-3197-4002.393Z" transform="translate(2260.812 4544.988)" fill="#383838"/>
    </g>
    <g id="Group_19463" data-name="Group 19463" transform="translate(196.175 146.973)">
      <g id="Group_19448" data-name="Group 19448" transform="translate(-1124.816 460.619)">
        <path id="Path_60589" data-name="Path 60589" d="M258.306,341a14.475,14.475,0,1,1-14.476,14.474A14.474,14.474,0,0,1,258.306,341Z" transform="translate(-243.83 -341)" fill="#fe5862" fill-rule="evenodd"/>
      </g>
      <path id="dollar-sign-icon" d="M46.62,33.157a1.567,1.567,0,0,0-.6-1.148,1.769,1.769,0,0,0-.557-.283l-.037,2.846.352.079a8.536,8.536,0,0,1,1.791.586,5,5,0,0,1,1.308.877,3.363,3.363,0,0,1,.8,1.165,4.016,4.016,0,0,1,.283,1.478,3.873,3.873,0,0,1-.655,2.217,4.07,4.07,0,0,1-1.86,1.422,6.945,6.945,0,0,1-2.129.463L45.3,44.243H43.572l.017-1.4a7.145,7.145,0,0,1-2.045-.473,4.188,4.188,0,0,1-1.983-1.559,4.73,4.73,0,0,1-.727-2.651H42a2.062,2.062,0,0,0,.35,1.1,1.919,1.919,0,0,0,.865.668,2.679,2.679,0,0,0,.411.133l.037-3.02L43,36.889a6.235,6.235,0,0,1-2.8-1.321,3.119,3.119,0,0,1-1.015-2.464,3.678,3.678,0,0,1,.682-2.217,4.516,4.516,0,0,1,1.9-1.478,6.484,6.484,0,0,1,2-.493l.017-1.377h1.742l-.017,1.4a5.977,5.977,0,0,1,1.794.493,4.262,4.262,0,0,1,1.821,1.505,4.011,4.011,0,0,1,.663,2.244Zm-2.885-1.478a1.878,1.878,0,0,0-.266.081,1.426,1.426,0,0,0-.653.463,1.151,1.151,0,0,0-.222.663.985.985,0,0,0,.126.544,1.293,1.293,0,0,0,.4.409,2.668,2.668,0,0,0,.569.286l.032-2.441Zm1.628,8.391a1.865,1.865,0,0,0,.273-.086,1.633,1.633,0,0,0,.724-.493,1.192,1.192,0,0,0,.259-.739,1,1,0,0,0-.246-.663,1.858,1.858,0,0,0-.717-.493c-.081-.034-.17-.069-.264-.1l-.034,2.567Z" transform="translate(-1154.74 439.202)" fill="#fff" fill-rule="evenodd"/>
    </g>
  </g>
</svg>
