<svg xmlns="http://www.w3.org/2000/svg" width="51.982" height="50.583" viewBox="0 0 51.982 50.583">
  <g id="Group_19460" data-name="Group 19460" transform="translate(1038.173 -515.765)">
    <path id="Subtraction_119" data-name="Subtraction 119" d="M-3212.58-3904.53h0l-.086-7.686c.1-.006,9.755-.669,16.527-4.289a28.718,28.718,0,0,0,3.6-2.335,17.233,17.233,0,0,0-.125,2.075,16.968,16.968,0,0,0,.914,5.513l-.21.121a52.872,52.872,0,0,1-20.006,6.513l-.611.088Zm15.793-12.329a14.718,14.718,0,0,1-7.08-1.557,7.353,7.353,0,0,1-3.878-5.582,9.632,9.632,0,0,1,2.176-7.611,20.862,20.862,0,0,1,6.2-5.039,52.87,52.87,0,0,1,19.985-6.5l.088-.013.535-.077.1,7.687a53.929,53.929,0,0,0-5.759.789,39.608,39.608,0,0,0-10.777,3.5c-.243.13-5.948,3.223-5.948,5.384a1.172,1.172,0,0,0,.7,1.207,10.059,10.059,0,0,0,4.251.788c.273,0,.462-.008.524-.01l.06-7c.356-.016.7-.024,1.035-.024a14.5,14.5,0,0,1,7.352,1.7,17.151,17.151,0,0,0-4.126,5.908,11.047,11.047,0,0,0-3.725-.569c-.277,0-.473.008-.556.011h-.018l-.067,6.989C-3196.084-3916.867-3196.441-3916.859-3196.786-3916.859Zm-7.767-18.858a4.309,4.309,0,0,1-4.177-4.42,4.316,4.316,0,0,1,4.177-4.433,4.32,4.32,0,0,1,4.188,4.433A4.313,4.313,0,0,1-3204.553-3935.717Zm8.927-4.524a4.319,4.319,0,0,1-4.187-4.431,4.315,4.315,0,0,1,4.188-4.423,4.31,4.31,0,0,1,4.177,4.423A4.315,4.315,0,0,1-3195.626-3940.24Zm9.728-2.906a4.31,4.31,0,0,1-4.177-4.423A4.315,4.315,0,0,1-3185.9-3952a4.319,4.319,0,0,1,4.187,4.431A4.315,4.315,0,0,1-3185.9-3943.146Z" transform="translate(2174.999 4468.266)" fill="#383838" stroke="rgba(0,0,0,0)" stroke-miterlimit="10" stroke-width="1"/>
    <g id="Group_19453" data-name="Group 19453" transform="translate(109.677 76.78)">
      <g id="Group_19448" data-name="Group 19448" transform="translate(-1124.816 460.619)">
        <path id="Path_60589" data-name="Path 60589" d="M258.306,341a14.475,14.475,0,1,1-14.476,14.474A14.474,14.474,0,0,1,258.306,341Z" transform="translate(-243.83 -341)" fill="#fe5862" fill-rule="evenodd"/>
      </g>
      <path id="dollar-sign-icon" d="M46.62,33.157a1.567,1.567,0,0,0-.6-1.148,1.769,1.769,0,0,0-.557-.283l-.037,2.846.352.079a8.536,8.536,0,0,1,1.791.586,5,5,0,0,1,1.308.877,3.363,3.363,0,0,1,.8,1.165,4.016,4.016,0,0,1,.283,1.478,3.873,3.873,0,0,1-.655,2.217,4.07,4.07,0,0,1-1.86,1.422,6.945,6.945,0,0,1-2.129.463L45.3,44.243H43.572l.017-1.4a7.145,7.145,0,0,1-2.045-.473,4.188,4.188,0,0,1-1.983-1.559,4.73,4.73,0,0,1-.727-2.651H42a2.062,2.062,0,0,0,.35,1.1,1.919,1.919,0,0,0,.865.668,2.679,2.679,0,0,0,.411.133l.037-3.02L43,36.889a6.235,6.235,0,0,1-2.8-1.321,3.119,3.119,0,0,1-1.015-2.464,3.678,3.678,0,0,1,.682-2.217,4.516,4.516,0,0,1,1.9-1.478,6.484,6.484,0,0,1,2-.493l.017-1.377h1.742l-.017,1.4a5.977,5.977,0,0,1,1.794.493,4.262,4.262,0,0,1,1.821,1.505,4.011,4.011,0,0,1,.663,2.244Zm-2.885-1.478a1.878,1.878,0,0,0-.266.081,1.426,1.426,0,0,0-.653.463,1.151,1.151,0,0,0-.222.663.985.985,0,0,0,.126.544,1.293,1.293,0,0,0,.4.409,2.668,2.668,0,0,0,.569.286l.032-2.441Zm1.628,8.391a1.865,1.865,0,0,0,.273-.086,1.633,1.633,0,0,0,.724-.493,1.192,1.192,0,0,0,.259-.739,1,1,0,0,0-.246-.663,1.858,1.858,0,0,0-.717-.493c-.081-.034-.17-.069-.264-.1l-.034,2.567Z" transform="translate(-1154.74 439.202)" fill="#fff" fill-rule="evenodd"/>
    </g>
  </g>
</svg>
