<svg xmlns="http://www.w3.org/2000/svg" width="78.916" height="71.279" viewBox="0 0 78.916 71.279"><g transform="translate(9.366 4.281)"><g transform="translate(38.697 5.767)"><path d="M-162.311,621.827V621.8l-.016,0v.03Z" transform="translate(193.148 -577.037)" fill="#fe5862"/><path d="M-458.695,191.876a.766.766,0,0,0,.852-.908.775.775,0,0,0-1-.564.786.786,0,0,0-.5.677A.753.753,0,0,0-458.695,191.876Z" transform="translate(459.357 -190.366)" fill="#fe5862"/><path d="M-458.933,258.183a.755.755,0,0,0-.145,1.239.757.757,0,0,0,1.258-.577A.757.757,0,0,0-458.933,258.183Z" transform="translate(459.348 -251.065)" fill="#fe5862"/><path d="M-458.608,327.388a.745.745,0,0,0,.757-.76.777.777,0,0,0-1.05-.711.831.831,0,0,0-.476.7A.783.783,0,0,0-458.608,327.388Z" transform="translate(459.381 -311.801)" fill="#fe5862"/><path d="M-370.745,344.265a9.062,9.062,0,0,0-6.463-6.566,7.369,7.369,0,0,0-2.476-.25.81.81,0,0,0-.541,1,1.42,1.42,0,0,0,.483.449,3.977,3.977,0,0,0,.579.054,7.463,7.463,0,0,1,4.867,2.1,7.477,7.477,0,0,1,2.25,4.823c.049,1.225-.021,2.453.039,3.678a31.525,31.525,0,0,0,.027,3.223,8.758,8.758,0,0,1-.777,3.822,7.2,7.2,0,0,1-1.769,2.372c-.325.226-.174.467-.23.239-.4.238-.762.525-1.167.746a7.461,7.461,0,0,1-3.349.9.965.965,0,0,0-.779.285.755.755,0,0,0,.467,1.243,8.866,8.866,0,0,0,6.5-2.667,8.9,8.9,0,0,0,2.577-6c.02-1.835,0-3.672.008-5.507A16.132,16.132,0,0,0-370.745,344.265Z" transform="translate(388.458 -322.171)" fill="#fe5862"/><path d="M-377.445,395.778a2.827,2.827,0,0,1-2.015.864.773.773,0,0,0-.751.854.757.757,0,0,0,.856.667,4.349,4.349,0,0,0,4.088-3.271,3.123,3.123,0,0,0,.081-1.263c.058-.819.007-1.641.023-2.462a5.77,5.77,0,0,0-.058-1.249,7.686,7.686,0,0,0,.058-1.45,14.193,14.193,0,0,0-.109-2.59,4.268,4.268,0,0,0-4.395-3.272.768.768,0,0,0-.055,1.446,3.74,3.74,0,0,1,1.726.471,2.769,2.769,0,0,1,1.308,2.385q0,3.478,0,6.956A2.682,2.682,0,0,1-377.445,395.778Z" transform="translate(388.434 -362.646)" fill="#fe5862"/><path d="M-458.835,574.579a.762.762,0,0,0-.316,1.224.758.758,0,0,0,1.322-.467A.762.762,0,0,0-458.835,574.579Z" transform="translate(459.358 -534.681)" fill="#fe5862"/><path d="M-458.122,643.755a.784.784,0,0,0,.181-.879.782.782,0,0,0-.959-.41.779.779,0,0,0-.46.988A.784.784,0,0,0-458.122,643.755Z" transform="translate(459.412 -595.529)" fill="#fe5862"/><path d="M-458.89,710.344a.752.752,0,0,0-.363,1.12.761.761,0,0,0,1.39-.324A.785.785,0,0,0-458.89,710.344Z" transform="translate(459.389 -656.368)" fill="#fe5862"/></g><path d="M-762.863,193.245c-.006-2.635-.011-14.893,0-19.5q0-15.618,0-31.237a1.919,1.919,0,0,0-1.21-1.767,2.682,2.682,0,0,0-.743-.088c-4.049.006-8.1,0-12.147,0a1.39,1.39,0,0,1-.7-.138c-3.323-1.857-6.631-3.74-9.96-5.588a.906.906,0,0,0-1.335.423c-.162.553.068,1.167-.212,1.7a3.506,3.506,0,0,1-.655.093c-2.859-.005-5.717.006-8.576-.006.011.928,0,1.854.008,2.78a.755.755,0,0,1-.12.528c-.186.212-.493.193-.748.211q-15.668,0-31.337,0a1.83,1.83,0,0,0-1.492.777,1.882,1.882,0,0,0-.318,1.07q0,25.524,0,51.049a3.249,3.249,0,0,0,.165,1.447,1.857,1.857,0,0,0,1.445,1.077c.292.027.724.071.737.453-.007,1.416-.005,2.833,0,4.249q2.731,0,5.46,0v.014h1.36l0,.007q1.933-.016,3.867,0l.253.005c0-1.46.026-2.919,0-4.379.053-.076.157-.227.209-.3-.038-.02.068-.106.107-.018,1.084-.01,19.584-.093,20.315.108a7.936,7.936,0,0,1,.094,1.96c.008.486,0,.971.005,1.457,2.857-.021,5.715,0,8.573-.01.274,0,.623.025.758.308.078.362.009.738.059,1.1a.92.92,0,0,0,.922.747,2.566,2.566,0,0,0,.831-.358q2.765-1.556,5.532-3.107c.164-.088.327-.177.487-.273.533-.32,1.087-.6,1.623-.916a18.129,18.129,0,0,1,1.876-1,4.437,4.437,0,0,1,1.305.022c.282.054.3.393.31.622.012,1.337,0,2.674,0,4.011,3.64-.013,7.281.01,10.922-.013-.005-1.4-.008-2.806,0-4.209-.03-.316.309-.5.586-.474a1.9,1.9,0,0,0,1.7-1.35A9.818,9.818,0,0,0-762.863,193.245Zm-66.1-51.638q.195.1.009.217Q-829.158,141.714-828.962,141.606Zm-2.142.258.08-.036a.231.231,0,0,1,.068.33l-.19-.08Zm10.417,57.024c.028.008-.233.365-.458.361-.272.017-.545.022-.817.024v0h-.717c-.321,0-.642-.007-.963,0h-.8c-1.151,0-2.3,0-3.453.015a.537.537,0,0,1-.57-.321,3.666,3.666,0,0,1-.083-1.153,7.215,7.215,0,0,1,.056-1.381c.13-.164.419-.365.431-.321,2.2-.022,4.4,0,6.6-.011.244.008.582-.011.715.242l.012.117C-820.647,197.266-820.7,198.077-820.687,198.888Zm22.289-9.451a.831.831,0,0,1-.225.393,3.613,3.613,0,0,1-.952.065h-24.759v0a8.031,8.031,0,0,1-1.273-.043.784.784,0,0,1-.478-.37,2.2,2.2,0,0,1-.109-.7c.005-6.392-.005-12.783.005-19.175l.007,0a.56.56,0,0,1,.68-.47q13.172-.014,26.345-.007a1.752,1.752,0,0,1,.637.127,1.081,1.081,0,0,1,.13.528C-798.4,173.549-798.386,186.672-798.4,189.437Zm.008-22.741a1.39,1.39,0,0,1-.112.739c-.073.183-.3.146-.451.164-.2-.006-.407.012-.61.017h-.005c-.062,0-.123,0-.185,0,0,0-25.371.025-26.108-.036l-.256-.163.02-.132-.03.093a2.254,2.254,0,0,1-.068-.587q.006-9.5,0-19a.9.9,0,0,1,.463-.843,2.818,2.818,0,0,1,1.05-.106q12.812.006,25.625,0c.3.005.7.175.66.537C-798.386,153.823-798.4,160.26-798.39,166.7Zm-.175-21.441a2.733,2.733,0,0,1-1.011.084l-25.833,0a2.344,2.344,0,0,0-2.313,2.357q0,20.336,0,40.67a3.63,3.63,0,0,0,.214,1.669,2.344,2.344,0,0,0,2.11,1.383c2.76.005,25.235,0,26.546,0,.3-.008.468.314.457.581.008.72.013,1.441-.007,2.161-.05.368-.44.439-.747.425-5.15-.005-28.338.01-31.24-.007-.266.022-.4-.236-.482-.445-.043-6.624.009-13.25-.035-19.874q-.036-15.716-.044-31.431a.569.569,0,0,1,.565-.653q15.734-.016,31.47-.006c.211.076.5.17.514.44.031.555,0,1.112.014,1.668A1.514,1.514,0,0,1-798.565,145.255Zm9.065,52.837c-2.288.009-4.574,0-6.862,0a.411.411,0,0,1-.474-.334c-.073-.454,0-13.653-.065-17.278.066-2.282.017-4.566.031-6.849q0-17.168,0-34.334a.524.524,0,0,1,.513-.631c2.175-.035,4.353,0,6.53-.017a2.415,2.415,0,0,1,.648.091,1.224,1.224,0,0,1,.156.646c0,13-.03,57.545.058,58.119C-789.055,197.762-789.156,198.133-789.5,198.093Zm2.786,1.276a.57.57,0,0,1-.641.02c-.258-.336-.111-3.366-.141-4.346h-.005v-.057h.013c-.006-1.535-.006-40.794,0-52.99a2.069,2.069,0,0,0-.063-.517,2.655,2.655,0,0,0,.058-.841c.012-1.047-.01-2.1.01-3.142a.43.43,0,0,1,.661-.367q2.368,1.318,4.723,2.657a16.389,16.389,0,0,0,2.115,1.291c3.172,1.769,6.328,3.564,9.5,5.335.269.159.229.5.238.768-.01,1.175.009,2.351-.01,3.525.022.325-.3.484-.577.518a.754.754,0,0,0-.421,1.211c.194.267.544.264.824.375.175.09.164.32.178.488a5.077,5.077,0,0,1-.048,1.184c-.175.322-.641.167-.861.44a.727.727,0,0,0-.077,1.05c.2.283.587.229.848.413.164.132.122.364.141.55,0,2.72-.007,17.892,0,22.72a1.314,1.314,0,0,1-.137.764c-.192.126-.441.082-.641.186a.77.77,0,0,0-.185,1.2c.251.282.753.17.93.536a5.312,5.312,0,0,1-.006,1.417c-.164.34-.621.2-.853.451a.736.736,0,0,0-.008,1.158c.226.246.657.124.844.414a3.42,3.42,0,0,1,.059.83c-.007,1.005,0,2.01-.005,3.015,0,.232-.01.532-.27.63C-774.478,192.486-785.81,198.85-786.715,199.369Zm19.97-.631a.523.523,0,0,1-.552.53c-2.115.009-6.857.03-7.078-.1-.2-.091-.2-.34-.22-.527-.008-.591,0-1.183-.005-1.774.012-.269,0-.652.335-.72l-.005-.028c1.8-.05,3.6-.007,5.4-.022.628.016,1.258-.037,1.883.039a.894.894,0,0,1,.253.628C-766.738,197.424-766.718,198.081-766.745,198.738Zm1.834-4.162c-2.7.011-5.408,0-8.112.005a1.145,1.145,0,0,1-.674-.2.558.558,0,0,1,.326-.659c1.542-.894,3.111-1.74,4.653-2.632-.01-1.6,0-3.2-.007-4.807a1.633,1.633,0,0,1,.149-.652,8.7,8.7,0,0,1,1.677-.127.771.771,0,0,0,.1-1.4c-.542-.2-1.16.043-1.7-.166-.234-.132-.212-.43-.225-.658a4.182,4.182,0,0,1,.045-.953c.183-.354.631-.256.957-.29.37-.054.838.089,1.117-.231a.762.762,0,0,0-.263-1.247c-.52-.117-1.061.01-1.584-.08a1.865,1.865,0,0,1-.239-.267,9.17,9.17,0,0,1-.033-1.182c0-4.643,0-19.391,0-22,.01-.256-.013-.617.276-.731.6-.178,1.3.127,1.843-.256a.8.8,0,0,0-.227-1.264c-.526-.156-1.1.026-1.628-.118-.231-.118-.261-.406-.261-.635.009-.435-.1-.944.247-1.283.525-.047,1.057.02,1.579-.063a.773.773,0,0,0,.141-1.385c-.526-.239-1.137.009-1.683-.161-.295-.119-.283-.471-.284-.734,0-1.611-.006-3.221.006-4.831-1.235-.747-2.517-1.413-3.762-2.142a4.505,4.505,0,0,1-.962-.585c-.164-.162-.233-.522.027-.623a4.146,4.146,0,0,1,1.207-.079c2.43-.019,4.86-.037,7.29-.036a.521.521,0,0,1,.441.212,2.328,2.328,0,0,1,.1.712c-.007,9.77.019,19.54.024,29.31.029,5.534.056,18.95.021,21.734A.492.492,0,0,1-764.91,194.576Z" transform="translate(832.41 -134.782)" fill="#fe5862"/></g><rect width="8" height="1.5" rx="0.75" transform="translate(19.395 56.034)" fill="#fe5862"/><rect width="8" height="1.5" rx="0.75" transform="translate(28.395 56.034)" fill="#fe5862"/><rect width="8" height="1.5" rx="0.75" transform="translate(19.395 57.534)" fill="#fe5862"/><rect width="8" height="1.5" rx="0.75" transform="translate(28.395 57.534)" fill="#fe5862"/><rect width="8" height="1.5" rx="0.75" transform="translate(19.395 50.034)" fill="#fe5862"/><rect width="8" height="1.5" rx="0.75" transform="translate(20.395 34.034)" fill="#fe5862"/><rect width="8" height="1.5" rx="0.75" transform="translate(30.395 34.034)" fill="#fe5862"/><rect width="8" height="1.5" rx="0.75" transform="translate(30.395 25.034)" fill="#fe5862"/><rect width="8" height="1.5" rx="0.75" transform="translate(28.395 50.034)" fill="#fe5862"/><rect width="8" height="1.5" rx="0.75" transform="translate(19.395 51.534)" fill="#fe5862"/><rect width="8" height="1.5" rx="0.75" transform="translate(20.395 35.534)" fill="#fe5862"/><rect width="8" height="1.5" rx="0.75" transform="translate(30.395 35.534)" fill="#fe5862"/><rect width="8" height="1.5" rx="0.75" transform="translate(30.395 26.534)" fill="#fe5862"/><rect width="8" height="1.5" rx="0.75" transform="translate(28.395 51.534)" fill="#fe5862"/><rect width="8" height="1.5" rx="0.75" transform="translate(19.395 53.034)" fill="#fe5862"/><rect width="8" height="1.5" rx="0.75" transform="translate(28.395 53.034)" fill="#fe5862"/><rect width="8" height="1.5" rx="0.75" transform="translate(19.395 54.534)" fill="#fe5862"/><rect width="8" height="1.5" rx="0.75" transform="translate(28.395 54.534)" fill="#fe5862"/><rect width="8" height="1.5" rx="0.75" transform="translate(19.395 47.034)" fill="#fe5862"/><rect width="8" height="1.5" rx="0.75" transform="translate(20.395 31.034)" fill="#fe5862"/><rect width="8" height="1.5" rx="0.75" transform="translate(30.395 31.034)" fill="#fe5862"/><rect width="8" height="1.5" rx="0.75" transform="translate(30.395 22.034)" fill="#fe5862"/><rect width="8" height="1.5" rx="0.75" transform="translate(19.395 48.534)" fill="#fe5862"/><rect width="8" height="1.5" rx="0.75" transform="translate(20.395 32.534)" fill="#fe5862"/><rect width="8" height="1.5" rx="0.75" transform="translate(30.395 32.534)" fill="#fe5862"/><rect width="8" height="1.5" rx="0.75" transform="translate(30.395 23.534)" fill="#fe5862"/><rect width="8" height="1.5" rx="0.75" transform="translate(28.395 48.534)" fill="#fe5862"/><rect width="8" height="1.5" rx="0.75" transform="translate(19.395 44.034)" fill="#fe5862"/><rect width="8" height="1.5" rx="0.75" transform="translate(20.395 28.034)" fill="#fe5862"/><rect width="8" height="1.5" rx="0.75" transform="translate(30.395 28.034)" fill="#fe5862"/><rect width="8" height="1.5" rx="0.75" transform="translate(30.395 19.034)" fill="#fe5862"/><rect width="8" height="1.5" rx="0.75" transform="translate(19.395 45.534)" fill="#fe5862"/><rect width="8" height="1.5" rx="0.75" transform="translate(20.395 29.534)" fill="#fe5862"/><rect width="8" height="1.5" rx="0.75" transform="translate(30.395 29.534)" fill="#fe5862"/><rect width="8" height="1.5" rx="0.75" transform="translate(30.395 20.534)" fill="#fe5862"/><path d="M4.019,0h.253a1.4,1.4,0,0,1,.823.734c.315.553.644,1.1.95,1.658.29-.118.571-.256.863-.369A14.685,14.685,0,0,1,13.17.882a13.964,13.964,0,0,1,5.8,1.607,20.436,20.436,0,0,1,6.213,5.172,6.069,6.069,0,0,1,.663.905c.047.105.119.231.052.344-.105.07-.237.017-.346-.013a7.176,7.176,0,0,1-.953-.5,12.968,12.968,0,0,0-3.4-1.309,12.462,12.462,0,0,0-5.513.023,16.644,16.644,0,0,0-5.515,2.414q.477.823.952,1.647a1.41,1.41,0,0,1,.223,1.007.7.7,0,0,1-.538.49,2.794,2.794,0,0,1-1.122-.054l-8.26-1.367a1.743,1.743,0,0,1-1.188-.781A1.765,1.765,0,0,1,.137,8.9Q1.69,4.864,3.246.831A1.262,1.262,0,0,1,4.019,0Z" transform="translate(9.738 0) rotate(50)" fill="#fe5862"/></svg>