<svg id="bank-building-icon" xmlns="http://www.w3.org/2000/svg" width="30.84" height="27.334" viewBox="0 0 30.84 27.334">
  <path id="Path_60579" data-name="Path 60579" d="M.7,10.438,15.42,0,30.215,10.438ZM0,25.67H2.279V24.081H2.61v-.758h.966V14.23H1.6V12.052H29.236V14.23H27.263v9.093h.966v.758h.331V25.67H30.84v1.664H0V25.67Zm8.179-1.589H9.294v-.758h.966V14.23H7.213v9.093h.966v.758Zm6.683,0H15.98v-.758h.964V14.23H13.9v9.093h.966v.758Zm6.683,0h1.117v-.758h.966V14.23H20.58v9.093h.966v.758ZM10.463,7.805l4.979-3.82,5.007,3.82Z" fill="#383838" fill-rule="evenodd"/>
</svg>
