<svg xmlns="http://www.w3.org/2000/svg" width="99.759" height="78.002" viewBox="0 0 99.759 78.002">
  <g id="Group_19469" data-name="Group 19469" transform="translate(-1049.781 -285.535)">
    <g id="Group_19467" data-name="Group 19467" transform="translate(1930.666 -307.813)">
      <g id="Group_19462" data-name="Group 19462" transform="translate(-872.029 595.348)">
        <path id="Subtraction_124" data-name="Subtraction 124" d="M-981.718-6458.568c-4.238,0-7.686-1.8-7.686-4.016a2.361,2.361,0,0,1,.346-1.2c1.009,1.684,3.947,2.814,7.313,2.814a12.724,12.724,0,0,0,4.579-.795,5.428,5.428,0,0,0,2.734-2.02h.028a2.336,2.336,0,0,1,.352,1.2C-974.053-6460.37-977.492-6458.568-981.718-6458.568Zm21.842-.435c-5.246,0-9.514-2.241-9.514-4.995a2.9,2.9,0,0,1,.434-1.488c1.246,2.089,4.9,3.493,9.086,3.493a14.533,14.533,0,0,0,6.881-1.551c.463.65.962,1.294,1.484,1.917C-953.176-6460.008-956.384-6459-959.876-6459Zm-36.216-2.141h-4.532a1.026,1.026,0,0,1-.718-.3,1.01,1.01,0,0,1-.3-.721v-46.314a1.549,1.549,0,0,1,.436-1.061,1.535,1.535,0,0,1,1.061-.435h20.313v-19.783a1.736,1.736,0,0,1,.523-1.249,1.778,1.778,0,0,1,1.257-.531h36.175a1.761,1.761,0,0,1,1.25.524l.082.081a1.807,1.807,0,0,1,.448,1.175v19.783h1.005a30.569,30.569,0,0,0-3.051,1.383V-6529.5H-977.8v43.08a1.021,1.021,0,0,1-1.02,1.02,1.021,1.021,0,0,1-1.02-1.02v-21.517H-999.6v44.75h3.506a1.021,1.021,0,0,1,1.02,1.02A1.021,1.021,0,0,1-996.093-6461.144Zm14.368-2.223a12.093,12.093,0,0,1-5.425-1.16c-1.454-.751-2.254-1.753-2.254-2.822a2.274,2.274,0,0,1,.32-1.155c1,1.7,4.025,2.888,7.367,2.888,3.358,0,6.377-1.179,7.34-2.867l-.008-.054a2.294,2.294,0,0,1,.326,1.154C-974.06-6465.168-977.5-6463.366-981.725-6463.366Zm21.849-1.672c-5.246,0-9.514-2.237-9.514-4.987a2.918,2.918,0,0,1,.434-1.495c1.249,2.092,4.9,3.5,9.086,3.5a16.823,16.823,0,0,0,4.009-.466c.4.871.852,1.736,1.34,2.574A15.969,15.969,0,0,1-959.876-6465.038Zm-21.849-3.248a12.083,12.083,0,0,1-5.425-1.161c-1.454-.751-2.254-1.753-2.254-2.823,0-2.218,3.436-4.022,7.658-4.022l.021-.034c4.227,0,7.665,1.805,7.665,4.024S-977.5-6468.286-981.725-6468.286Zm21.849-2.67c-5.246,0-9.514-2.238-9.514-4.99a2.793,2.793,0,0,1,.406-1.433c1.2,2.1,4.948,3.561,9.114,3.561a17.969,17.969,0,0,0,2.094-.122c.227.918.5,1.84.817,2.741A17.367,17.367,0,0,1-959.876-6470.956Zm-.007-6.09c-5.247,0-9.516-2.238-9.516-4.988s4.269-4.988,9.516-4.988c.576,0,1.153.027,1.717.081a30.977,30.977,0,0,0-.509,5.6,31.09,31.09,0,0,0,.29,4.238C-958.88-6477.066-959.383-6477.045-959.883-6477.045Zm-29.06-2.685H-994.8a.153.153,0,0,1-.169-.129v-3.288c0-.061.08-.117.169-.117l-.041-.02h5.9c.089,0,.17.055.17.115v3.31A.154.154,0,0,1-988.942-6479.73Zm2.3-8.719H-994.8a.153.153,0,0,1-.169-.129v-3.31c0-.066.077-.122.169-.122h8.155c.094,0,.17.055.17.122v3.31C-986.475-6488.5-986.549-6488.449-986.646-6488.449Zm29.684-5.232h-5.98a.178.178,0,0,1-.17-.17v-4.465a.177.177,0,0,1,.17-.169h5.98a.175.175,0,0,1,.17.169v4.465a.178.178,0,0,1-.17.17Zm-10.274,0h-5.995a.18.18,0,0,1-.17-.17v-4.465a.179.179,0,0,1,.17-.169h5.995a.169.169,0,0,1,.169.169v4.465A.17.17,0,0,1-967.236-6493.682Zm-17.88-2.767H-994.8c-.092,0-.169-.056-.169-.121v-3.316c0-.066.077-.123.169-.123h9.684c.1,0,.17.054.17.123v3.316C-984.946-6496.5-985.022-6496.449-985.116-6496.449Zm35.392-6.563h-2.982a.172.172,0,0,1-.17-.164v-6.362a.17.17,0,0,1,.17-.169h5.98a.177.177,0,0,1,.17.169v3.752a31.075,31.075,0,0,0-3.168,2.773Zm-7.278,0h-5.98a.172.172,0,0,1-.171-.164v-6.362a.17.17,0,0,1,.171-.169H-957a.177.177,0,0,1,.17.169v6.362A.172.172,0,0,1-957-6503.012Zm-10.275,0h-5.954a.172.172,0,0,1-.17-.164v-6.362a.17.17,0,0,1,.17-.169h5.954a.17.17,0,0,1,.17.169v6.362A.172.172,0,0,1-967.277-6503.012Zm20.6-11.533H-973.25a.821.821,0,0,1-.81-.808v-9.386a.81.81,0,0,1,.81-.808v-.021h26.578a.825.825,0,0,1,.577.248.819.819,0,0,1,.233.582v9.406A.814.814,0,0,1-946.672-6514.545Z" transform="translate(992.782 6531.535)" fill="#383838"/>
      </g>
      <g id="Group_19464" data-name="Group 19464" transform="translate(-833.405 619.071)">
        <g id="Group_19448" data-name="Group 19448">
          <path id="Path_60589" data-name="Path 60589" d="M269.971,341a26.14,26.14,0,1,1-26.141,26.138A26.138,26.138,0,0,1,269.971,341Z" transform="translate(-243.83 -341)" fill="#fe5862" fill-rule="evenodd"/>
        </g>
        <path id="receipt-us-dollar-icon" d="M24.912,25.018l-.477-.55L22.113,26.79a.7.7,0,0,1-.981,0l-2.366-2.3L16.448,26.72a.7.7,0,0,1-.974.029l-2.461-2.272L10.741,26.83a.7.7,0,0,1-.992,0l-2.34-2.353-2.419,2.3a.7.7,0,0,1-.976-.013L1.726,24.442l-.462.534A.7.7,0,0,1,0,24.56V.7A.7.7,0,0,1,.7,0H25.438a.7.7,0,0,1,.7.7V24.56a.708.708,0,0,1-.244.528.7.7,0,0,1-.983-.07ZM5.79,17.483a1.608,1.608,0,0,1-.286-.035l-.5-.075L4.7,17.323q-.15-.026-.3-.059c-.106-.024-.2-.046-.288-.07L4,17.162V15.24l.543.044.4.024.418.02.427.013h1.1A2.166,2.166,0,0,0,7.13,15.3a.8.8,0,0,0,.169-.057.407.407,0,0,0,.1-.07.231.231,0,0,0,.051-.079.378.378,0,0,0,.02-.128v-.128a.246.246,0,0,0-.1-.22.464.464,0,0,0-.132-.066.539.539,0,0,0-.163-.022H6.518a4.036,4.036,0,0,1-1.124-.141,2.223,2.223,0,0,1-.842-.44,1.784,1.784,0,0,1-.523-.79,3.466,3.466,0,0,1-.169-1.141v-.35A2.9,2.9,0,0,1,4.046,10.6a1.942,1.942,0,0,1,.572-.787,2.681,2.681,0,0,1,.563-.372,2.281,2.281,0,0,1,.611-.183V8.4H7.565v.818a7.627,7.627,0,0,1,.809.117l.147.026.372.07c.117.024.22.048.332.075l.121.029v1.926l-.172-.015-.512-.037-.576-.031-.576-.02H6.716a2.252,2.252,0,0,0-.233.029.71.71,0,0,0-.167.051.4.4,0,0,0-.108.077.231.231,0,0,0-.059.095.5.5,0,0,0-.022.163v.108a.44.44,0,0,0,.029.172.281.281,0,0,0,.081.108.411.411,0,0,0,.156.073,1.018,1.018,0,0,0,.264.029h.7a3.316,3.316,0,0,1,.715.075,2.166,2.166,0,0,1,.6.22,1.979,1.979,0,0,1,.8.827,2.419,2.419,0,0,1,.2.565,2.8,2.8,0,0,1,.066.616v.35a4.159,4.159,0,0,1-.1.919,2.063,2.063,0,0,1-.284.7,1.812,1.812,0,0,1-.464.486,1.979,1.979,0,0,1-.62.295l-.059.018a3.519,3.519,0,0,1-.66.141V18.4H5.79Zm12.881-1.126a.66.66,0,0,1,0,1.32H12.5a.66.66,0,0,1,0-1.32Zm3.444-3.6a.66.66,0,1,1,0,1.32H12.5a.66.66,0,0,1,0-1.32Zm.022-3.576a.66.66,0,1,1,0,1.32H12.5a.66.66,0,0,1,0-1.32ZM21.112,3.448a1.163,1.163,0,1,1-.822.341,1.163,1.163,0,0,1,.822-.341Zm-5.359,0a1.159,1.159,0,1,1-.822.341,1.159,1.159,0,0,1,.822-.341Zm-5.357,0a1.163,1.163,0,1,1-.822.341A1.163,1.163,0,0,1,10.4,3.448Zm-5.359,0a1.159,1.159,0,1,1-.822.341,1.159,1.159,0,0,1,.822-.341ZM24.743,22.8V1.4H1.4V22.783a.7.7,0,0,1,.75.106l2.38,2.4,2.419-2.3a.7.7,0,0,1,.976.013l2.322,2.32,2.245-2.314a.7.7,0,0,1,.974-.026l2.478,2.287,2.347-2.254a.7.7,0,0,1,.976,0l2.349,2.285,2.353-2.355a.7.7,0,0,1,.765-.152Z" transform="translate(13.07 12.623)" fill="#fff"/>
      </g>
    </g>
    <path id="Path_60623" data-name="Path 60623" d="M4.019,12.712h.253a1.4,1.4,0,0,0,.823-.734c.315-.553.644-1.1.95-1.658.29.118.571.256.863.369a14.685,14.685,0,0,0,6.262,1.14,13.963,13.963,0,0,0,5.8-1.607,20.436,20.436,0,0,0,6.213-5.172,6.069,6.069,0,0,0,.662-.905c.047-.105.119-.231.052-.344-.105-.07-.237-.017-.346.013a7.176,7.176,0,0,0-.953.5,12.967,12.967,0,0,1-3.4,1.309A12.462,12.462,0,0,1,15.686,5.6a16.644,16.644,0,0,1-5.515-2.414q.477-.823.952-1.647A1.41,1.41,0,0,0,11.346.53a.7.7,0,0,0-.538-.49A2.794,2.794,0,0,0,9.685.093L1.425,1.46a1.743,1.743,0,0,0-1.188.781,1.765,1.765,0,0,0-.1,1.573Q1.69,7.847,3.246,11.88A1.262,1.262,0,0,0,4.019,12.712Z" transform="translate(1140.9 296.543) rotate(150)" fill="#fe5862"/>
  </g>
</svg>
