<svg xmlns="http://www.w3.org/2000/svg" width="82.538" height="69.615" viewBox="0 0 82.538 69.615">
  <g id="Group_19348" data-name="Group 19348" transform="translate(-84 -61.312)">
    <g id="Group_19294" data-name="Group 19294" transform="translate(84 61.312)">
      <path id="bank-finance-loan_1_" data-name="bank-finance-loan(1)" d="M1.616,24.07,35.558,0,69.675,24.07ZM61.579,46.676,60.8,43.105c3.341.623,8.7,7.425,10.432,10.517a29.2,29.2,0,0,1,2.292,5.261c1.264,4.7.048,9.1-5.056,10.128a63.591,63.591,0,0,1-12.523.514c-3.617-.185-9.211-.181-10.673-3.893-2.357-5.991,1.962-13.128,5.9-17.5a21.9,21.9,0,0,1,1.61-1.605c1.433-1.26,2.98-2.757,4.825-3.378L55.826,46.47l2.59-3.432h1.361l1.8,3.639ZM56.523,38c-.59-1.737-1.121-3.5-1.568-5.283,1.669-1.832,8.127-1.588,9.982-.027l-1.718,4.087c.925-1.214,1.236-1.712,1.788-2.39a5.4,5.4,0,0,1,.655.509,2.7,2.7,0,0,1,1.014,1.613,1.692,1.692,0,0,1-.462,1.351l-3.946,4.594a8.557,8.557,0,0,1-1.484-.376c.224-.526.494-1.105.717-1.631L60.063,42a5.366,5.366,0,0,0-3.819.465l-4-4.8a1.327,1.327,0,0,1-.344-.857c0-1.162,1.733-2.162,2.64-2.542L56.523,38ZM0,59.195H3.948V55.531H6.019V53.783H8.247V32.815H3.692V27.791H56.781a8.81,8.81,0,0,0-4.532,2.1,3.936,3.936,0,0,0-1.059,1.756,9.115,9.115,0,0,0-1.3,1.029l-.145.143H47.458V46.444a31.423,31.423,0,0,0-5.767,9.823,17.363,17.363,0,0,0-.97,6.764H0Zm62.677-31.4h4.741V29.68A10.62,10.62,0,0,0,62.677,27.791ZM18.862,55.531h2.569V53.783H23.66V32.815H16.634V53.783h2.228Zm15.411,0h2.575V53.783h2.222V32.815H32.045V53.783h2.228v1.748ZM24.128,18,35.61,9.19,47.156,18Z" fill="#fe5862" fill-rule="evenodd"/>
      <text id="ریال" transform="translate(46.964 47.104)" fill="#fff" font-size="13" font-family="IRANSans-Bold, IRAN Sans" font-weight="700"><tspan x="-9.207" y="9">ریال</tspan></text>
    </g>
    <path id="Path_26623" data-name="Path 26623" d="M4.019,0h.253a1.4,1.4,0,0,1,.823.734c.315.553.644,1.1.95,1.658.29-.118.571-.256.863-.369A14.685,14.685,0,0,1,13.17.882a13.964,13.964,0,0,1,5.8,1.607,20.436,20.436,0,0,1,6.213,5.172,6.069,6.069,0,0,1,.663.905c.047.105.119.231.052.344-.105.07-.237.017-.346-.013a7.176,7.176,0,0,1-.953-.5,12.968,12.968,0,0,0-3.4-1.309,12.462,12.462,0,0,0-5.513.023,16.644,16.644,0,0,0-5.515,2.414q.477.823.952,1.647a1.41,1.41,0,0,1,.223,1.007.7.7,0,0,1-.538.49,2.794,2.794,0,0,1-1.122-.054l-8.26-1.367a1.743,1.743,0,0,1-1.188-.781A1.765,1.765,0,0,1,.137,8.9Q1.69,4.864,3.246.831A1.262,1.262,0,0,1,4.019,0Z" transform="translate(164.729 87.563) rotate(86)" fill="#fe5862"/>
  </g>
</svg>
