<svg xmlns="http://www.w3.org/2000/svg" width="56.323" height="60.427" viewBox="0 0 56.323 60.427">
  <g id="Group_19393" data-name="Group 19393" transform="translate(0)">
    <path id="contract-icon" d="M11.509,14.828l.6,7.448a2.487,2.487,0,0,0,.43,1.382.89.89,0,0,0,.722.234h2.31a.856.856,0,0,0,.741-.287,1.98,1.98,0,0,0,.292-1.124V14.273a.411.411,0,0,1,0-.134h0a.622.622,0,0,0-.263-.44,1.746,1.746,0,0,0-.957-.182c-1.009,0-2.047.029-3.047,0a.957.957,0,0,0-.717.249A1.335,1.335,0,0,0,11.5,14.79v.038ZM27.9,55.654a1.564,1.564,0,1,1,0,3.123H3.635A3.64,3.64,0,0,1,0,55.142V3.635A3.64,3.64,0,0,1,3.635,0H47.049A3.64,3.64,0,0,1,50.7,3.635v25.83c0,1.7-.732,1.966-1.488,2.019s-1.636-.206-1.636-2.019V3.635a.478.478,0,0,0-.153-.359.512.512,0,0,0-.359-.153H3.635a.531.531,0,0,0-.364.148.541.541,0,0,0-.148.364v51.5a.478.478,0,0,0,.153.359.512.512,0,0,0,.364.153Zm-16.622-8.83a1.583,1.583,0,0,1,0-3.162H24.022l-.105,2.6a4.094,4.094,0,0,0-.4.56Zm.607-8.686a1.564,1.564,0,0,1,0-3.123H27.418a1.564,1.564,0,0,1,1.559,1.564.579.579,0,0,1,0,.091,3.98,3.98,0,0,0-.292.478,3.894,3.894,0,0,0-.6.641l-.22.277a1.574,1.574,0,0,1-.45.067ZM34.622,13.259a1.019,1.019,0,0,1,.124-.124,2.138,2.138,0,0,1,1.483-.478h2.808a2.774,2.774,0,0,1,1.717.445,1.665,1.665,0,0,1,.574,1.645l-.765,7.907a2.741,2.741,0,0,1-.574,1.641,1.76,1.76,0,0,1-1.488.579H36.037a1.622,1.622,0,0,1-1.119-.34,1.942,1.942,0,0,1-.478-.593h-.957a1.966,1.966,0,0,1-.029,1.081,2.1,2.1,0,0,1-.694.985,2.43,2.43,0,0,1-1.081.478,2.124,2.124,0,0,1-1.076-.1,2.913,2.913,0,0,1-1.282.789,2.392,2.392,0,0,1-1.363-.033,2.87,2.87,0,0,1-1.468.88,2.765,2.765,0,0,1-1.741-.23,2.669,2.669,0,0,1-.564.32,2.392,2.392,0,0,1-.985.182,2.664,2.664,0,0,1-1.8-.66A5.262,5.262,0,0,1,20.4,26.27l-1.669-2.918H17.593a2.329,2.329,0,0,1-.416.914,1.885,1.885,0,0,1-1.626.713H13.269a1.913,1.913,0,0,1-1.535-.584,3.43,3.43,0,0,1-.708-2v-.048l-.6-7.428a2.282,2.282,0,0,1,.364-1.861,1.985,1.985,0,0,1,1.507-.622h3.09a2.741,2.741,0,0,1,1.535.359,1.6,1.6,0,0,1,.66.828h2.353a7.1,7.1,0,0,1,1.865-.957,5.085,5.085,0,0,1,2.119-.23l.8-.957.048-.048a3.425,3.425,0,0,1,.823-.584,4.276,4.276,0,0,1,.99-.378,6.218,6.218,0,0,1,1.679-.187,7.62,7.62,0,0,1,1.784.244h0a8.9,8.9,0,0,1,2.717,1.464l.612.421,1.22.818ZM23.979,27l-1.124-2.124a.546.546,0,1,1,.961-.517l1.268,2.392a1.794,1.794,0,0,0,1.172.2,1.751,1.751,0,0,0,.866-.517l-1.8-2.827a.546.546,0,1,1,.923-.584l1.913,3.037a1.335,1.335,0,0,0,.856.062,1.779,1.779,0,0,0,.761-.478L28.049,22.4a.545.545,0,1,1,.957-.517l1.818,3.42a1.033,1.033,0,0,0,.655.1,1.205,1.205,0,0,0,.569-.254.947.947,0,0,0,.282-1.167.478.478,0,0,1-.043-.163.569.569,0,0,1-.187-.225l-4.056-7.318c-.387-.655-.727-.679-1.048-.478a5.74,5.74,0,0,0-.837.679c-.167.158-.34.311-.507.45l-.722.6a3.128,3.128,0,0,1-1.665.679,2.483,2.483,0,0,1-1.067-.143,2.047,2.047,0,0,1-.875-.622,2.071,2.071,0,0,1-.45-1.153.55.55,0,0,1,.163-.435L23,13.5a3.827,3.827,0,0,0-.9.163,6.534,6.534,0,0,0-1.689.885.526.526,0,0,1-.34.12H17.7v7.586h1.344a.55.55,0,0,1,.478.3l1.818,3.171a4.492,4.492,0,0,0,.77,1.1,1.631,1.631,0,0,0,1.1.383,1.282,1.282,0,0,0,.541-.1,1.525,1.525,0,0,0,.215-.11Zm10.1-4.152.077-8.61-1.358-.9-.631-.416a7.969,7.969,0,0,0-2.392-1.306h0a6.6,6.6,0,0,0-1.521-.21,5.2,5.2,0,0,0-1.392.148,3.435,3.435,0,0,0-.756.292,2.588,2.588,0,0,0-.569.4l-.9,1.067a.5.5,0,0,1-.139.163L22,16.407a.885.885,0,0,0,.584.646,1.4,1.4,0,0,0,.593.072,2.047,2.047,0,0,0,1.076-.445l.7-.584c.163-.129.316-.273.478-.411a6.63,6.63,0,0,1,1.014-.813c.866-.521,1.717-.521,2.554.866l3.941,7.108Zm-19.43-2.277a.694.694,0,1,1-.5.2.7.7,0,0,1,.5-.2Zm22.482,0a.686.686,0,1,1-.014,0Z" transform="translate(0 0)" fill="#383838" fill-rule="evenodd"/>
    <g id="Group_19396" data-name="Group 19396" transform="translate(27.373 31.476)">
      <path id="Path_60586" data-name="Path 60586" d="M258.315,341a14.476,14.476,0,1,1-14.475,14.475A14.475,14.475,0,0,1,258.315,341Z" transform="translate(-243.84 -341)" fill="#00a912" fill-rule="evenodd"/>
      <path id="Path_60587" data-name="Path 60587" d="M285.3,391.713l2.566,2.424,6.064-6.146c.5-.509.817-.918,1.436-.281l2.011,2.06c.66.651.626,1.035,0,1.642l-8.367,8.232c-1.313,1.287-1.084,1.365-2.415.044l-4.682-4.655a.58.58,0,0,1,.056-.9l2.334-2.42C284.656,391.337,284.938,391.369,285.3,391.713Z" transform="translate(-275.314 -379.538)" fill="#fff" fill-rule="evenodd"/>
    </g>
  </g>
</svg>
