<svg xmlns="http://www.w3.org/2000/svg" width="55.573" height="60.427" viewBox="0 0 55.573 60.427">
  <g id="Group_19452" data-name="Group 19452" transform="translate(-105 -551.018)">
    <g id="Group_19394" data-name="Group 19394" transform="translate(105 551.018)">
      <path id="contract-icon" d="M11.509,14.828l.6,7.448a2.487,2.487,0,0,0,.43,1.382.89.89,0,0,0,.722.234h2.31a.856.856,0,0,0,.741-.287,1.98,1.98,0,0,0,.292-1.124V14.273a.411.411,0,0,1,0-.134h0a.622.622,0,0,0-.263-.44,1.746,1.746,0,0,0-.957-.182c-1.009,0-2.047.029-3.047,0a.957.957,0,0,0-.717.249A1.335,1.335,0,0,0,11.5,14.79v.038ZM27.9,55.654a1.564,1.564,0,1,1,0,3.123H3.635A3.64,3.64,0,0,1,0,55.142V3.635A3.64,3.64,0,0,1,3.635,0H47.049A3.64,3.64,0,0,1,50.7,3.635v25.83c0,1.7-.732,1.966-1.488,2.019s-1.636-.206-1.636-2.019V3.635a.478.478,0,0,0-.153-.359.512.512,0,0,0-.359-.153H3.635a.531.531,0,0,0-.364.148.541.541,0,0,0-.148.364v51.5a.478.478,0,0,0,.153.359.512.512,0,0,0,.364.153Zm-16.622-8.83a1.583,1.583,0,0,1,0-3.162H24.022l-.105,2.6a4.094,4.094,0,0,0-.4.56Zm.607-8.686a1.564,1.564,0,0,1,0-3.123H27.418a1.564,1.564,0,0,1,1.559,1.564.579.579,0,0,1,0,.091,3.98,3.98,0,0,0-.292.478,3.894,3.894,0,0,0-.6.641l-.22.277a1.574,1.574,0,0,1-.45.067ZM34.622,13.259a1.019,1.019,0,0,1,.124-.124,2.138,2.138,0,0,1,1.483-.478h2.808a2.774,2.774,0,0,1,1.717.445,1.665,1.665,0,0,1,.574,1.645l-.765,7.907a2.741,2.741,0,0,1-.574,1.641,1.76,1.76,0,0,1-1.488.579H36.037a1.622,1.622,0,0,1-1.119-.34,1.942,1.942,0,0,1-.478-.593h-.957a1.966,1.966,0,0,1-.029,1.081,2.1,2.1,0,0,1-.694.985,2.43,2.43,0,0,1-1.081.478,2.124,2.124,0,0,1-1.076-.1,2.913,2.913,0,0,1-1.282.789,2.392,2.392,0,0,1-1.363-.033,2.87,2.87,0,0,1-1.468.88,2.765,2.765,0,0,1-1.741-.23,2.669,2.669,0,0,1-.564.32,2.392,2.392,0,0,1-.985.182,2.664,2.664,0,0,1-1.8-.66A5.262,5.262,0,0,1,20.4,26.27l-1.669-2.918H17.593a2.329,2.329,0,0,1-.416.914,1.885,1.885,0,0,1-1.626.713H13.269a1.913,1.913,0,0,1-1.535-.584,3.43,3.43,0,0,1-.708-2v-.048l-.6-7.428a2.282,2.282,0,0,1,.364-1.861,1.985,1.985,0,0,1,1.507-.622h3.09a2.741,2.741,0,0,1,1.535.359,1.6,1.6,0,0,1,.66.828h2.353a7.1,7.1,0,0,1,1.865-.957,5.085,5.085,0,0,1,2.119-.23l.8-.957.048-.048a3.425,3.425,0,0,1,.823-.584,4.276,4.276,0,0,1,.99-.378,6.218,6.218,0,0,1,1.679-.187,7.62,7.62,0,0,1,1.784.244h0a8.9,8.9,0,0,1,2.717,1.464l.612.421,1.22.818ZM23.979,27l-1.124-2.124a.546.546,0,1,1,.961-.517l1.268,2.392a1.794,1.794,0,0,0,1.172.2,1.751,1.751,0,0,0,.866-.517l-1.8-2.827a.546.546,0,1,1,.923-.584l1.913,3.037a1.335,1.335,0,0,0,.856.062,1.779,1.779,0,0,0,.761-.478L28.049,22.4a.545.545,0,1,1,.957-.517l1.818,3.42a1.033,1.033,0,0,0,.655.1,1.205,1.205,0,0,0,.569-.254.947.947,0,0,0,.282-1.167.478.478,0,0,1-.043-.163.569.569,0,0,1-.187-.225l-4.056-7.318c-.387-.655-.727-.679-1.048-.478a5.74,5.74,0,0,0-.837.679c-.167.158-.34.311-.507.45l-.722.6a3.128,3.128,0,0,1-1.665.679,2.483,2.483,0,0,1-1.067-.143,2.047,2.047,0,0,1-.875-.622,2.071,2.071,0,0,1-.45-1.153.55.55,0,0,1,.163-.435L23,13.5a3.827,3.827,0,0,0-.9.163,6.534,6.534,0,0,0-1.689.885.526.526,0,0,1-.34.12H17.7v7.586h1.344a.55.55,0,0,1,.478.3l1.818,3.171a4.492,4.492,0,0,0,.77,1.1,1.631,1.631,0,0,0,1.1.383,1.282,1.282,0,0,0,.541-.1,1.525,1.525,0,0,0,.215-.11Zm10.1-4.152.077-8.61-1.358-.9-.631-.416a7.969,7.969,0,0,0-2.392-1.306h0a6.6,6.6,0,0,0-1.521-.21,5.2,5.2,0,0,0-1.392.148,3.435,3.435,0,0,0-.756.292,2.588,2.588,0,0,0-.569.4l-.9,1.067a.5.5,0,0,1-.139.163L22,16.407a.885.885,0,0,0,.584.646,1.4,1.4,0,0,0,.593.072,2.047,2.047,0,0,0,1.076-.445l.7-.584c.163-.129.316-.273.478-.411a6.63,6.63,0,0,1,1.014-.813c.866-.521,1.717-.521,2.554.866l3.941,7.108Zm-19.43-2.277a.694.694,0,1,1-.5.2.7.7,0,0,1,.5-.2Zm22.482,0a.686.686,0,1,1-.014,0Z" transform="translate(0 0)" fill="#383838" fill-rule="evenodd"/>
    </g>
    <path id="Subtraction_117" data-name="Subtraction 117" d="M-5407.869-5128.583a14.7,14.7,0,0,1-10.462-4.334,14.705,14.705,0,0,1-4.334-10.464,14.7,14.7,0,0,1,4.334-10.462,14.7,14.7,0,0,1,10.462-4.334,14.668,14.668,0,0,1,6.36,1.433,6.017,6.017,0,0,0-2.265,2.275,11.768,11.768,0,0,0-4.094-.729,11.738,11.738,0,0,0-8.357,3.462,11.738,11.738,0,0,0-3.462,8.357,11.735,11.735,0,0,0,3.462,8.356,11.738,11.738,0,0,0,8.357,3.462,11.736,11.736,0,0,0,8.356-3.462,11.735,11.735,0,0,0,3.462-8.356,11.919,11.919,0,0,0-.28-2.569,6.013,6.013,0,0,0,2.558-1.941,14.8,14.8,0,0,1,.7,4.509,14.706,14.706,0,0,1-4.333,10.464A14.706,14.706,0,0,1-5407.869-5128.583Zm.165-6.259h-2.24a3.722,3.722,0,0,1-2.024-.6,3.552,3.552,0,0,1-.327-.238,3.4,3.4,0,0,1-.3-.271,3.8,3.8,0,0,1-.707-.992c-.034-.072-.068-.146-.1-.219a3.778,3.778,0,0,1-.3-1.479v-2.958a2.243,2.243,0,0,1,.14-.773c.016-.044.034-.088.057-.14l.021-.043.011-.023.034-.067.008-.01,0-.005a2.083,2.083,0,0,1,.308-.378l.066-.065,0,0,.066-.057.006-.005.008,0a2.071,2.071,0,0,1,.494-.3l.026-.011c.035-.014.062-.025.079-.031a2.043,2.043,0,0,1,.708-.123h.1l.042.005.037.01.03,0h5.11a2.079,2.079,0,0,1,.992.25c.066.037.119.069.167.1a1.56,1.56,0,0,1,.158.116l0,.006a2.092,2.092,0,0,1,.6.788c.034.079.055.134.071.184a1.41,1.41,0,0,1,.042.143l.013.05,0,.012,0,.014a.126.126,0,0,1,0,.018.114.114,0,0,0,0,.015v.006l.005.015,0,.007.018.052.007.091v.005l0,.037,0,.069v.9l-.222-.074a5.464,5.464,0,0,0-.99-.234l-.129-.017-.07-.009-.074-.006c-.042,0-.082-.007-.123-.008l-.143-.005h-.052a3.225,3.225,0,0,0-1.049.165c-.068.025-.139.051-.2.076s-.127.06-.187.091l-.1.057a2.37,2.37,0,0,0-.773.752c-.044.069-.08.13-.11.188s-.046.092-.069.141l-.028.061a3.2,3.2,0,0,0-.207.755c0,.019,0,.037-.007.055l0,.027v.005c0,.032-.008.063-.011.092s-.009.09-.012.151l.374,0a3.236,3.236,0,0,1,.081-.542l.014-.055,0-.012q.01-.041.021-.078c.013-.043.027-.091.046-.139l.043-.116a2.134,2.134,0,0,1,.535-.758c.024-.022.051-.042.077-.063l.017-.014.046-.037.03-.021.02-.013c.035-.024.068-.047.1-.066l.007-.005a2.371,2.371,0,0,1,.833-.3l.013,0c.055-.008.123-.018.189-.022s.141-.011.209-.012h.143a4.516,4.516,0,0,1,1.05.15c.094.024.173.046.241.069l.188.06.04.013.022.007.011.008.171.064.074.054a.222.222,0,0,0,.047.045l.022.011a.139.139,0,0,0,.076.02h.005a.236.236,0,0,0,.069-.012l.017-.008.018-.01h.005l0,0a2.261,2.261,0,0,0,.289-.211c.1-.087.231-.2.366-.328.239-.225.505-.49.643-.627l.005-.005a1.666,1.666,0,0,1,1.038-.542l.063,0a1.057,1.057,0,0,1,.127.007.946.946,0,0,1,.18.037l.011,0a.948.948,0,0,1,.314.17l.005,0,.046.035.008.007.041.042.008.008,0,0a1.037,1.037,0,0,1,.189.305l0,.005.021.059,0,.014.018.061v.007l0,.008a1.441,1.441,0,0,1-.266,1.151,2.279,2.279,0,0,1-.182.231,2.424,2.424,0,0,1-.23.229l-.011.011-.015.012-.01.01-.005,0-3.457,3.491-.121.131-.007-.007a5.107,5.107,0,0,1-.566.45,3.367,3.367,0,0,1-.688.366,3.73,3.73,0,0,1-.751.207A5.331,5.331,0,0,1-5407.7-5134.842Zm3.43-8.184v0l-.289-.282-.033-.033a2.474,2.474,0,0,0-1.056-.627,1.7,1.7,0,0,0-.244-.057,2.458,2.458,0,0,0-.247-.034l-.033,0-.156-.012v-5.4a1.039,1.039,0,0,1,.3-.727,1.09,1.09,0,0,1,.267-.192l0,0,.049-.022.005,0a1,1,0,0,1,.4-.082h.005a1.031,1.031,0,0,1,.549.161.485.485,0,0,1,.091.067.678.678,0,0,1,.055.046l.01.009.012.011.011.01a1.084,1.084,0,0,1,.194.268l0,.005.023.049,0,.005a1.011,1.011,0,0,1,.082.4v6.452Zm-9.423-.011v-4.711a1.037,1.037,0,0,1,.159-.55c.018-.028.039-.057.064-.09a1.01,1.01,0,0,1,.075-.084,1.063,1.063,0,0,1,.268-.194l.005,0,.049-.024a1.014,1.014,0,0,1,.4-.083,1.045,1.045,0,0,1,.731.3,1.032,1.032,0,0,1,.192.267l0,0,.022.05,0,.005a1,1,0,0,1,.081.4v3.683l-.159.01a2.386,2.386,0,0,0-1.172.392c-.063.042-.129.089-.195.142a2.315,2.315,0,0,0-.177.164l-.021.018-.037.038-.291.272Zm4.488-1.029h0l-.168,0h-1.888v-5.422a1.011,1.011,0,0,1,.161-.55.7.7,0,0,1,.064-.091.912.912,0,0,1,.074-.083,1.076,1.076,0,0,1,.268-.195l.005,0,.049-.022.005,0a1.008,1.008,0,0,1,.4-.081h.005a1.032,1.032,0,0,1,.725.3,1.069,1.069,0,0,1,.193.267l.026.054,0,0a1.007,1.007,0,0,1,.082.4v5.43Zm2.471,0h-2.054v-7.057a1.034,1.034,0,0,1,.3-.727,1.059,1.059,0,0,1,.266-.192l.054-.027,0,0a1.04,1.04,0,0,1,.4-.081,1.027,1.027,0,0,1,.73.3,1.06,1.06,0,0,1,.192.266l0,.005.021.049,0,0a1,1,0,0,1,.082.4v7.063Z" transform="translate(5553.645 5740.028)" fill="#fe5862"/>
    <g id="Group_19445" data-name="Group 19445" transform="translate(150.374 583.785)">
      <path id="Path_60589" data-name="Path 60589" d="M248.571,341a4.74,4.74,0,1,1-4.741,4.74A4.74,4.74,0,0,1,248.571,341Z" transform="translate(-243.83 -341)" fill="#fe5862" fill-rule="evenodd"/>
      <path id="Path_60590" data-name="Path 60590" d="M289.723,387.688c-.167-.165-.3-.268-.092-.47l.675-.659c.214-.217.339-.206.538,0l.909.909.9-.9c.165-.167.268-.3.47-.092l.659.675c.216.214.206.339,0,.538l-.908.908.908.908c.2.2.215.325,0,.538l-.659.675c-.2.209-.306.075-.47-.092l-.9-.9-.909.909c-.2.2-.324.215-.538,0l-.675-.659c-.209-.2-.075-.306.092-.47l.9-.9Z" transform="translate(-286.993 -383.851)" fill="#fff" fill-rule="evenodd"/>
    </g>
  </g>
</svg>
