<svg id="csv-icon" xmlns="http://www.w3.org/2000/svg" width="36.77" height="36.459" viewBox="0 0 36.77 36.459">
  <path id="Path_60627" data-name="Path 60627" d="M39.688,11.072H33.553a2.549,2.549,0,0,1-2.648-2.6V2.253H15.324a.174.174,0,0,0-.123.054.135.135,0,0,0-.054.126V34.026a.209.209,0,0,0,.054.123.153.153,0,0,0,.123.054h24.19c.054,0,.051-.027.078-.054s.1-.084.1-.123V11.072Zm2.235,23.663A1.727,1.727,0,0,1,40.2,36.459H14.624A1.727,1.727,0,0,1,12.9,34.735V1.724A1.706,1.706,0,0,1,13.406.506,1.727,1.727,0,0,1,14.624,0H32.051a1.263,1.263,0,0,1,.736.245l8.9,9.013a.769.769,0,0,1,.233.778v24.7ZM32.979,8.286l-.129-5.4,6.311,6.395-5.428-.242a.718.718,0,0,1-.754-.748Z" transform="translate(-9.04 0)" fill-rule="evenodd"/>
  <path id="Path_60628" data-name="Path 60628" d="M2.008,46.28H34.762a2.014,2.014,0,0,1,2.008,2.011v13.5a2.014,2.014,0,0,1-2.008,2.008H2.008A2.014,2.014,0,0,1,0,61.783V48.291a2.014,2.014,0,0,1,2.008-2.008Z" transform="translate(0 -32.431)" fill="red" fill-rule="evenodd"/>
  <path id="Path_60629" data-name="Path 60629" d="M18.911,64.969l2.558.778a4.647,4.647,0,0,1-.811,1.8,3.516,3.516,0,0,1-1.376,1.089A5.177,5.177,0,0,1,17.187,69a6.116,6.116,0,0,1-2.517-.446,4.007,4.007,0,0,1-1.682-1.571A5.323,5.323,0,0,1,12.28,64.1a4.88,4.88,0,0,1,1.245-3.591,4.761,4.761,0,0,1,3.528-1.257,4.752,4.752,0,0,1,2.8.721,4.219,4.219,0,0,1,1.514,2.214l-2.564.566a2.173,2.173,0,0,0-.3-.625,1.715,1.715,0,0,0-.6-.512,1.745,1.745,0,0,0-.793-.18,1.724,1.724,0,0,0-1.523.793,3.373,3.373,0,0,0-.4,1.855,3.494,3.494,0,0,0,.476,2.146,1.628,1.628,0,0,0,1.338.581,1.619,1.619,0,0,0,1.281-.467,2.87,2.87,0,0,0,.622-1.362Zm3.456.742,2.768-.174a2.1,2.1,0,0,0,.365,1.02,1.55,1.55,0,0,0,1.287.572,1.421,1.421,0,0,0,.961-.3.874.874,0,0,0,.338-.679.862.862,0,0,0-.317-.655,3.718,3.718,0,0,0-1.5-.548,6.147,6.147,0,0,1-2.708-1.137,2.3,2.3,0,0,1-.823-1.816,2.46,2.46,0,0,1,.422-1.37,2.774,2.774,0,0,1,1.266-1.017,5.952,5.952,0,0,1,2.319-.368,4.77,4.77,0,0,1,2.756.673,2.9,2.9,0,0,1,1.128,2.143l-2.738.162a1.5,1.5,0,0,0-.461-.934,1.466,1.466,0,0,0-.967-.3,1.2,1.2,0,0,0-.769.215.664.664,0,0,0-.254.527.533.533,0,0,0,.206.4,2.346,2.346,0,0,0,.973.347,11.97,11.97,0,0,1,2.735.835,2.846,2.846,0,0,1,1.2,1.044,2.645,2.645,0,0,1,.371,1.391,2.992,2.992,0,0,1-.5,1.673,3.133,3.133,0,0,1-1.4,1.161,5.647,5.647,0,0,1-2.268.395,4.623,4.623,0,0,1-3.331-.928A3.645,3.645,0,0,1,22.367,65.711ZM31.461,59.4h3.052l2.125,6.79,2.095-6.79h2.959l-3.5,9.432H35.031L31.467,59.4Z" transform="translate(-8.602 -41.509)" fill="#fff"/>
</svg>
