<svg xmlns="http://www.w3.org/2000/svg" width="95.338" height="101.064" viewBox="0 0 95.338 101.064">
  <g id="Group_19476" data-name="Group 19476" transform="translate(-1387.897 -264.994)">
    <g id="income-tax" transform="translate(1387.897 274.372)">
      <path id="Path_381" data-name="Path 381" d="M34.27,24.447a5.3,5.3,0,0,1,.8,2.748,5.129,5.129,0,0,1-.448,2.072,20.43,20.43,0,0,0-4.041-1.429,10.183,10.183,0,0,0,3.69-3.391ZM25.655,30.7A17.489,17.489,0,1,1,8.166,48.186,17.487,17.487,0,0,1,25.655,30.7Zm3.307,9.472H31.1a.457.457,0,0,1,.468.442.413.413,0,0,1-.078.247l-8.66,15.1a.471.471,0,0,1-.409.234H20.283a.457.457,0,0,1-.468-.442.413.413,0,0,1,.078-.247l8.667-15.1a.446.446,0,0,1,.4-.234ZM15.728,44.327a4.814,4.814,0,0,1,.123-1.059,4.571,4.571,0,0,1,.377-1h0a3.523,3.523,0,0,1,.663-.9,3.572,3.572,0,0,1,.929-.656,4.626,4.626,0,0,1,1.137-.4,5.9,5.9,0,0,1,1.293-.13,5.631,5.631,0,0,1,1.839.279,3.96,3.96,0,0,1,1.455.864,3.778,3.778,0,0,1,.923,1.338l.006.026a4.845,4.845,0,0,1-.006,3.333,3.665,3.665,0,0,1-.923,1.345,3.946,3.946,0,0,1-1.455.858,5.631,5.631,0,0,1-1.839.279,6.32,6.32,0,0,1-1.293-.13,4.443,4.443,0,0,1-1.137-.4l-.032-.019a3.75,3.75,0,0,1-.9-.643,3.523,3.523,0,0,1-.663-.9l-.013-.026a4.583,4.583,0,0,1-.364-.981l-.006-.013a4.751,4.751,0,0,1-.117-1.052Zm3.807.019a4.217,4.217,0,0,0,.091.936,1.4,1.4,0,0,0,.227.533l.006.013a.406.406,0,0,0,.143.117.67.67,0,0,0,.247.045.437.437,0,0,0,.383-.162l.006-.013a1.4,1.4,0,0,0,.227-.533,4.217,4.217,0,0,0,.091-.936,4.092,4.092,0,0,0-.091-.923h0a1.412,1.412,0,0,0-.234-.546h0a.313.313,0,0,0-.136-.11.67.67,0,0,0-.247-.045.571.571,0,0,0-.253.045h0a.376.376,0,0,0-.149.117h0a1.447,1.447,0,0,0-.227.533l-.006.013a4.585,4.585,0,0,0-.078.916ZM26.552,52a4.515,4.515,0,0,1,.5-2.072,3.323,3.323,0,0,1,.656-.9,3.95,3.95,0,0,1,.929-.669l.026-.013a4.459,4.459,0,0,1,1.117-.39,5.855,5.855,0,0,1,1.293-.13,4.609,4.609,0,0,1,3.3,1.15,3.745,3.745,0,0,1,.923,1.345,4.886,4.886,0,0,1,0,3.365,3.665,3.665,0,0,1-.923,1.345,4.619,4.619,0,0,1-3.3,1.15,6.368,6.368,0,0,1-1.293-.13,4.626,4.626,0,0,1-1.137-.4h-.006a3.754,3.754,0,0,1-.929-.663,3.428,3.428,0,0,1-.656-.9,4.654,4.654,0,0,1-.5-2.092Zm3.8.026a4.217,4.217,0,0,0,.091.936,1.434,1.434,0,0,0,.227.539v.006h0a.313.313,0,0,0,.136.11.68.68,0,0,0,.253.045.5.5,0,0,0,.4-.162l.013-.013a1.529,1.529,0,0,0,.214-.526,4.217,4.217,0,0,0,.091-.936,2.567,2.567,0,0,0-.318-1.481.326.326,0,0,0-.149-.117h0a.571.571,0,0,0-.253-.045.437.437,0,0,0-.383.162l-.019.026a1.546,1.546,0,0,0-.214.52,4.217,4.217,0,0,0-.091.936ZM9.18,35.277C3.716,33.718,0,30.684,0,27.2a5.32,5.32,0,0,1,.8-2.748c1.9,3.177,7,5.62,13.325,6.269A21.035,21.035,0,0,0,9.18,35.277Zm69.852,2.859a5.32,5.32,0,0,1,.8,2.748c0,5.074-7.854,9.193-17.535,9.193s-17.535-4.119-17.535-9.193a5.32,5.32,0,0,1,.8-2.748C47.79,41.871,54.442,44.58,62.3,44.58S76.8,41.871,79.032,38.136ZM64.843,24.694l-.032-2.274a1.931,1.931,0,0,0,1.26-.468,1.564,1.564,0,0,0,.078-2.313,2.615,2.615,0,0,0-1.7-.643,2.368,2.368,0,0,0-1.676.351,1.636,1.636,0,0,0-.656,1.221,2.307,2.307,0,0,0,.715,1.826l-.429,1.813-6.048-1.7.52-5.99L59,16.7l-.37,4.275L60.6,21.5a3.46,3.46,0,0,1-.247-1.585,3.391,3.391,0,0,1,1.319-2.456,3.949,3.949,0,0,1,2.937-.8,4.256,4.256,0,0,1,2.527,1.072,3.767,3.767,0,0,1,1.286,3.333,3.979,3.979,0,0,1-1.111,2.592,3.59,3.59,0,0,1-2.469,1.033ZM62.3,15.566c7.958,0,14.41,2.534,14.41,5.652S70.255,26.87,62.3,26.87s-14.41-2.534-14.41-5.652,6.451-5.652,14.41-5.652Zm0-1.878c9.68,0,17.535,4.119,17.535,9.193S71.977,32.074,62.3,32.074s-17.535-4.119-17.535-9.193,7.854-9.193,17.535-9.193ZM79.1,29.014a5.252,5.252,0,0,1,.734,2.638c0,5.074-7.854,9.193-17.535,9.193s-17.535-4.112-17.535-9.193a5.3,5.3,0,0,1,.734-2.638c2.163,3.788,8.868,6.549,16.8,6.549S76.934,32.8,79.1,29.014ZM23.869,5.451l-.2,2.28-8.608-.747a7.873,7.873,0,0,1,1.475,3.1L14.462,9.9a6.61,6.61,0,0,0-.936-2.033,4.244,4.244,0,0,0-1.787-1.6L11.9,4.411,23.869,5.451Zm-6.334-3.58c7.958,0,14.41,2.534,14.41,5.652s-6.451,5.652-14.41,5.652S3.125,10.642,3.125,7.523s6.451-5.652,14.41-5.652Zm0-1.871c9.68,0,17.535,4.112,17.535,9.193s-7.854,9.193-17.535,9.193S0,14.267,0,9.193,7.854,0,17.535,0Zm16.8,15.319a5.252,5.252,0,0,1,.734,2.638c0,5.074-7.854,9.193-17.535,9.193S0,23.031,0,17.957a5.318,5.318,0,0,1,.734-2.638c2.163,3.788,8.868,6.555,16.8,6.555s14.637-2.768,16.8-6.555ZM5.2,52.63C1.988,50.967,0,48.654,0,46.1a5.358,5.358,0,0,1,.91-2.924,10.616,10.616,0,0,0,3.885,3.385q-.058.8-.058,1.618A20.441,20.441,0,0,0,5.2,52.63Zm.143-9.511C2.053,41.449,0,39.1,0,36.511a5.33,5.33,0,0,1,.825-2.787C1.962,35.6,4.216,37.213,7.179,38.35a20.641,20.641,0,0,0-1.832,4.769Z" transform="translate(0 26.01)" fill="#fe5862" fill-rule="evenodd"/>
    </g>
    <path id="sun-color-icon" d="M8.961,3.888A1.187,1.187,0,1,1,11.016,2.7l1.529,2.638a1.193,1.193,0,0,1-2.058,1.209Zm9.5,3.928a10.645,10.645,0,1,1-7.533,3.115,10.645,10.645,0,0,1,7.533-3.115ZM17.515,1.1a1.194,1.194,0,1,1,2.384,0v3.04a1.194,1.194,0,1,1-2.384,0V1.1Zm8.817,1.843A1.187,1.187,0,1,1,28.39,4.126L26.861,6.773A1.187,1.187,0,1,1,24.8,5.589l1.529-2.644Zm6.7,6.013a1.189,1.189,0,1,1,1.191,2.058l-2.644,1.529a1.193,1.193,0,0,1-1.209-2.058Zm2.8,8.557a1.194,1.194,0,1,1,0,2.384H32.777a1.194,1.194,0,1,1,0-2.384Zm-1.858,8.817a1.187,1.187,0,1,1-1.181,2.058l-2.647-1.529A1.187,1.187,0,1,1,31.321,24.8l2.644,1.529Zm-6.01,6.7a1.189,1.189,0,1,1-2.058,1.191l-1.535-2.644a1.193,1.193,0,0,1,2.058-1.209l1.529,2.647Zm-8.557,2.8a1.194,1.194,0,1,1-2.384,0V32.777a1.194,1.194,0,1,1,2.384,0ZM10.59,33.974a1.187,1.187,0,0,1-2.058-1.181l1.529-2.647a1.187,1.187,0,1,1,2.058,1.175L10.59,33.965Zm-6.7-6.01A1.189,1.189,0,1,1,2.7,25.906l2.638-1.535a1.2,1.2,0,0,1,1.209,2.064L3.9,27.964ZM1.1,19.407a1.194,1.194,0,1,1,0-2.384h3.04a1.194,1.194,0,1,1,0,2.384ZM2.948,10.59A1.187,1.187,0,1,1,4.126,8.532l2.647,1.529a1.187,1.187,0,1,1-1.184,2.058Z" transform="translate(1446.149 265.143)" fill="#fcdb33"/>
  </g>
</svg>
