<svg xmlns="http://www.w3.org/2000/svg" width="25.292" height="24.436" viewBox="0 0 25.292 24.436"><g transform="translate(0 0)"><path d="M221.66,58.183a1.01,1.01,0,0,1,.518-.157,1.178,1.178,0,0,1,.575.115,1.242,1.242,0,0,1,.462.362c.04.052.1.1.1.172-.089-.086-.154-.194-.245-.278a1.208,1.208,0,0,0-.924-.337A3.344,3.344,0,0,0,221.66,58.183Z" transform="translate(-215.912 -58.022)" fill="#e63a40"/><path d="M623.787,57.963a1.23,1.23,0,0,1,1.125.341.9.9,0,0,1,.27.412,2.488,2.488,0,0,0-.252-.339,1.188,1.188,0,0,0-1.112-.387,1.764,1.764,0,0,1-.3.076A.57.57,0,0,1,623.787,57.963Z" transform="translate(-605.07 -57.937)" fill="#e63a40"/><path d="M601.181,62.431a1.06,1.06,0,0,1,.519-.391,1.852,1.852,0,0,0-.385.3,1.408,1.408,0,0,0-.326.574A.939.939,0,0,1,601.181,62.431Z" transform="translate(-583.253 -61.91)" fill="#e63a40"/><path d="M200.178,63.076l.058-.016a1.7,1.7,0,0,1-.223.172,1.2,1.2,0,0,0-.379.576,3.8,3.8,0,0,0-.06.738c-.01.695-.01,1.39.008,2.085a1.305,1.305,0,0,0,.351.913c.087.1.214.156.3.253a.628.628,0,0,1-.239-.141,1.357,1.357,0,0,1-.434-.769c-.033-.279,0-.561-.022-.841-.011-.448.011-.9,0-1.344-.006-.137.015-.272.013-.408a1.612,1.612,0,0,1,.029-.445A1.229,1.229,0,0,1,200.178,63.076Z" transform="translate(-194.493 -62.898)" fill="#e63a40"/><path d="M273.96,78.62a.738.738,0,0,1,.155.485l-.009-.028C274.071,78.92,274.006,78.773,273.96,78.62Z" transform="translate(-266.559 -77.966)" fill="#e63a40"/><path d="M675.99,83.07l.026,0c0,.014,0,.042,0,.056Z" transform="translate(-655.882 -82.276)" fill="#e63a40"/><path d="M676.03,85.371l.02-.021a2.233,2.233,0,0,1,.077.589c-.024.77,0,1.54-.013,2.31a1.67,1.67,0,0,1-.092.479l-.023,0a2.67,2.67,0,0,0,.087-.6c0-.738,0-1.476,0-2.214A3.132,3.132,0,0,0,676.03,85.371Z" transform="translate(-655.892 -84.484)" fill="#e63a40"/><path d="M625.042,136.981c.327,0,.654,0,.981,0a8.95,8.95,0,0,1,1.356.117,2.085,2.085,0,0,1,.932.439,2.219,2.219,0,0,1,.614.709.263.263,0,0,1,.064.173c-.081-.1-.129-.217-.2-.32a2.326,2.326,0,0,0-1.112-.878,3.371,3.371,0,0,0-.82-.165c-.182-.016-.366-.015-.548-.039-.41-.009-.82,0-1.23-.005,0,.473,0,.947,0,1.42a2.054,2.054,0,0,1-.425,1.287,2.2,2.2,0,0,1-1.029.742,1.923,1.923,0,0,1-1.224.031,6.58,6.58,0,0,0,.67.053c.036-.04.094-.021.14-.031a1.848,1.848,0,0,0,.43-.1.806.806,0,0,1,.159-.062,2.286,2.286,0,0,0,.649-.459,2.247,2.247,0,0,0,.491-.772,2.469,2.469,0,0,0,.1-.689Q625.042,137.707,625.042,136.981Z" transform="translate(-603.986 -134.482)" fill="#e63a40"/><path d="M108.48,137.987c.042-.052.117-.03.175-.037.537.017,1.075-.008,1.613.007a.778.778,0,0,1,.254.02c-.005.477,0,.953,0,1.43a3.263,3.263,0,0,0,.134.685,3.1,3.1,0,0,1,.128.282l.033.062a2.378,2.378,0,0,0,.5.579,1.939,1.939,0,0,0,.512.309.847.847,0,0,1,.253.108,1.148,1.148,0,0,1-.394-.129,2.1,2.1,0,0,1-1.087-1.285,2.414,2.414,0,0,1-.114-.8q0-.6,0-1.208c-.042-.005-.083-.01-.125-.012C109.734,137.99,109.106,138,108.48,137.987Z" transform="translate(-106.31 -135.421)" fill="#e63a40"/><path d="M50.567,139.068a.748.748,0,0,1,.379-.08,2.675,2.675,0,0,1-.284.082,2.587,2.587,0,0,0-1.338.911c-.088.109-.147.238-.235.346,0-.015,0-.046,0-.061a2.463,2.463,0,0,1,1.11-1.055A1.612,1.612,0,0,1,50.567,139.068Z" transform="translate(-48.797 -136.42)" fill="#e63a40"/><path d="M257.271,138.6l.06.027-.02.016-.016.013c.025.438,0,.878.013,1.316a2.126,2.126,0,0,1-1.206,1.959,1.158,1.158,0,0,1-.422.13c.046-.054.127-.051.19-.076a2.052,2.052,0,0,0,1.154-1c.028-.048.054-.1.08-.145.039-.127.085-.252.126-.378.009-.113.041-.224.041-.339Q257.271,139.365,257.271,138.6Z" transform="translate(-248.857 -136.05)" fill="#e63a40"/><path d="M571.84,138.65l.039-.04c-.006.468,0,.936,0,1.4-.007.187.062.369.058.556a1.951,1.951,0,0,1-.092-.747C571.84,139.432,571.847,139.041,571.84,138.65Z" transform="translate(-555.024 -136.06)" fill="#e63a40"/><path d="M39.958,181.927c.05-.1.059-.235.153-.307a3.414,3.414,0,0,0-.253.96c-.009.791.014,1.582-.015,2.373,0,.495,0,.989.013,1.484,0,.916.007,1.832-.007,2.748.025.622-.013,1.245.005,1.866-.017.705-.006,1.411-.012,2.117,0,.622-.008,1.244.015,1.866,0,.316-.012.631,0,.947,0,1.275-.006,2.55,0,3.826a2.56,2.56,0,0,0,.224.845,2.454,2.454,0,0,0,1.195,1.211c.121.054.248.094.367.154a.517.517,0,0,1-.242-.058,2.441,2.441,0,0,1-1.18-.971,1.421,1.421,0,0,1-.138-.243l-.031-.063a1.355,1.355,0,0,1-.082-.2,2.234,2.234,0,0,1-.148-.866q0-4.614,0-9.228c.012-.453-.012-.905,0-1.358.005-.4-.007-.8,0-1.2.008-.464-.013-.928,0-1.392-.007-1.3,0-2.594,0-3.891a2.012,2.012,0,0,1,.118-.547Z" transform="translate(-39.818 -177.711)" fill="#e63a40"/><path d="M277.886,181.973l.014,0c.02.034.018.117-.029.124A.191.191,0,0,1,277.886,181.973Z" transform="translate(-270.343 -178.05)" fill="#e63a40"/><path d="M830.88,182.63c.064.027.069.111.1.167a6.016,6.016,0,0,1,.188,2.056q0,7.619-.006,15.236a3.083,3.083,0,0,1-.022.663,2.558,2.558,0,0,1-.073.481h-.03a5.17,5.17,0,0,0,.1-.922q0-8.123,0-16.247a3.618,3.618,0,0,0-.135-1.1A2.673,2.673,0,0,1,830.88,182.63Z" transform="translate(-805.876 -178.689)" fill="#e63a40"/><path d="M600.714,185.9a.1.1,0,0,1,.025.093C600.692,185.978,600.683,185.947,600.714,185.9Z" transform="translate(-582.968 -181.855)" fill="#e63a40"/><path d="M246.09,186.777a2.2,2.2,0,0,0,.255-.5.571.571,0,0,1-.087.285,1.254,1.254,0,0,1-.761.662.518.518,0,0,1-.186.022c.113-.04.23-.07.34-.12A1.322,1.322,0,0,0,246.09,186.777Z" transform="translate(-238.815 -182.223)" fill="#e63a40"/><path d="M601.97,189.31c.088.115.123.26.21.376a1.974,1.974,0,0,0,.407.369.874.874,0,0,1-.388-.287A1.118,1.118,0,0,1,601.97,189.31Z" transform="translate(-584.202 -185.158)" fill="#e63a40"/><path d="M659.8,192.775a2.143,2.143,0,0,0,.222-.335.709.709,0,0,1-.194.358.8.8,0,0,1-.326.258A3.839,3.839,0,0,0,659.8,192.775Z" transform="translate(-639.913 -188.189)" fill="#e63a40"/><path d="M574.9,200.52l.024-.02a2.091,2.091,0,0,0,1.472,1.476l0,.03a.859.859,0,0,1-.293-.094,2.086,2.086,0,0,1-.907-.732A1.655,1.655,0,0,1,574.9,200.52Z" transform="translate(-557.987 -195.994)" fill="#e63a40"/><path d="M645.41,212.129c.15-.044.292-.109.44-.159A.639.639,0,0,1,645.41,212.129Z" transform="translate(-626.269 -207.101)" fill="#e63a40"/><path d="M221.65,212.92a.594.594,0,0,1,.252.1A.352.352,0,0,1,221.65,212.92Z" transform="translate(-215.903 -208.021)" fill="#e63a40"/><path d="M621.59,212.91a3.468,3.468,0,0,1,.38.128A.574.574,0,0,1,621.59,212.91Z" transform="translate(-603.202 -208.012)" fill="#e63a40"/><path d="M230.1,215.851a.1.1,0,0,1,.093.024Q230.121,215.922,230.1,215.851Z" transform="translate(-224.086 -210.856)" fill="#e63a40"/><path d="M222.39,248.017c.113-.02.219.043.333.027.057.009.14-.023.175.037A1.125,1.125,0,0,1,222.39,248.017Z" transform="translate(-216.619 -242.005)" fill="#e63a40"/><path d="M239.837,247.985a.332.332,0,0,1,.162-.01,1.1,1.1,0,0,1-.509.064l.023-.032A2.448,2.448,0,0,0,239.837,247.985Z" transform="translate(-233.179 -241.963)" fill="#e63a40"/><path d="M91.925,350.674c.883-.013,1.766,0,2.65-.006h17.576c.578,0,1.157-.008,1.736.006.009,3.741,0,7.483,0,11.225a2.352,2.352,0,0,1-.128.98.641.641,0,0,1-.654.438.871.871,0,0,0,.5-.246,1.514,1.514,0,0,0,.247-.855q0-5.752,0-11.505h-21.9q0,5.9,0,11.807c-.046-.058-.031-.138-.036-.206q0-5.547,0-11.094C91.92,351.036,91.915,350.855,91.925,350.674Z" transform="translate(-90.272 -341.415)" fill="#e63a40"/><g transform="translate(8.444 10.969)"><path d="M306.982,404.965c1.113,0,2.226-.008,3.338,0,.007.525-.009,1.05.012,1.575-.016.3-.012.608-.011.912-1.113.011-2.227,0-3.34,0C306.981,406.628,306.978,405.8,306.982,404.965Zm.034.03q0,1.215,0,2.431c1.092,0,2.185,0,3.277,0,0-.808,0-1.616,0-2.424C309.2,404.991,308.107,405,307.015,405Z" transform="translate(-306.98 -404.962)" fill="#e63a40"/></g><g transform="translate(13.502 10.969)"><path d="M466.988,404.988q1.659,0,3.319,0,0,1.249,0,2.5h-3.319C466.988,406.652,466.986,405.82,466.988,404.988Zm.034.034q0,1.214,0,2.429c1.084,0,2.168,0,3.252,0,0-.809,0-1.618,0-2.427Z" transform="translate(-466.987 -404.986)" fill="#e63a40"/></g><g transform="translate(18.55 10.97)"><path d="M626.7,404.99h3.322c0,.832,0,1.665,0,2.5q-1.661,0-3.321,0c-.016-.411,0-.821,0-1.232S626.694,405.412,626.7,404.99Zm.027.034c-.009.715,0,1.43,0,2.144a1.509,1.509,0,0,0,.012.284q1.626,0,3.251,0,0-1.215,0-2.429C628.9,405.024,627.817,405.023,626.73,405.024Z" transform="translate(-626.696 -404.99)" fill="#e63a40"/></g><path d="M146.824,511.41c1.1.01,2.2,0,3.3.005.047.015.024.074.031.11,0,.748,0,1.5,0,2.246,0,.045.014.1-.023.136v-.027c.011-.809,0-1.619.005-2.429-.673-.018-1.346,0-2.019-.008-.421,0-.843-.006-1.263.005,0,.811,0,1.622,0,2.434v.009l-.038.009C146.829,513.071,146.8,512.239,146.824,511.41Z" transform="translate(-143.428 -497.077)" fill="#e63a40"/><g transform="translate(13.501 14.33)"><path d="M466.957,511.311c1.111,0,2.222-.007,3.333.005.008.342.017.685,0,1.027,0,.49.009.981-.006,1.471-1.11.013-2.22,0-3.33.005C466.948,512.984,466.951,512.147,466.957,511.311Zm.033.03c0,.816-.009,1.632,0,2.448,1.089-.005,2.179,0,3.268,0,0-.815,0-1.629,0-2.444C469.171,511.339,468.081,511.342,466.99,511.34Z" transform="translate(-466.952 -511.309)" fill="#e63a40"/></g><g transform="translate(18.553 14.319)"><path d="M626.806,510.97c1.106,0,2.212-.006,3.319,0,0,.833,0,1.665,0,2.5H630.1c-1.1,0-2.2,0-3.3,0C626.812,512.639,626.8,511.8,626.806,510.97Zm.035.035c-.005.813,0,1.626,0,2.439,1.085,0,2.17.008,3.255,0,0-.812,0-1.623,0-2.435C629.007,511,627.924,511.006,626.841,511.006Z" transform="translate(-626.8 -510.968)" fill="#e63a40"/></g><g transform="translate(8.444 14.344)"><path d="M306.97,511.743c.948-.005,1.9,0,2.844,0,.162.008.327-.01.488.014q-.007,1.238,0,2.477c-1.109.02-2.219,0-3.328.01C306.964,513.408,306.973,512.575,306.97,511.743Zm.033.034c.005.81,0,1.619,0,2.428,1.091,0,2.182,0,3.272,0,.01-.805,0-1.611.007-2.416-.241-.017-.482,0-.723-.008-.253-.022-.506.013-.759,0-.285-.021-.569.01-.853,0C307.634,511.79,307.318,511.762,307,511.777Z" transform="translate(-306.969 -511.74)" fill="#e63a40"/></g><g transform="translate(3.387 17.705)"><path d="M146.973,618.083c.969,0,1.938,0,2.907,0a2.915,2.915,0,0,1,.421.006c-.013.827,0,1.656-.008,2.482-1.108,0-2.216,0-3.324,0C146.972,619.744,146.965,618.913,146.973,618.083Zm.03.029c0,.81-.005,1.619,0,2.429,1.094,0,2.189,0,3.283,0,0-.809,0-1.618,0-2.427Z" transform="translate(-146.969 -618.079)" fill="#e63a40"/></g><path d="M306.984,618.041c1.053-.006,2.106,0,3.159,0,.052,0,.115-.013.158.027-1.094.015-2.189,0-3.283.006,0,.809,0,1.619,0,2.428q1.632,0,3.265,0h.022l.013.038c-1.111-.01-2.222,0-3.333,0C306.984,619.7,306.98,618.872,306.984,618.041Z" transform="translate(-298.538 -600.334)" fill="#e63a40"/><g transform="translate(13.502 17.702)"><path d="M466.98,617.987c1.105,0,2.21,0,3.315,0a1.526,1.526,0,0,1,0,.348c0,.716,0,1.432,0,2.149-1.106,0-2.212,0-3.317,0Q466.976,619.235,466.98,617.987Zm.032.033c0,.809,0,1.619,0,2.428q1.624,0,3.249,0c0-.81,0-1.619,0-2.428Z" transform="translate(-466.978 -617.985)" fill="#e63a40"/></g><g transform="translate(18.558 17.702)"><path d="M626.944,617.982q1.659-.006,3.319,0,0,1.248,0,2.5h-3.319Q626.942,619.229,626.944,617.982Zm.028.033c-.011.146.014.292.006.439-.018.316.008.632,0,.949-.013.347,0,.694,0,1.041q1.627,0,3.253,0c0-.81,0-1.62,0-2.429C629.144,618.015,628.058,618.013,626.972,618.014Z" transform="translate(-626.943 -617.979)" fill="#e63a40"/></g><path d="M92.957,726.21a1.164,1.164,0,0,0,.231.513,1.055,1.055,0,0,0,.715.27h20.185c-.068.051-.161.027-.24.034q-9.941,0-19.882,0a1.047,1.047,0,0,1-.862-.337A.734.734,0,0,1,92.957,726.21Z" transform="translate(-91.273 -705.087)" fill="#e63a40"/><path d="M782.959,771.992a4.264,4.264,0,0,0,.248-.582.188.188,0,0,1-.016.127,2.389,2.389,0,0,1-.886,1.259.527.527,0,0,1-.157.1,1.807,1.807,0,0,1-.443.222.377.377,0,0,1-.216.049c.154-.073.32-.121.47-.2A2.369,2.369,0,0,0,782.959,771.992Z" transform="translate(-758.047 -748.859)" fill="#e63a40"/><path d="M97.393,826.882c.128.008.251.053.378.067a5.337,5.337,0,0,0,.789.027H117.9a4.057,4.057,0,0,0,.633-.024c.151-.016.3-.063.449-.072v.03a4.679,4.679,0,0,1-.7.1H98.116a.744.744,0,0,1-.294-.027,1.792,1.792,0,0,1-.451-.077Z" transform="translate(-95.551 -802.575)" fill="#e63a40"/></g><g transform="translate(0.025 0.032)"><path d="M201.074,59.115a3.342,3.342,0,0,1,.483-.123,1.208,1.208,0,0,1,.924.337c.091.084.156.192.245.278v0c.046.153.111.3.146.456a5.207,5.207,0,0,0-.009.535c0,.559,0,1.117,0,1.676a2.638,2.638,0,0,0,.025.543l-.018.059a.191.191,0,0,0-.015.121l0,.012a2.195,2.195,0,0,1-.255.5,1.322,1.322,0,0,1-.44.353c-.109.051-.226.081-.34.12l-.027.008c-.1,0-.208,0-.312,0l-.049-.016a.1.1,0,0,0-.093-.024l-.015,0a.594.594,0,0,0-.252-.1h0c-.091-.1-.218-.152-.3-.253a1.305,1.305,0,0,1-.351-.913c-.018-.695-.018-1.39-.008-2.085a3.809,3.809,0,0,1,.06-.738,1.2,1.2,0,0,1,.379-.576,1.7,1.7,0,0,0,.223-.172Z" transform="translate(-195.351 -58.986)" fill="#e63a40"/><path d="M600.892,58.977a1.187,1.187,0,0,1,1.112.387,2.5,2.5,0,0,1,.252.339l0,.015.025.06.006.033a3.126,3.126,0,0,1,.06.537c-.006.738,0,1.476,0,2.214a2.667,2.667,0,0,1-.087.6l0,.009a2.152,2.152,0,0,1-.222.335,3.85,3.85,0,0,1-.3.281l-.006,0c-.148.05-.29.115-.44.159l-.01,0a2.763,2.763,0,0,1-.335,0l-.028-.008a3.465,3.465,0,0,0-.38-.128h0a1.974,1.974,0,0,1-.407-.369c-.087-.116-.122-.261-.21-.376l0-.015a.1.1,0,0,0-.025-.093.491.491,0,0,1-.039-.207c-.009-.361-.007-.723,0-1.084-.019-.445,0-.891-.008-1.337a1.7,1.7,0,0,1,.034-.414,1.407,1.407,0,0,1,.326-.574,1.855,1.855,0,0,1,.385-.3h0A1.762,1.762,0,0,0,600.892,58.977Z" transform="translate(-582.17 -58.956)" fill="#e63a40"/><g transform="translate(0 2.501)"><path d="M61.668,138.07c.41,0,.82,0,1.23.005.181.025.365.023.547.039a3.373,3.373,0,0,1,.82.165,2.326,2.326,0,0,1,1.112.878c.072.1.12.223.2.32v0a2.677,2.677,0,0,0,.118.333,3.618,3.618,0,0,1,.135,1.1q0,8.124,0,16.247a5.168,5.168,0,0,1-.1.922v.006a4.256,4.256,0,0,1-.248.582,2.37,2.37,0,0,1-1,.967c-.15.082-.316.13-.47.2H64.01c-.152.009-.3.056-.449.072a4.065,4.065,0,0,1-.633.024H43.585a5.349,5.349,0,0,1-.789-.027c-.128-.014-.25-.059-.378-.067H42.4c-.119-.06-.246-.1-.367-.154a2.454,2.454,0,0,1-1.195-1.211,2.561,2.561,0,0,1-.224-.845c-.008-1.275,0-2.55,0-3.826-.012-.315,0-.631,0-.947-.022-.622-.01-1.244-.015-1.866.006-.705-.006-1.412.012-2.117-.018-.622.02-1.244-.005-1.866.015-.916,0-1.832.007-2.748-.018-.494-.013-.989-.013-1.484.029-.791.006-1.582.015-2.373a3.414,3.414,0,0,1,.253-.96h0c.089-.109.148-.237.235-.346a2.587,2.587,0,0,1,1.338-.911,2.674,2.674,0,0,0,.284-.083l.021,0c.626.017,1.254,0,1.88.008.042,0,.083.007.125.012q0,.6,0,1.208a2.414,2.414,0,0,0,.114.8,2.1,2.1,0,0,0,1.087,1.285,1.149,1.149,0,0,0,.394.129h0a1.125,1.125,0,0,0,.509.064h.032a1.1,1.1,0,0,0,.509-.064h0a1.158,1.158,0,0,0,.422-.13,2.126,2.126,0,0,0,1.206-1.959c-.01-.439.012-.878-.013-1.316l.016-.013c.417-.016.837,0,1.255-.008q3.43,0,6.86,0a1.078,1.078,0,0,0,.247-.012v.017c.007.391,0,.782,0,1.173a1.95,1.95,0,0,0,.092.747l0,.016a1.656,1.656,0,0,0,.293.66,2.086,2.086,0,0,0,.907.732.858.858,0,0,0,.293.094h.008a1.923,1.923,0,0,0,1.224-.031,2.205,2.205,0,0,0,1.029-.742,2.054,2.054,0,0,0,.425-1.287C61.668,139.017,61.669,138.543,61.668,138.07ZM42.229,144.8c-.01.181-.005.362-.006.543q0,5.547,0,11.094c.005.069-.01.148.036.206,0,.005,0,.015,0,.021a.734.734,0,0,0,.147.48,1.047,1.047,0,0,0,.862.337q9.941,0,19.882,0c.079-.007.172.017.24-.034l.022,0a.641.641,0,0,0,.654-.437,2.352,2.352,0,0,0,.128-.98c0-3.742.006-7.483,0-11.225-.578-.014-1.157,0-1.736-.006H44.878C43.995,144.8,43.112,144.783,42.229,144.8Z" transform="translate(-40.6 -138.07)" fill="#e63a40"/></g><path d="M308.06,406.01c1.092.006,2.184,0,3.276.005,0,.808,0,1.616,0,2.424-1.092.006-2.185,0-3.277,0Q308.058,407.225,308.06,406.01Z" transform="translate(-299.605 -395.04)" fill="#e63a40"/><path d="M468.045,406.12h3.25c0,.809,0,1.618,0,2.427-1.084,0-2.168,0-3.252,0Q468.044,407.334,468.045,406.12Z" transform="translate(-454.533 -395.147)" fill="#e63a40"/><path d="M627.589,406.05c1.086,0,2.173,0,3.259,0q0,1.215,0,2.429-1.626,0-3.252,0a1.539,1.539,0,0,1-.012-.284C627.588,407.48,627.581,406.765,627.589,406.05Z" transform="translate(-609.03 -395.079)" fill="#e63a40"/><path d="M468.021,512.289c1.09,0,2.18,0,3.271,0,0,.815,0,1.629,0,2.444-1.09,0-2.179,0-3.268,0C468.012,513.921,468.017,513.1,468.021,512.289Z" transform="translate(-454.507 -497.96)" fill="#e63a40"/><path d="M628.013,512.148c1.083,0,2.166,0,3.249,0,.005.812,0,1.623,0,2.435-1.085.011-2.17.007-3.255,0C628.013,513.774,628.008,512.961,628.013,512.148Z" transform="translate(-609.443 -497.824)" fill="#e63a40"/><path d="M148.032,512.438c.421-.011.842,0,1.263-.005.673.006,1.346-.01,2.019.008,0,.81.006,1.62-.005,2.429-.555-.024-1.113,0-1.668-.009-.38,0-.759.006-1.138,0-.158.007-.316-.01-.473.012C148.033,514.06,148.029,513.249,148.032,512.438Z" transform="translate(-144.634 -498.099)" fill="#e63a40"/><path d="M308.02,512.771c.316-.015.632.013.948,0,.285.01.569-.021.853,0,.254.012.507-.023.76,0,.241.006.482-.01.723.008-.01.805,0,1.611-.007,2.416-1.091,0-2.182,0-3.272,0C308.015,514.39,308.025,513.58,308.02,512.771Z" transform="translate(-299.567 -498.422)" fill="#e63a40"/><path d="M148,619.1h3.285c0,.809,0,1.618,0,2.427-1.094,0-2.189,0-3.283,0C147.994,620.721,148,619.911,148,619.1Z" transform="translate(-144.602 -601.396)" fill="#e63a40"/><path d="M308.061,618.906c1.094,0,2.189.009,3.283-.006a.449.449,0,0,0-.024.161c0,.758,0,1.515,0,2.273q-1.632,0-3.265,0C308.06,620.525,308.057,619.715,308.061,618.906Z" transform="translate(-299.605 -601.201)" fill="#e63a40"/><path d="M468.049,619.071H471.3c0,.809,0,1.619,0,2.428q-1.625,0-3.249,0C468.047,620.69,468.049,619.881,468.049,619.071Z" transform="translate(-454.538 -601.367)" fill="#e63a40"/><path d="M627.775,619.052c1.086,0,2.172,0,3.258,0,0,.81,0,1.62,0,2.429q-1.627,0-3.253,0c0-.347-.014-.694,0-1.041.008-.316-.018-.632,0-.949C627.788,619.344,627.764,619.2,627.775,619.052Z" transform="translate(-609.213 -601.347)" fill="#e63a40"/></g></svg>