<svg xmlns="http://www.w3.org/2000/svg" width="16" height="21" viewBox="0 0 16 21"><path d="M12.308,21H3.693a2.55,2.55,0,0,1-2.462-2.625V6.562A1.275,1.275,0,0,1,0,5.25V3.938A1.275,1.275,0,0,1,1.231,2.625H4.923V1.312A1.275,1.275,0,0,1,6.154,0H9.846a1.275,1.275,0,0,1,1.231,1.312V2.625h3.693A1.275,1.275,0,0,1,16,3.938V5.25a1.275,1.275,0,0,1-1.231,1.312V18.375A2.55,2.55,0,0,1,12.308,21ZM2.461,6.562V18.375a1.275,1.275,0,0,0,1.231,1.312h8.615a1.275,1.275,0,0,0,1.231-1.312V6.562ZM1.846,3.938a.658.658,0,0,0,0,1.312H14.154a.658.658,0,0,0,0-1.312ZM6.769,1.312a.637.637,0,0,0-.615.656v.656H9.846V1.969a.637.637,0,0,0-.615-.656Zm4.308,17.063a.637.637,0,0,1-.615-.656V9.844a.617.617,0,1,1,1.231,0v7.875A.637.637,0,0,1,11.077,18.375ZM8,18.375a.637.637,0,0,1-.615-.656V9.844a.617.617,0,1,1,1.231,0v7.875A.638.638,0,0,1,8,18.375Zm-3.077,0a.637.637,0,0,1-.615-.656V9.844a.617.617,0,1,1,1.231,0v7.875A.637.637,0,0,1,4.923,18.375Z" fill="#fe5862"/></svg>