<svg xmlns="http://www.w3.org/2000/svg" width="17.239" height="17.236" viewBox="0 0 17.239 17.236"><g transform="translate(-19.915 -40.41)"><path d="M22.878,40.452a2.71,2.71,0,0,1,.5-.042h6.692c.091,0,.207.03.232.131a.672.672,0,0,1-.175.526c-.149.181-.323.341-.487.509a1.9,1.9,0,0,1-.262.24,1.185,1.185,0,0,1-.6.163H23.389a1.915,1.915,0,0,0-1.383.63,1.852,1.852,0,0,0-.518,1.229q.005,5.2,0,10.4a1.87,1.87,0,0,0,.31.938,2.064,2.064,0,0,0,.863.74,1.984,1.984,0,0,0,.661.157H33.677a1.652,1.652,0,0,0,.291-.026,1.947,1.947,0,0,0,1.338-.913,1.833,1.833,0,0,0,.256-.7,3.277,3.277,0,0,0,.024-.54q0-2.437,0-4.874c0-.086,0-.173.005-.259a.332.332,0,0,1,.112-.216c.267-.263.529-.533.8-.795a.4.4,0,0,1,.649.235c.007,2.02,0,4.04,0,6.06a3.955,3.955,0,0,1-.122,1.016,3.429,3.429,0,0,1-.94,1.574,3.383,3.383,0,0,1-1.745.942,3.7,3.7,0,0,1-.457.059c-.062.006-.128-.02-.187,0l-.007,0c-.862.01-1.724,0-2.585,0h-7.73a3.508,3.508,0,0,1-1.186-.214,3.413,3.413,0,0,1-1.036-.623,3.77,3.77,0,0,1-.818-.987,3.353,3.353,0,0,1-.424-1.648q0-5.059,0-10.117a3.836,3.836,0,0,1,.154-1.174,3.612,3.612,0,0,1,2.435-2.351C22.627,40.5,22.754,40.477,22.878,40.452Z" transform="translate(0)" fill="#fe5862"/><path d="M603.731,40.69a1.138,1.138,0,0,1,.941.1,1.6,1.6,0,0,1,.3.259l1.521,1.52c.072.072.146.143.212.221a1.306,1.306,0,0,1,.177.294,1.173,1.173,0,0,1,.064.3,1.429,1.429,0,0,1-.066.487v0a1.172,1.172,0,0,1-.211.335c-.365.369-.73.738-1.1,1.1-1.1-1.1-2.2-2.2-3.3-3.3l.989-.989a1.248,1.248,0,0,1,.464-.325Z" transform="translate(-569.796 -0.216)" fill="#fe5862"/><g transform="translate(24.022 42.543)"><path d="M217.919,139.433c.051-.041.087-.116.158-.123l2.747,2.747c.178.175.349.358.534.526a.533.533,0,0,1-.1.118q-3.807,3.8-7.61,7.607c-1.1,0-2.2,0-3.3,0,0-1.069,0-2.137,0-3.206a.549.549,0,0,1,.012-.111Q214.143,143.214,217.919,139.433Zm-.047,1.514-3.98,3.979a.408.408,0,0,0-.121.159l0,.014v-.022c-.074.141.048.3.176.351a.251.251,0,0,0,.275-.088l4.008-4.006a.3.3,0,0,0,.111-.21.321.321,0,0,0-.2-.262A.251.251,0,0,0,217.872,140.947Zm-6.421,6.516c0,.212,0,.424,0,.637.364.372.737.736,1.1,1.107.168.016.338,0,.507.008.06,0,.134.012.175-.044.429-.433.862-.862,1.29-1.295q-.871-.872-1.744-1.743Q212.117,146.8,211.452,147.464Z" transform="translate(-210.35 -139.31)" fill="#fe5862"/></g></g></svg>