<svg xmlns="http://www.w3.org/2000/svg" width="33.188" height="28.5" viewBox="0 0 33.188 28.5"><path d="M30.809,14.634a8.043,8.043,0,0,0-3.2-1.972V2.431A2.431,2.431,0,0,0,25.175,0H2.431A2.431,2.431,0,0,0,0,2.431V20.384A2.431,2.431,0,0,0,.716,22.1l.076.07a2.431,2.431,0,0,0,1.639.646c.041-.027,14.877.029,14.885,0a8.238,8.238,0,0,0,2.007,3.309A8.123,8.123,0,1,0,30.809,14.634ZM25.6,12.27a8.124,8.124,0,0,0-8.643,8.543H12.481c-.257,0-5.538-.016-6.091-.016H2.431a.443.443,0,0,1-.27-.1l-.027-.027a.427.427,0,0,1-.127-.3V2.431A.443.443,0,0,1,2.431,2h22.75a.429.429,0,0,1,.3.13.421.421,0,0,1,.124.3ZM6.868,14.92a1,1,0,1,1,0-2h9.288a1,1,0,0,1,0,2ZM6.868,9a1,1,0,1,1,0-2H20.74a1,1,0,1,1,0,2ZM26,22.393H23.768a6.609,6.609,0,0,1,.127-1.585,2.036,2.036,0,0,1,.386-.648,11.158,11.158,0,0,1,1.148-1.034c.319-.27.475-.5.475-.71a.664.664,0,0,0-.192-.505.832.832,0,0,0-.578-.176.926.926,0,0,0-.689.27,1.6,1.6,0,0,0-.351.962l-2.277-.27a3.1,3.1,0,0,1,.91-2.023,3.409,3.409,0,0,1,2.431-.764,3.63,3.63,0,0,1,2.066.54,2.228,2.228,0,0,1,1.08,1.928,1.864,1.864,0,0,1-.27.964,4.705,4.705,0,0,1-1.126,1.132,3.057,3.057,0,0,0-.751.756A3.833,3.833,0,0,0,26,22.409Zm.081.81v1.645H23.7V23.2Z" fill="#383838" fill-rule="evenodd"/></svg>