<svg id="microsoft-excel-icon" xmlns="http://www.w3.org/2000/svg" xmlns:xlink="http://www.w3.org/1999/xlink" width="39.194" height="36.459" viewBox="0 0 39.194 36.459">
  <defs>
    <linearGradient id="linear-gradient" x1="0.174" y1="-6.066" x2="0.826" y2="-4.936" gradientUnits="objectBoundingBox">
      <stop offset="0" stop-color="#18884f"/>
      <stop offset="0.5" stop-color="#117e43"/>
      <stop offset="1" stop-color="#0b6631"/>
    </linearGradient>
  </defs>
  <path id="Path_60630" data-name="Path 60630" d="M134.565,211.1l-15.5-2.734v20.2a1.671,1.671,0,0,0,1.671,1.671h26.737a1.671,1.671,0,0,0,1.671-1.671h0v-7.444Z" transform="translate(-109.955 -193.787)" fill="#185c37"/>
  <path id="Path_60631" data-name="Path 60631" d="M134.565,17.86H120.741a1.671,1.671,0,0,0-1.671,1.671h0v7.444l15.5,9.115,8.2,2.734,6.38-2.734V26.975Z" transform="translate(-109.955 -17.86)" fill="#21a366"/>
  <path id="Path_60632" data-name="Path 60632" d="M119.07,136.93h15.5v9.115h-15.5Z" transform="translate(-109.955 -127.815)" fill="#107c41"/>
  <path id="Path_60633" data-name="Path 60633" d="M130.16,113.12H119.07v22.786h11.09a1.677,1.677,0,0,0,1.671-1.671V114.79A1.676,1.676,0,0,0,130.16,113.12Z" transform="translate(-109.955 -105.828)" opacity="0.1"/>
  <path id="Path_60634" data-name="Path 60634" d="M129.249,125.02H119.07v22.787h10.179a1.677,1.677,0,0,0,1.671-1.671V126.691A1.678,1.678,0,0,0,129.249,125.02Z" transform="translate(-109.955 -116.817)" opacity="0.2"/>
  <path id="Path_60635" data-name="Path 60635" d="M129.249,125.02H119.07v20.964h10.179a1.677,1.677,0,0,0,1.671-1.671V126.691A1.678,1.678,0,0,0,129.249,125.02Z" transform="translate(-109.955 -116.817)" opacity="0.2"/>
  <path id="Path_60636" data-name="Path 60636" d="M128.337,125.02H119.07v20.964h9.267a1.677,1.677,0,0,0,1.671-1.671V126.691A1.677,1.677,0,0,0,128.337,125.02Z" transform="translate(-109.955 -116.817)" opacity="0.2"/>
  <path id="Path_60637" data-name="Path 60637" d="M1.671,125.02H18.382a1.671,1.671,0,0,1,1.671,1.671V143.4a1.671,1.671,0,0,1-1.671,1.671H1.671A1.671,1.671,0,0,1,0,143.4V126.691A1.671,1.671,0,0,1,1.671,125.02Z" transform="translate(0 -116.817)" fill="url(#linear-gradient)"/>
  <path id="Path_60638" data-name="Path 60638" d="M67.6,195.912l3.514-5.446-3.22-5.416h2.59l1.758,3.464c.162.329.273.573.334.735H72.6q.173-.394.364-.765l1.879-3.432H77.22l-3.3,5.384,3.386,5.476H74.773l-2.03-3.8a3.183,3.183,0,0,1-.243-.508h-.03a2.441,2.441,0,0,1-.235.492l-2.09,3.818Z" transform="translate(-62.425 -172.252)" fill="#fff"/>
  <path id="Path_60639" data-name="Path 60639" d="M334.4,17.86H321.49v9.115h14.584V19.531A1.671,1.671,0,0,0,334.4,17.86Z" transform="translate(-296.88 -17.86)" fill="#33c481"/>
  <path id="Path_60640" data-name="Path 60640" d="M321.49,256h14.584v9.115H321.49Z" transform="translate(-296.88 -237.771)" fill="#107c41"/>
</svg>
