<svg xmlns="http://www.w3.org/2000/svg" width="75.024" height="72.568" viewBox="0 0 75.024 72.568"><path d="M53.591,24.179a5.093,5.093,0,0,1-.429-.526c-.315-.434-.612-.887-.9-1.341l-1.426-2.27a3.954,3.954,0,0,1-.826-2.079,1.514,1.514,0,0,1,.969-1.481c-.051-.854-.085-1.722-.085-2.579,0-.508.009-1.021.028-1.525a5.152,5.152,0,0,1,.173-.942,5.425,5.425,0,0,1,2.421-3.077,6.34,6.34,0,0,1,1.316-.627c.828-.314.428-1.578,1.341-1.6,2.132-.056,5.638,1.77,7.006,3.252a5.407,5.407,0,0,1,1.4,3.505l-.088,3.734a1.05,1.05,0,0,1,.771.768,3.172,3.172,0,0,1-.4,1.968c0,.028-.028.028-.028.057L63.2,22.1c-.369.6-.75,1.222-1.178,1.791-.508.678-.926.557-.492,1.207,3.111,4.276,12.254,1.577,12.254,10.081H59.321c0-5.792-2.613-8.27-5.888-9.716.1-.116.2-.237.3-.365.358-.528.262-.486-.139-.916ZM10.323,44.524v2.929a2.583,2.583,0,0,0,.771,1.858,2.541,2.541,0,0,0,1.886.788h4.033a20.047,20.047,0,0,0,.824,2.682,25.072,25.072,0,0,0,1.141,2.529l-3.136,3.125a2.444,2.444,0,0,0-.8,1.84,2.611,2.611,0,0,0,.8,1.886l3.88,3.924a2.759,2.759,0,0,0,3.77,0l2.873-2.917A19.363,19.363,0,0,0,28.8,64.49a25.263,25.263,0,0,0,2.6,1.015v4.4a2.634,2.634,0,0,0,2.655,2.657h5.529a2.588,2.588,0,0,0,1.859-.772,2.541,2.541,0,0,0,.787-1.884V65.878a19.841,19.841,0,0,0,2.682-.825,24.3,24.3,0,0,0,2.529-1.143l3.127,3.137a2.571,2.571,0,0,0,3.725,0l3.926-3.879a2.765,2.765,0,0,0,0-3.772L55.3,56.524a18.891,18.891,0,0,0,1.323-2.437,25.6,25.6,0,0,0,1.015-2.6h4.4A2.632,2.632,0,0,0,64.7,48.829V44.524H53.709c.015.283.022.569.022.854a16.22,16.22,0,1,1-32.44,0c0-.287.006-.571.022-.854H10.323Zm39.8,0q.029.424.029.854a12.644,12.644,0,1,1-25.288,0c0-.287.012-.573.029-.854h25.23ZM.777,37.646h73.47a.784.784,0,0,1,.777.778v2.907a.787.787,0,0,1-.777.777H.777A.784.784,0,0,1,0,41.331V38.424A.78.78,0,0,1,.777,37.646ZM33.041,22.955c-1.018-.906-2.3-1.687-2.469-3.569l-.11,0a1.471,1.471,0,0,1-.724-.192,1.98,1.98,0,0,1-.794-.966c-.366-.843-.656-3.061.267-3.7l-.173-.114-.021-.246c-.035-.445-.044-.986-.053-1.553-.034-2.087-.076-4.613-1.753-5.12l-.719-.218.473-.586a27.352,27.352,0,0,1,4.2-4.263A10.743,10.743,0,0,1,36.027.073,5.851,5.851,0,0,1,40.756,1.4a8.908,8.908,0,0,1,1.269,1.273A5.376,5.376,0,0,1,45.81,4.882,7.7,7.7,0,0,1,47.042,7.37a8.519,8.519,0,0,1,.331,2.821,6.778,6.778,0,0,1-1.964,4.572,1.384,1.384,0,0,1,.611.157,1.521,1.521,0,0,1,.538,1.867c-.18.57-.412,1.231-.63,1.786-.264.747-.651.888-1.4.807-.038,1.83-1.374,2.579-2.517,3.646,2.793,5.219,14.644,1.777,14.644,12.15H18.366c0-10.373,11.577-6.793,14.693-12.216l-.018,0Zm-19.254.825a5.479,5.479,0,0,1-.444-.544c-.327-.45-.634-.919-.93-1.391L10.936,19.5a4.105,4.105,0,0,1-.856-2.155,1.568,1.568,0,0,1,1-1.534c-.053-.885-.088-1.785-.088-2.674,0-.526.01-1.058.031-1.58a5.231,5.231,0,0,1,.177-.974,5.613,5.613,0,0,1,2.51-3.189,6.5,6.5,0,0,1,1.361-.652c.859-.324.444-1.634,1.391-1.654,2.208-.056,5.841,1.835,7.258,3.369a5.607,5.607,0,0,1,1.448,3.632l-.091,3.87a1.089,1.089,0,0,1,.8.794,3.29,3.29,0,0,1-.415,2.038c0,.031-.029.031-.029.06L23.75,21.623c-.382.626-.777,1.267-1.221,1.855-.526.7-.96.577-.51,1.251a4.981,4.981,0,0,0,.341.418C18.722,26.532,15.7,28.881,15.7,35.176H1.235c0-8.817,9.476-6.017,12.7-10.446.371-.545.273-.5-.145-.95Z" transform="translate(0 0.001)" fill="#383838"/></svg>