<svg xmlns="http://www.w3.org/2000/svg" width="27.326" height="31.679" viewBox="0 0 27.326 31.679"><g transform="translate(-1765.432 -176)"><path d="M6.2,7.991l.325,4.014a1.341,1.341,0,0,0,.232.745.479.479,0,0,0,.389.126H8.394a.461.461,0,0,0,.4-.155,1.067,1.067,0,0,0,.157-.606V7.692a.222.222,0,0,1,0-.072h0a.335.335,0,0,0-.142-.237.941.941,0,0,0-.516-.1c-.544,0-1.1.015-1.642,0a.516.516,0,0,0-.387.134.719.719,0,0,0-.067.552v.021Zm20,22a.843.843,0,1,1,0,1.683H1.959A1.962,1.962,0,0,1,0,29.718V1.959A1.962,1.962,0,0,1,1.959,0h23.4a1.962,1.962,0,0,1,1.97,1.959V30.278c0,.918-.394,1.06-.8,1.088s-.882-.111-.882-1.088V1.959a.258.258,0,0,0-.082-.193.276.276,0,0,0-.193-.082H1.959a.286.286,0,0,0-.2.08.291.291,0,0,0-.08.2V29.716a.258.258,0,0,0,.082.193.276.276,0,0,0,.2.082ZM18.659,7.146a.549.549,0,0,1,.067-.067,1.152,1.152,0,0,1,.8-.258h1.513a1.5,1.5,0,0,1,.925.24.9.9,0,0,1,.309.887l-.412,4.261a1.477,1.477,0,0,1-.309.884.949.949,0,0,1-.8.312H19.422a.874.874,0,0,1-.6-.183,1.047,1.047,0,0,1-.258-.32h-.516a1.06,1.06,0,0,1-.015.583,1.134,1.134,0,0,1-.374.531,1.31,1.31,0,0,1-.583.258,1.145,1.145,0,0,1-.58-.052,1.57,1.57,0,0,1-.691.425,1.289,1.289,0,0,1-.735-.018,1.547,1.547,0,0,1-.791.474,1.49,1.49,0,0,1-.938-.124,1.439,1.439,0,0,1-.3.173,1.289,1.289,0,0,1-.531.1,1.436,1.436,0,0,1-.972-.356,2.836,2.836,0,0,1-.536-.737l-.9-1.573H9.482a1.255,1.255,0,0,1-.224.492,1.016,1.016,0,0,1-.876.384H7.151a1.031,1.031,0,0,1-.828-.315,1.848,1.848,0,0,1-.382-1.078v-.026l-.325-4a1.23,1.23,0,0,1,.2-1A1.07,1.07,0,0,1,6.625,6.7H8.291a1.477,1.477,0,0,1,.828.193.864.864,0,0,1,.356.446h1.268a3.826,3.826,0,0,1,1.005-.516A2.74,2.74,0,0,1,12.89,6.7l.433-.516.026-.026a1.846,1.846,0,0,1,.443-.315,2.3,2.3,0,0,1,.534-.2,3.351,3.351,0,0,1,.9-.1,4.107,4.107,0,0,1,.962.131h0a4.8,4.8,0,0,1,1.464.789l.33.227.657.441Zm-5.736,7.4-.606-1.145a.294.294,0,1,1,.518-.278l.683,1.289a.967.967,0,0,0,.632.108.944.944,0,0,0,.467-.278l-.972-1.524a.294.294,0,0,1,.5-.315l1.031,1.637a.719.719,0,0,0,.461.034.959.959,0,0,0,.41-.258l-.928-1.75a.294.294,0,1,1,.516-.278l.98,1.843a.557.557,0,0,0,.353.052.65.65,0,0,0,.307-.137.51.51,0,0,0,.152-.629.258.258,0,0,1-.023-.088.307.307,0,0,1-.1-.121L15.114,8.767c-.209-.353-.392-.366-.565-.258a3.094,3.094,0,0,0-.451.366c-.09.085-.183.168-.273.242l-.389.322a1.686,1.686,0,0,1-.9.366,1.338,1.338,0,0,1-.575-.077,1.1,1.1,0,0,1-.472-.335,1.116,1.116,0,0,1-.242-.621.3.3,0,0,1,.088-.235L12.4,7.277a2.062,2.062,0,0,0-.487.088,3.521,3.521,0,0,0-.91.477.284.284,0,0,1-.183.064H9.538v4.089h.724a.3.3,0,0,1,.258.16l.98,1.709a2.421,2.421,0,0,0,.415.593.879.879,0,0,0,.6.206.691.691,0,0,0,.291-.054.822.822,0,0,0,.116-.059Zm5.442-2.238.041-4.64-.732-.487-.34-.224a4.3,4.3,0,0,0-1.289-.7h0a3.555,3.555,0,0,0-.82-.113,2.8,2.8,0,0,0-.75.08,1.851,1.851,0,0,0-.407.157,1.4,1.4,0,0,0-.307.214l-.485.575a.271.271,0,0,1-.075.088L11.858,8.842a.477.477,0,0,0,.315.348.753.753,0,0,0,.32.039,1.1,1.1,0,0,0,.58-.24l.379-.315c.088-.07.17-.147.258-.222a3.573,3.573,0,0,1,.547-.438c.467-.281.925-.281,1.377.467l2.124,3.831ZM7.894,11.085a.374.374,0,1,1-.267.109.376.376,0,0,1,.267-.109Zm12.116,0a.37.37,0,1,1-.008,0Z" transform="translate(1765.432 176)" fill="#fe5862" fill-rule="evenodd"/><rect width="16" height="2" rx="1" transform="translate(1771 193)" fill="#fe5862"/><rect width="16" height="2" rx="1" transform="translate(1771 197)" fill="#fe5862"/><rect width="16" height="2" rx="1" transform="translate(1771 201)" fill="#fe5862"/></g></svg>