<svg xmlns="http://www.w3.org/2000/svg" width="27.224" height="31.2" viewBox="0 0 27.224 31.2"><path d="M23.451,7.46V22.745a.478.478,0,0,1,0,.086c0,.165,0,.325-.015.477v1.1a2.9,2.9,0,0,1-.861,1.94,2.628,2.628,0,0,1-1.879.8h-.129a13.674,13.674,0,0,1-2.1,0H5.84v1.305a1.239,1.239,0,0,0,1.239,1.254H24.487a1.244,1.244,0,0,0,1.239-1.239V8.7A1.249,1.249,0,0,0,24.487,7.46ZM12.132,19.617l3.8.063a3.905,3.905,0,0,1-1.777,3.268Zm-.2-1.127-.056-4.271v-.295l.292.023h0a5.482,5.482,0,0,1,1.049.173,5.058,5.058,0,0,1,.96.368,4.911,4.911,0,0,1,2.7,4.111l.023.282h-.289l-4.4-.129h-.254l-.043-.254Zm.482-4.017.043,3.765,3.862.109a4.428,4.428,0,0,0-2.389-3.42,5.586,5.586,0,0,0-.848-.325C12.83,14.559,12.637,14.516,12.416,14.473ZM10.86,19.234l2.166,3.636a4.479,4.479,0,0,1-2.166.564,4.2,4.2,0,1,1-.178-8.4Zm.178-13.617h1.237a.1.1,0,0,1,.109.109V9.011a.1.1,0,0,1-.109.109H11.037a.1.1,0,0,1-.109-.109V5.726A.117.117,0,0,1,11.037,5.616Zm6.525,0h1.226a.1.1,0,0,1,.109.109V9.011a.1.1,0,0,1-.109.109H17.563a.1.1,0,0,1-.109-.109V5.726a.117.117,0,0,1,.109-.109ZM14.3,3.278h1.237a.1.1,0,0,1,.109.109V9.011a.1.1,0,0,1-.109.109H14.3a.1.1,0,0,1-.109-.109V3.387a.1.1,0,0,1,.109-.109Zm-9.786.838H5.751a.1.1,0,0,1,.109.112V9.011a.1.1,0,0,1-.109.109H4.514a.1.1,0,0,1-.109-.109V4.228c-.023-.069.043-.112.109-.112Zm3.26-.838H9.011a.1.1,0,0,1,.109.109V9.011a.1.1,0,0,1-.109.109H7.775a.1.1,0,0,1-.109-.109V3.387a.1.1,0,0,1,.109-.109ZM2.74,0H20.691a2.722,2.722,0,0,1,1.935.8l.043.048a2.719,2.719,0,0,1,.762,1.887v3.22h1.056A2.745,2.745,0,0,1,27.224,8.7V28.461a2.745,2.745,0,0,1-2.737,2.74H7.079a2.747,2.747,0,0,1-2.74-2.74V27.148H2.74a2.732,2.732,0,0,1-1.935-.8h0A2.727,2.727,0,0,1,0,24.411V2.74A2.747,2.747,0,0,1,2.74,0ZM20.691,1.5H2.74A1.239,1.239,0,0,0,1.5,2.74v7.65H21.93V2.74a1.237,1.237,0,0,0-.333-.846l-.03-.03a1.244,1.244,0,0,0-.876-.363ZM1.5,11.891v12.52a1.234,1.234,0,0,0,.363.873h0a1.237,1.237,0,0,0,.876.361H20.6a1.551,1.551,0,0,0,.846-.32c.32-.289.437-.9.488-1.912V11.891Z" fill="#fe5862"/></svg>