<svg xmlns="http://www.w3.org/2000/svg" width="33.498" height="29.272" viewBox="0 0 33.498 29.272"><path d="M10.924,27.178a.938.938,0,0,1,.142.483c0,.889-1.38,1.611-3.075,1.611s-3.083-.722-3.083-1.611a.941.941,0,0,1,.139-.483A3.515,3.515,0,0,0,7.98,28.307a3.511,3.511,0,0,0,2.933-1.129ZM20.4,26.5a1.159,1.159,0,0,1,.174.6c0,1.1-1.712,2-3.817,2s-3.817-.9-3.817-2a1.167,1.167,0,0,1,.174-.6c.488.818,1.936,1.4,3.645,1.4S19.9,27.309,20.4,26.5Zm0-2.421a1.167,1.167,0,0,1,.174.6c0,1.091-1.712,2-3.817,2s-3.817-.9-3.817-2a1.175,1.175,0,0,1,.174-.6c.488.818,1.936,1.4,3.645,1.4s3.146-.592,3.64-1.4ZM18.13,19.032l-.044.5-1.876-.172a1.707,1.707,0,0,1,.322.676L16.085,20a1.494,1.494,0,0,0-.2-.442.913.913,0,0,0-.39-.349l.033-.4,2.606.226Zm-1.38-.766c1.731,0,3.152.545,3.152,1.219s-1.42,1.235-3.152,1.235-3.138-.545-3.138-1.232S15.019,18.266,16.75,18.266Zm0-.409c2.107,0,3.817.9,3.817,2s-1.712,2-3.817,2-3.817-.9-3.817-2,1.712-2,3.817-2Zm3.656,3.869a1.129,1.129,0,0,1,.164.575c0,1.091-1.712,2-3.817,2s-3.817-.9-3.817-2a1.121,1.121,0,0,1,.164-.575c.469.818,1.927,1.429,3.656,1.429s3.187-.605,3.656-1.429ZM9.564,18.1a.409.409,0,0,1-.818,0V9.468H.818V27.421H2.225a.409.409,0,1,1,0,.818H.406A.406.406,0,0,1,0,27.83V9.25a.619.619,0,0,1,.174-.425A.608.608,0,0,1,.6,8.65H8.749V.714a.7.7,0,0,1,.21-.5h0A.709.709,0,0,1,9.463,0H23.972a.7.7,0,0,1,.5.21l.033.033a.728.728,0,0,1,.18.472V8.65H32.9a.608.608,0,0,1,.423.174h0a.608.608,0,0,1,.174.423v18.58a.406.406,0,0,1-.406.406H31.118a.409.409,0,1,1,0-.818h1.568V9.468h-8v8.209a.409.409,0,1,1-.818,0V.818H9.564Zm18.79,1.257h2.364c.038,0,.068.022.068.046v1.328c0,.03-.03.052-.068.052H28.353c-.038,0-.068-.022-.068-.052v-1.32c0-.025.03-.046.068-.046Zm-25.627,0H5.093c.035,0,.068.022.068.046v1.328c0,.03-.033.052-.068.052H2.743c-.035,0-.068-.022-.068-.052v-1.32c0-.025.033-.046.068-.046ZM11.388,2.394H22.05a.327.327,0,0,1,.324.333V6.5a.327.327,0,0,1-.324.316H11.388a.327.327,0,0,1-.324-.324V2.726a.324.324,0,0,1,.324-.324ZM27.446,15.856h3.272c.038,0,.068.022.068.049v1.328c0,.03-.03.052-.068.052H27.446c-.035,0-.068-.022-.068-.052V15.905C27.377,15.878,27.41,15.856,27.446,15.856Zm-.608-3.209h3.885c.038,0,.068.022.068.049v1.33c0,.027-.03.049-.068.049H26.838c-.035,0-.065-.022-.065-.049V12.7C26.772,12.669,26.8,12.647,26.838,12.647ZM2.743,15.856H6.014c.038,0,.068.022.068.049v1.328c0,.03-.03.052-.068.052H2.743c-.035,0-.068-.022-.068-.052V15.905c0-.027.033-.049.068-.049Zm0-3.209H6.628c.038,0,.068.022.068.049v1.33c0,.027-.03.049-.068.049H2.743c-.035,0-.068-.022-.068-.049V12.7C2.674,12.669,2.707,12.647,2.743,12.647Zm16.9.611h2.4a.071.071,0,0,1,.068.068v1.791l-.068.068H19.629a.071.071,0,0,1-.068-.068V13.326a.071.071,0,0,1,.068-.068Zm-4.122,0h2.4a.071.071,0,0,1,.068.068v1.791a.071.071,0,0,1-.068.068h-2.4a.071.071,0,0,1-.068-.068V13.326a.071.071,0,0,1,.068-.068Zm-4.122,0h2.4a.068.068,0,0,1,.068.068v1.791a.068.068,0,0,1-.068.068H11.4a.071.071,0,0,1-.068-.068V13.326a.071.071,0,0,1,.068-.068Zm8.228-4.5h2.4a.071.071,0,0,1,.068.068v2.552a.068.068,0,0,1-.068.065h-2.4a.068.068,0,0,1-.068-.065V8.825A.068.068,0,0,1,19.629,8.757Zm-4.122,0h2.4a.071.071,0,0,1,.068.068v2.552a.068.068,0,0,1-.068.065h-2.4a.068.068,0,0,1-.068-.065V8.825A.068.068,0,0,1,15.507,8.757Zm-4.122,0h2.4a.068.068,0,0,1,.068.068v2.552a.068.068,0,0,1-.068.065H11.4a.068.068,0,0,1-.068-.065V8.825a.068.068,0,0,1,.068-.068ZM28.432,27.178a.932.932,0,0,1,.139.483c0,.889-1.363,1.611-3.073,1.611s-3.075-.722-3.075-1.611a.943.943,0,0,1,.142-.483A3.515,3.515,0,0,0,25.5,28.307a3.511,3.511,0,0,0,2.933-1.129Zm-1.813-4.059-.035.4-1.5-.134a1.385,1.385,0,0,1,.256.545l-.363-.03a1.131,1.131,0,0,0-.164-.357.733.733,0,0,0-.314-.273l.038-.335,2.1.183Zm-1.11-.627c1.393,0,2.525.444,2.525.99s-1.131.992-2.525.992-2.527-.444-2.527-.992,1.131-.99,2.527-.99Zm0-.33c1.7,0,3.073.722,3.073,1.614s-1.363,1.611-3.073,1.611-3.075-.722-3.075-1.611,1.38-1.614,3.075-1.614Zm2.944,3.124a.949.949,0,0,1,.128.463c0,.889-1.363,1.611-3.073,1.611s-3.075-.722-3.075-1.611a.916.916,0,0,1,.131-.463,3.475,3.475,0,0,0,2.944,1.15,3.475,3.475,0,0,0,2.944-1.15ZM9.1,23.105l-.035.4-1.508-.134a1.363,1.363,0,0,1,.256.545l-.363-.03a1.131,1.131,0,0,0-.164-.357.733.733,0,0,0-.314-.273L7,22.934l2.1.183Zm-1.11-.627c1.4,0,2.527.444,2.527.99s-1.131.992-2.527.992-2.525-.444-2.525-.992S6.595,22.478,7.988,22.478Zm0-.33c1.7,0,3.075.722,3.075,1.614s-1.38,1.611-3.075,1.611-3.081-.709-3.081-1.6,1.377-1.614,3.073-1.614Zm2.944,3.124a.924.924,0,0,1,.131.463c0,.889-1.38,1.611-3.075,1.611s-3.081-.709-3.081-1.6a.913.913,0,0,1,.128-.463,3.515,3.515,0,0,0,2.955,1.159,3.475,3.475,0,0,0,2.944-1.15Z" transform="translate(0 0)" fill="#383838" fill-rule="evenodd"/></svg>