<svg xmlns="http://www.w3.org/2000/svg" width="30.789" height="30.746" viewBox="0 0 30.789 30.746"><g transform="matrix(0.914, 0.407, -0.407, 0.914, 9.461, 0)"><g transform="translate(0)"><path d="M22.963,16.987c-2.356-2.236-2.833-5.3-3.294-8.273C19.034,4.63,18.315,0,11.673,0s-7.361,4.629-8,8.714c-.461,2.968-.938,6.037-3.294,8.273a1.229,1.229,0,0,0,.847,2.121H7.016a4.688,4.688,0,0,0,9.314,0h5.786a1.229,1.229,0,0,0,.847-2.121ZM11.673,21.11a2.54,2.54,0,0,1-2.479-2h4.959A2.54,2.54,0,0,1,11.673,21.11ZM3.81,16.649a19.38,19.38,0,0,0,2.3-7.558c.7-4.479,1.223-6.633,5.565-6.633s4.869,2.153,5.565,6.633a19.38,19.38,0,0,0,2.3,7.558Z" fill="#fff"/></g></g></svg>