<svg xmlns="http://www.w3.org/2000/svg" width="23.181" height="23.025" viewBox="0 0 23.181 23.025"><g transform="translate(-308.648 -449.264)"><g transform="translate(308.648 449.264)"><path d="M2.674.5,20.519.506a2.887,2.887,0,0,1,2.652,2.8c.013,3.743-.009,13.377,0,17.121-.7-.4-1.387,1.036-2.16.822.024-3.292-.053-14.205-.041-17.5.013-.364-.016-.822-.4-1a9.221,9.221,0,0,0-1.125-.025c-7.488.007-9.147-.012-16.633,0-.374-.025-.6.392-.578.723-.009,9.269,0,7.7-.006,16.973a.842.842,0,0,0,.353.822,5.111,5.111,0,0,0,1.106.05c7.5-.006,9.165.01,16.661,0,.526.038.614-.584.659-.976a9.09,9.09,0,0,0,2.167-.863,5.386,5.386,0,0,1-.3,2.45,2.862,2.862,0,0,1-2.371,1.616L2.673,23.519A2.845,2.845,0,0,1,.466,22.164,3.645,3.645,0,0,1,0,20.335V3.52A3.525,3.525,0,0,1,.522,1.764,2.846,2.846,0,0,1,2.674.5Z" transform="translate(0 -0.5)" fill="#e63a40"/><path d="M105.095,36.917c1.559,0,11.515,0,13.074-.007q0,1.1,0,2.2c-1.56,0-11.516,0-13.077,0C105.108,38.378,105.1,37.648,105.095,36.917Z" transform="translate(-100.051 -31.527)" fill="#e63a40"/><path d="M105.095,36.917c1.559,0,11.515,0,13.074-.007q0,1.1,0,2.2c-1.56,0-11.516,0-13.077,0C105.108,38.378,105.1,37.648,105.095,36.917Z" transform="translate(-100.051 -26.825)" fill="#e63a40"/><path d="M105.095,36.917c1.559,0,11.515,0,13.074-.007q0,1.1,0,2.2c-1.56,0-11.516,0-13.077,0C105.108,38.378,105.1,37.648,105.095,36.917Z" transform="translate(-100.051 -22.122)" fill="#e63a40"/></g></g></svg>