<svg xmlns="http://www.w3.org/2000/svg" width="75.788" height="57.316" viewBox="0 0 75.788 57.316">
  <g id="Group_19450" data-name="Group 19450" transform="translate(1171.655 -432.252)">
    <path id="Subtraction_118" data-name="Subtraction 118" d="M-5372.41-5102.621h-49.605a.649.649,0,0,1-.65-.646v-3.515a.649.649,0,0,1,.65-.645h5.612c.352-.008.762-.02,1.176-.057l.012-.451.009-.356.007-.267c.023-.819.049-1.748.049-2.655a2.178,2.178,0,0,1,1.881-.682c.149-.005.326-.013.5-.027v-9.97a5.24,5.24,0,0,0-.637-.041c-.694-.019-1.411-.039-1.709-.738a46.264,46.264,0,0,1-.053-4.759h-6.372a.646.646,0,0,1-.645-.645v-5.856a5.528,5.528,0,0,0,.026-.6c0-.649.008-1.319.612-1.644,3.355-2.376,26.235-17.388,33.167-21.933l.1-.066c.022.013.165.109.374.25,6.8,4.566,29.216,19.623,32.071,21.667.739.375.793,1.187.841,1.9l0,.035,0,.042c.008.105.015.205.025.3v2.385a16.853,16.853,0,0,0-7.216-1.6,17.032,17.032,0,0,0-12.636,5.628c-.381,0-.784,0-1.229,0h-1.349c-.5,0-1,0-1.486,0-1.161,0-1.961.006-2.675.019a2.515,2.515,0,0,0-.029.465v4.64a.652.652,0,0,1-.644.645h-1.577c-.07,1.014-.061,2.074-.053,3.009v.477c0,.162,0,.323,0,.484.015,1.891.019,2.8.01,2.856l0-.011v-.005l0-.021c0,.007,0,.188.018,1.2v.047l.006.331.023,1.285h1.576a.647.647,0,0,1,.645.646v4.077h4.833a17,17,0,0,0,4.331,4.8Zm-31.182-9.215c.468,0,1.029.074,1.217.653.112,1.264.165,2.527.155,3.755h7.584c.018-1.177.034-2.433,0-3.7a.053.053,0,0,1,.015-.017l.009-.008c.013-.012.024-.022.024-.036v-.313a.647.647,0,0,1,.646-.645h1.755l-.009-9.645h-1.742a.647.647,0,0,1-.646-.646v-5.142h-7.547a26.416,26.416,0,0,0-.079,2.936c.005.6.011,1.224-.009,1.845a2.429,2.429,0,0,1-1.93.944,2.339,2.339,0,0,1-.315-.021,7.932,7.932,0,0,0-.072,1.56v6.508a4.575,4.575,0,0,1-.007.589v.024a1.955,1.955,0,0,0,.266,1.392l.148-.009h.03C-5403.936-5111.825-5403.766-5111.836-5403.592-5111.836Zm-6.034-10.128-1.167.023c.009,3.253,0,4.14,0,4.788v.054c-.008.726-.012,1.09.023,5.238l1.147.021v-10.124Zm1.957.015v9.936l1.174.028v-9.964Zm20.7.157c0,2.876-.011,3.831-.018,4.4v.1c-.011.8-.012.88.055,5.147h1.015l0-9.645Zm-3.145,0,0,.765,0,.691c.007.98,0,1.962-.011,2.885v.021c-.017,1.732-.034,3.523.05,5.287h1.023l-.019-9.649Zm1.3-31.5a12.854,12.854,0,0,0-12.839,12.84,12.854,12.854,0,0,0,12.839,12.84,12.855,12.855,0,0,0,12.84-12.84A12.855,12.855,0,0,0-5388.813-5153.3Zm0,24.2a11.428,11.428,0,0,1-2.524-.282,11.334,11.334,0,0,1-4.43-2.1,11.5,11.5,0,0,1-2.941-3.4,11.32,11.32,0,0,1-1.425-4.608,11.36,11.36,0,0,1,.724-5.069,11.49,11.49,0,0,1,3.8-5,11.331,11.331,0,0,1,6.342-2.258c.149-.006.3-.009.453-.009a11.4,11.4,0,0,1,4.358.867,11.377,11.377,0,0,1,3.717,2.507,11.357,11.357,0,0,1,2.671,4.277,11.376,11.376,0,0,1-.377,8.374,11.483,11.483,0,0,1-4.464,5.045,11.217,11.217,0,0,1-3.254,1.346A11.473,11.473,0,0,1-5388.815-5129.095Zm.019-3.943a.539.539,0,0,1,.365.125.732.732,0,0,1,.241.666v.041a2.355,2.355,0,0,0-.009.326v.036c0,.036,0,.072,0,.108,0,.14,0,.284,0,.423v.038q0,.157,0,.315a10.192,10.192,0,0,0,1.113-.138c.1-.023.2-.042.293-.061l.016,0,.015,0,.093-.021.01,0,.036-.009a3.792,3.792,0,0,1,.384-.1,1.4,1.4,0,0,0,.354-.113l.008.016c.063-.027.13-.051.194-.074l.022-.008c.064-.023.133-.048.2-.074a10.132,10.132,0,0,0,1.029-.456c-.1-.181-.2-.364-.3-.542l-.009-.016c-.122-.217-.251-.448-.375-.678.123-.071.248-.141.373-.21l.138-.077.048.084.214.384c.152.273.289.52.431.764a9.517,9.517,0,0,0,3.032-2.915l-.565-.326c-.227-.13-.451-.258-.675-.389a.612.612,0,0,1-.3-.389.581.581,0,0,1,.07-.471.593.593,0,0,1,.4-.28.891.891,0,0,1,.127-.01.605.605,0,0,1,.326.086c.144.082.288.165.431.249l.013.008c.259.151.526.307.8.449a9.409,9.409,0,0,0,.861-2.8l0-.017c0-.021,0-.042.008-.061.007-.058.015-.114.023-.17s.012-.112.016-.167v-.011l0-.057c.007-.069.01-.141.013-.21v-.005c0-.027,0-.054,0-.082.005-.068.01-.136.014-.2l0-.051v-.043h-.176l-.264,0h-.6c-.118,0-.243,0-.365-.006,0-.011,0-.031,0-.047v-.014c-.005-.139,0-.28,0-.416v-.1h.195l.469,0h.271c.146,0,.3,0,.445,0h.041v-.031c0-.08-.006-.16-.008-.24l0-.063-.011-.008a9.611,9.611,0,0,0-.969-3.6c-.24.131-.481.27-.714.405l-.024.014c-.16.093-.329.191-.5.286a.608.608,0,0,1-.3.077.612.612,0,0,1-.211-.037.615.615,0,0,1-.381-.744.613.613,0,0,1,.323-.392c.415-.235.826-.474,1.174-.676a9.5,9.5,0,0,0-3-2.861c-.134.236-.269.478-.4.711q-.146.262-.292.522l-.152-.084-.022-.012-.014-.008c-.106-.059-.216-.119-.322-.181.114-.215.235-.431.353-.639l.039-.068.025-.044c.089-.158.182-.322.27-.484a9.531,9.531,0,0,0-3.765-1.05c0,.107,0,.215,0,.321v.083c0,.182,0,.369,0,.553,0,.017,0,.046,0,.063,0,.042,0,.085,0,.128a1.708,1.708,0,0,1-.069.574.981.981,0,0,1-.166.162.619.619,0,0,1-.377.124.607.607,0,0,1-.506-.256.809.809,0,0,1-.116-.541v-.039c.005-.207,0-.417,0-.62v-.03c0-.162,0-.345,0-.521a9.635,9.635,0,0,0-2.105.378c-.131.039-.256.081-.4.132a9.788,9.788,0,0,0-1.255.54c.08.146.164.294.244.437l.031.055c.149.265.282.5.412.744-.083.049-.169.1-.252.143l-.067.037-.054.03-.136.076c-.091-.16-.182-.323-.27-.481-.129-.234-.276-.5-.429-.753a9.608,9.608,0,0,0-2.989,2.861c.386.227.776.45,1.174.678a.626.626,0,0,1,.313.365.614.614,0,0,1-.239.7.607.607,0,0,1-.342.1.619.619,0,0,1-.33-.092c-.138-.078-.274-.157-.412-.237l-.045-.026-.005,0c-.243-.141-.494-.287-.745-.423a9.525,9.525,0,0,0-.982,3.936h.181c.092,0,.193,0,.319,0h.167c.146,0,.292,0,.436,0h.3c0,.195,0,.393,0,.589H-5397l-.207,0c-.183,0-.363,0-.542,0h-.572l0,.019c0,.052,0,.1.006.153,0,.1.007.189.017.281.005.054.012.109.019.163.008.108.02.235.038.361l.005.04a9.3,9.3,0,0,0,.868,2.855c.216-.112.431-.236.637-.357l.005,0,.037-.021.3-.175c.039-.021.077-.044.115-.068a.869.869,0,0,1,.439-.167h.064a.581.581,0,0,1,.459.248.583.583,0,0,1,.1.514.622.622,0,0,1-.324.4l-.547.315q-.334.191-.667.384a9.638,9.638,0,0,0,3.027,2.917c.138-.229.27-.467.4-.7l.014-.025c.1-.184.193-.349.288-.513l.158.088.021.012c.11.062.221.124.331.187-.117.218-.24.436-.355.64l-.048.086c-.094.167-.191.339-.283.51a8.81,8.81,0,0,0,1.38.577,3.187,3.187,0,0,0,.382.126h0l0,0a2.139,2.139,0,0,0,.366.1,10.5,10.5,0,0,0,1.629.25c.013-.228.01-.457.007-.678v-.033c0-.138,0-.281,0-.421,0-.046,0-.093,0-.139a1.056,1.056,0,0,1,.061-.475,1.486,1.486,0,0,1,.165-.241A1.105,1.105,0,0,1-5388.8-5133.038Zm3.172-2.99a1.716,1.716,0,0,1-1.282-.515,1.8,1.8,0,0,1-.5-1.309,1.858,1.858,0,0,1,.5-1.336,1.714,1.714,0,0,1,1.289-.514,1.733,1.733,0,0,1,1.3.514,1.858,1.858,0,0,1,.5,1.336,1.979,1.979,0,0,1-.449,1.264A1.637,1.637,0,0,1-5385.624-5136.027Zm-4.573,0h-1.815l4.6-8.859h1.8l-4.579,8.859Zm-1.822-5.185a1.61,1.61,0,0,1-1.33-.566,1.97,1.97,0,0,1-.456-1.258,1.855,1.855,0,0,1,.5-1.33,1.708,1.708,0,0,1,1.29-.521,1.73,1.73,0,0,1,1.3.516,1.848,1.848,0,0,1,.5,1.335,1.989,1.989,0,0,1-.449,1.258A1.622,1.622,0,0,1-5392.019-5141.212Z" transform="translate(4251.511 5591.019)" fill="#383838" stroke="rgba(0,0,0,0)" stroke-miterlimit="10" stroke-width="1"/>
    <g id="Group_19448" data-name="Group 19448" transform="translate(-1124.816 460.619)">
      <path id="Path_60589" data-name="Path 60589" d="M258.306,341a14.475,14.475,0,1,1-14.476,14.474A14.474,14.474,0,0,1,258.306,341Z" transform="translate(-243.83 -341)" fill="#fe5862" fill-rule="evenodd"/>
    </g>
    <path id="dollar-sign-icon" d="M46.62,33.157a1.567,1.567,0,0,0-.6-1.148,1.769,1.769,0,0,0-.557-.283l-.037,2.846.352.079a8.536,8.536,0,0,1,1.791.586,5,5,0,0,1,1.308.877,3.363,3.363,0,0,1,.8,1.165,4.016,4.016,0,0,1,.283,1.478,3.873,3.873,0,0,1-.655,2.217,4.07,4.07,0,0,1-1.86,1.422,6.945,6.945,0,0,1-2.129.463L45.3,44.243H43.572l.017-1.4a7.145,7.145,0,0,1-2.045-.473,4.188,4.188,0,0,1-1.983-1.559,4.73,4.73,0,0,1-.727-2.651H42a2.062,2.062,0,0,0,.35,1.1,1.919,1.919,0,0,0,.865.668,2.679,2.679,0,0,0,.411.133l.037-3.02L43,36.889a6.235,6.235,0,0,1-2.8-1.321,3.119,3.119,0,0,1-1.015-2.464,3.678,3.678,0,0,1,.682-2.217,4.516,4.516,0,0,1,1.9-1.478,6.484,6.484,0,0,1,2-.493l.017-1.377h1.742l-.017,1.4a5.977,5.977,0,0,1,1.794.493,4.262,4.262,0,0,1,1.821,1.505,4.011,4.011,0,0,1,.663,2.244Zm-2.885-1.478a1.878,1.878,0,0,0-.266.081,1.426,1.426,0,0,0-.653.463,1.151,1.151,0,0,0-.222.663.985.985,0,0,0,.126.544,1.293,1.293,0,0,0,.4.409,2.668,2.668,0,0,0,.569.286l.032-2.441Zm1.628,8.391a1.865,1.865,0,0,0,.273-.086,1.633,1.633,0,0,0,.724-.493,1.192,1.192,0,0,0,.259-.739,1,1,0,0,0-.246-.663,1.858,1.858,0,0,0-.717-.493c-.081-.034-.17-.069-.264-.1l-.034,2.567Z" transform="translate(-1154.74 439.202)" fill="#fff" fill-rule="evenodd"/>
  </g>
</svg>
