<svg xmlns="http://www.w3.org/2000/svg" width="142.541" height="113.086" viewBox="0 0 142.541 113.086"><g transform="translate(-34.996 -65.87)"><path d="M168.681,69.026H124.854q11.226,7.785,22.439,15.589c.271-.552.564-.97.87-.97h9a2.53,2.53,0,0,1,2.531,2.53v7.083l15.337,13.224H159.692v8.654a2.53,2.53,0,0,1-2.531,2.53h-9c-.024,0-.046-.006-.07-.008v16.634c.024,0,.046-.008.07-.008h9a2.531,2.531,0,0,1,2.531,2.531v26.43a2.53,2.53,0,0,1-2.531,2.531h-9c-.024,0-.046-.006-.07-.008v.008H56.011a2.53,2.53,0,0,1-2.531-2.531v-26.43a2.531,2.531,0,0,1,2.531-2.531h8.153V117.667H56.011a2.53,2.53,0,0,1-2.531-2.53v-8.654H38.918L53.48,93.755v-7.58a2.53,2.53,0,0,1,2.531-2.53h9c.377,0,.731.635,1.051,1.37Q77.574,77.029,89.08,69.026H43.852C37.589,69.026,35,71.617,35,77.88v91.383c0,6.263,2.593,8.855,8.856,8.855h124.83c6.263,0,8.856-2.592,8.856-8.855V77.88C177.537,71.617,174.944,69.026,168.681,69.026Z" transform="translate(0 0.837)" fill="#fe5862"/><path d="M154.941,102.152c-17.061-11.968-34.207-23.8-51.316-35.693-1.468-1.62-3.049.544-4.365,1.164C82.8,79.213,66.167,90.553,49.714,102.152Z" transform="translate(3.904 0)" fill="#fe5862"/><path d="M0,0H98.409a0,0,0,0,1,0,0V5.029a2,2,0,0,1-2,2H2a2,2,0,0,1-2-2V0A0,0,0,0,1,0,0Z" transform="translate(57.699 157.025)" fill="#fe5862"/><path d="M116.858,99.042c3.682-1.078,7.366-2.148,11.091-3.071a1.853,1.853,0,0,1,.907-.041c.275.167.17.516.127.774-.476,2.133-1.017,4.251-1.56,6.368-.439,1.7-.869,3.393-1.358,5.075-.089.266-.181.583-.457.711a1.361,1.361,0,0,1-.482-.288c-1.024-.839-1.932-1.8-2.871-2.73-.081-.119-.213-.048-.282.038q-8.225,8.218-16.458,16.434c-.191.244-.524.162-.793.2a2.181,2.181,0,0,1-1.55-.243,11.746,11.746,0,0,1-1.8-2.071q-6.3-8.6-12.572-17.207a1.755,1.755,0,0,0-.529.252c-5.347,3.367-10.665,6.78-15.993,10.179-1.628,1.022-3.239,2.075-4.912,3.025a4.4,4.4,0,0,1-1.249.536,2.508,2.508,0,0,1-1.854-.62,2.583,2.583,0,0,1-.5-2.115,2.121,2.121,0,0,1,.959-1.263c3.692-2.462,7.43-4.857,11.163-7.256,3.2-2.033,6.379-4.085,9.588-6.1.844-.52,1.689-1.038,2.555-1.523a3.963,3.963,0,0,1,1.043-.428,2.833,2.833,0,0,1,1.089.1c.471.089.679.567.97.893,4.565,5.982,8.94,12.1,13.4,18.165,4.73-4.67,9.407-9.4,14.125-14.077.09-.066.157-.2.04-.282-.727-.733-1.44-1.48-2.146-2.233a1.517,1.517,0,0,1-.5-.887A3.469,3.469,0,0,1,116.858,99.042Z" transform="translate(7.618 7.963)" fill="#fe5862"/><rect width="12.653" height="15.956" rx="1" transform="translate(67.529 137.694)" fill="#fe5862"/><rect width="12.653" height="27.976" rx="1" transform="translate(87.07 125.674)" fill="#fe5862"/><rect width="12.653" height="31.912" rx="1" transform="translate(127.98 121.738)" fill="#fe5862"/><rect width="12.653" height="19.995" rx="1" transform="translate(107.315 133.655)" fill="#fe5862"/></g></svg>