<svg xmlns="http://www.w3.org/2000/svg" width="28.279" height="25" viewBox="0 0 28.279 25"><path d="M20.345,8.9a9.026,9.026,0,0,0-9.1-4.97A9.3,9.3,0,0,0,3.115,11.2a9.607,9.607,0,0,0,2.907,8.9,9.605,9.605,0,0,0,10.638,1.989,9.945,9.945,0,0,0,4.334-3.471,2.32,2.32,0,0,1,.432-.5.734.734,0,0,1,1.175.687,1.052,1.052,0,0,1-.186.416,11.871,11.871,0,0,1-2.948,3.226,12.2,12.2,0,0,1-9.882,2.309,11.85,11.85,0,0,1-7.706-5.4A12.632,12.632,0,0,1,2.669,4.971,12.58,12.58,0,0,1,10.815.151c5.808-.89,11.638,2.335,13.505,7.474l2.348-.751a1.236,1.236,0,0,1,1.5,1.682l-2.686,5.994a1.237,1.237,0,0,1-1.634.625l-.091-.045v0l-5.889-3.25a1.239,1.239,0,0,1,.3-2.29L20.345,8.9Z" transform="translate(0 -0.004)" fill="#fe5862" fill-rule="evenodd"/></svg>