<svg xmlns="http://www.w3.org/2000/svg" width="42.039" height="38.731" viewBox="0 0 42.039 38.731"><g transform="translate(-44.625 -65.87)"><path d="M83.631,69.026H71.7q3.845,2.666,7.685,5.339c.093-.189.193-.332.3-.332h3.081a.866.866,0,0,1,.867.867v3.288l1.711,2.3-1.711,1.363v2.964a.866.866,0,0,1-.867.867H79.682l.38,0-.4,5.7.427,0h2.678a.867.867,0,0,1,.867.867V101.3a.866.866,0,0,1-.867.867H79.682l-.024,0v0H48.524a.866.866,0,0,1-.867-.867V92.244a.867.867,0,0,1,.867-.867h2.792V85.685H48.524a.866.866,0,0,1-.867-.867V81.855l-1.5-1.363,1.5-2.134V74.9a.866.866,0,0,1,.867-.867h3.081c.129,0,.25.218.36.469q3.944-2.735,7.885-5.476H47.658c-2.145,0-3.033.887-3.033,3.033v31.3c0,2.145.888,3.033,3.033,3.033H83.631c2.145,0,3.033-.888,3.033-3.033v-31.3C86.664,69.913,85.776,69.026,83.631,69.026Z" transform="translate(0 -1.788)" fill="#fe5862"/><path d="M85.753,78.3c-5.843-4.1-11.716-8.151-17.575-12.224-.5-.555-1.044.186-1.5.4C61.044,70.44,55.349,74.324,49.714,78.3Z" transform="translate(-2.009 0)" fill="#fe5862"/><path d="M81.917,96.969c1.261-.369,2.523-.736,3.8-1.052a.635.635,0,0,1,.311-.014c.094.057.058.177.043.265-.163.731-.348,1.456-.534,2.181-.15.581-.3,1.162-.465,1.738-.03.091-.062.2-.156.244a.466.466,0,0,1-.165-.1c-.351-.287-.662-.617-.983-.935-.028-.041-.073-.016-.1.013l-5.637,5.629c-.065.084-.179.055-.272.07a.747.747,0,0,1-.531-.083,4.023,4.023,0,0,1-.615-.709q-2.157-2.944-4.306-5.893a.6.6,0,0,0-.181.086c-1.831,1.153-3.653,2.322-5.477,3.486-.558.35-1.109.711-1.682,1.036a1.506,1.506,0,0,1-.428.184.859.859,0,0,1-.635-.212.885.885,0,0,1-.173-.725.726.726,0,0,1,.328-.432c1.264-.843,2.545-1.664,3.823-2.485,1.095-.7,2.185-1.4,3.284-2.089.289-.178.579-.355.875-.522A1.357,1.357,0,0,1,72.4,96.5a.97.97,0,0,1,.373.034c.161.03.233.194.332.306,1.563,2.049,3.062,4.145,4.588,6.221,1.62-1.6,3.222-3.218,4.838-4.821.031-.023.054-.07.014-.1-.249-.251-.493-.507-.735-.765a.52.52,0,0,1-.17-.3A1.188,1.188,0,0,1,81.917,96.969Z" transform="translate(-9.944 -17.011)" fill="#fe5862"/><rect width="4.333" height="1.355" rx="0.677" transform="translate(52.469 94.579)" fill="#fe5862"/><rect width="4.333" height="1.355" rx="0.677" transform="translate(52.469 96.292)" fill="#fe5862"/><rect width="4.333" height="1.355" rx="0.677" transform="translate(52.469 98.004)" fill="#fe5862"/><rect width="4.333" height="1.355" rx="0.677" transform="translate(59.319 94.579)" fill="#fe5862"/><rect width="4.333" height="1.355" rx="0.677" transform="translate(59.319 96.292)" fill="#fe5862"/><rect width="4.333" height="1.355" rx="0.677" transform="translate(59.319 98.004)" fill="#fe5862"/><rect width="4.333" height="1.355" rx="0.677" transform="translate(73.361 94.579)" fill="#fe5862"/><rect width="4.333" height="1.355" rx="0.677" transform="translate(73.361 98.004)" fill="#fe5862"/><rect width="4.333" height="1.355" rx="0.677" transform="translate(66.169 94.579)" fill="#fe5862"/><rect width="4.333" height="1.355" rx="0.677" transform="translate(66.169 98.004)" fill="#fe5862"/><rect width="4.333" height="1.355" rx="0.677" transform="translate(52.469 92.867)" fill="#fe5862"/><rect width="4.333" height="1.355" rx="0.677" transform="translate(59.319 92.867)" fill="#fe5862"/><rect width="4.333" height="1.355" rx="0.677" transform="translate(73.361 92.867)" fill="#fe5862"/><rect width="4.333" height="1.355" rx="0.677" transform="translate(73.361 96.292)" fill="#fe5862"/><rect width="4.333" height="1.355" rx="0.677" transform="translate(66.169 92.867)" fill="#fe5862"/><rect width="4.333" height="1.355" rx="0.677" transform="translate(66.169 96.292)" fill="#fe5862"/><rect width="4.333" height="1.355" rx="0.677" transform="translate(52.469 91.154)" fill="#fe5862"/><rect width="4.333" height="1.355" rx="0.677" transform="translate(59.319 91.154)" fill="#fe5862"/><rect width="4.333" height="1.355" rx="0.677" transform="translate(73.361 91.154)" fill="#fe5862"/><rect width="4.333" height="1.355" rx="0.677" transform="translate(66.169 91.154)" fill="#fe5862"/><rect width="4.333" height="1.355" rx="0.677" transform="translate(59.319 89.442)" fill="#fe5862"/><rect width="4.333" height="1.355" rx="0.677" transform="translate(73.361 89.442)" fill="#fe5862"/><rect width="4.333" height="1.355" rx="0.677" transform="translate(66.169 89.442)" fill="#fe5862"/><rect width="4.333" height="1.355" rx="0.677" transform="translate(59.319 87.729)" fill="#fe5862"/><rect width="4.333" height="1.355" rx="0.677" transform="translate(73.361 87.729)" fill="#fe5862"/><rect width="4.333" height="1.355" rx="0.677" transform="translate(59.319 86.017)" fill="#fe5862"/><rect width="4.333" height="1.355" rx="0.677" transform="translate(73.361 86.017)" fill="#fe5862"/><rect width="4.333" height="1.355" rx="0.677" transform="translate(73.361 84.304)" fill="#fe5862"/><line y1="13.7" transform="translate(54.513 86.738)" fill="none" stroke="#fe5862" stroke-width="1"/><line y1="17.125" transform="translate(61.363 83.313)" fill="none" stroke="#fe5862" stroke-width="1"/><line y1="16.782" transform="translate(75.405 83.655)" fill="none" stroke="#fe5862" stroke-width="1"/><line y1="11.645" transform="translate(68.212 88.793)" fill="none" stroke="#fe5862" stroke-width="1"/></g></svg>