<svg xmlns="http://www.w3.org/2000/svg" width="54.395" height="55.963" viewBox="0 0 54.395 55.963"><path d="M0,26.714V24.382L18.133,40.239.237,54.264A2.8,2.8,0,0,1,0,53.14V26.728Zm.068-6.926C.455,18.271,2.6,17.3,3.8,16.45V9.942A2.732,2.732,0,0,1,6.53,7.21H16.762L26.53.252a1.475,1.475,0,0,1,1.7.009l9.6,6.949H47.851a2.732,2.732,0,0,1,2.732,2.732v6.489c1.284.911,3.8,2.149,3.8,3.866v.068l-6.516,5.506V9.933H6.53V25.416Zm54.327,5.15v28.2a2.787,2.787,0,0,1-.647,1.79L35.674,40.717,54.395,24.938ZM49.386,55.949H3.761L20.815,42.584l5.077,4.44a1.744,1.744,0,0,0,2.345-.041l4.7-3.957L49.372,55.949Z" transform="translate(0 0.014)" fill="#fe5862"/></svg>