<svg id="acrobat-pro-icon" xmlns="http://www.w3.org/2000/svg" width="37.399" height="36.459" viewBox="0 0 37.399 36.459">
  <path id="Path_60625" data-name="Path 60625" d="M6.644,0H30.755A6.639,6.639,0,0,1,37.4,6.644V29.817a6.639,6.639,0,0,1-6.647,6.642H6.644A6.647,6.647,0,0,1,0,29.817V6.629A6.554,6.554,0,0,1,6.644,0Z" transform="translate(0 0)" fill="#b30b00"/>
  <path id="Path_60626" data-name="Path 60626" d="M118.36,108.136c-1.752-1.869-6.527-1.051-7.678-.934a25.838,25.838,0,0,1-3.256-4.191,18.244,18.244,0,0,0,1.051-5.592c0-1.754-.7-3.49-2.557-3.49a1.864,1.864,0,0,0-1.635.934c-.818,1.4-.468,4.191.818,7.1a46.633,46.633,0,0,1-3.256,7.683c-1.869.7-5.943,2.557-6.293,4.658a1.716,1.716,0,0,0,.585,1.635,2.186,2.186,0,0,0,1.635.585c2.439,0,4.9-3.373,6.644-6.41a37.458,37.458,0,0,1,5.826-1.518,9.011,9.011,0,0,0,6.059,2.672c1.636,0,2.22-.7,2.439-1.285A1.667,1.667,0,0,0,118.36,108.136Zm-1.635,1.169c-.117.467-.7.934-1.754.7a8.442,8.442,0,0,1-3.373-1.754,15.873,15.873,0,0,1,4.191-.117,1.064,1.064,0,0,1,.936,1.169Zm-11.3-13.975a.642.642,0,0,1,.585-.35c.585,0,.7.7.7,1.284a16.646,16.646,0,0,1-.818,4.191C104.955,97.9,105.072,96.031,105.421,95.33Zm-.117,13.157a27.721,27.721,0,0,0,1.518-3.726,20.531,20.531,0,0,0,2.1,2.789,18.134,18.134,0,0,0-3.619.937Zm-3.955,2.69c-1.621,2.557-3.142,4.191-4.074,4.191a.7.7,0,0,1-.468-.117.774.774,0,0,1-.116-.7C96.807,113.612,98.677,112.327,101.349,111.177Z" transform="translate(-88.543 -87.066)" fill="#fff"/>
</svg>
