<svg xmlns="http://www.w3.org/2000/svg" width="35.546" height="35.276" viewBox="0 0 35.546 35.276"><path d="M1.909,35.252H13.744a1.9,1.9,0,0,0,.819-.185,1.927,1.927,0,0,0,1.091-1.724V21.557a1.894,1.894,0,0,0-1.909-1.9H1.909a1.88,1.88,0,0,0-.7.139,1.863,1.863,0,0,0-.61.388,1.909,1.909,0,0,0-.437.631A1.822,1.822,0,0,0,0,21.557V33.342a1.892,1.892,0,0,0,.124.671,1.944,1.944,0,0,0,.347.579l.075.078a1.99,1.99,0,0,0,.579.4,1.941,1.941,0,0,0,.79.174ZM17.154,8.21,24.878.495A1.791,1.791,0,0,1,25.52.081a1.805,1.805,0,0,1,.767-.1,1.736,1.736,0,0,1,1.067.5l7.68,7.68a1.736,1.736,0,0,1,.385.579,1.773,1.773,0,0,1-.385,1.9l-7.712,7.727a1.736,1.736,0,0,1-.55.367,1.713,1.713,0,0,1-.648.145,1.768,1.768,0,0,1-.7-.124,1.66,1.66,0,0,1-.593-.388l-7.68-7.689a1.762,1.762,0,0,1-.509-1.122V9.471a1.776,1.776,0,0,1,.512-1.261ZM1.909,17.235H13.744a1.9,1.9,0,0,0,1.475-.7,1.869,1.869,0,0,0,.321-.579,1.906,1.906,0,0,0,.113-.639V3.544a1.9,1.9,0,0,0-1.9-1.909H1.909a1.88,1.88,0,0,0-.7.139,1.863,1.863,0,0,0-.61.388,1.909,1.909,0,0,0-.437.631A1.825,1.825,0,0,0,0,3.544V15.329A1.875,1.875,0,0,0,.124,16a1.909,1.909,0,0,0,.347.579l.075.078a1.99,1.99,0,0,0,.579.4,1.941,1.941,0,0,0,.79.174Zm11.837-1.9H1.909V3.535H13.77V15.329Zm6.431,19.917H32.012a1.9,1.9,0,0,0,.819-.185,1.927,1.927,0,0,0,1.091-1.724V21.557a1.917,1.917,0,0,0-1.909-1.906H20.177a1.953,1.953,0,0,0-1.313.526,1.909,1.909,0,0,0-.437.634,1.822,1.822,0,0,0-.159.749V33.345a1.892,1.892,0,0,0,.124.671,1.944,1.944,0,0,0,.347.579l.075.078a1.99,1.99,0,0,0,.579.4,1.941,1.941,0,0,0,.79.174Zm11.837-1.9H20.177V21.557h11.86V33.351Zm-18.268,0H1.909v-11.8H13.77V33.345Z" transform="translate(0 0.024)" fill="#fe5862"/></svg>