<svg xmlns="http://www.w3.org/2000/svg" width="33.239" height="32.862" viewBox="0 0 33.239 32.862">
  <g id="Group_19352" data-name="Group 19352" transform="translate(-91.687 -53.607)">
    <g id="Group_19298" data-name="Group 19298" transform="translate(91.687 53.607)">
      <g id="Group_19298-2" data-name="Group 19298" transform="translate(9.146 11.75)">
        <path id="Path_26626" data-name="Path 26626" d="M64.14,75.4" transform="translate(-64.14 -75.4)" fill="#fe5862"/>
      </g>
      <g id="Group_19299" data-name="Group 19299">
        <path id="Path_26627" data-name="Path 26627" d="M107.828,29.064c0-.285.253-.5.377-.741,1.352-2.213,2.725-4.414,4.069-6.631,0-.043,0-.129-.006-.173-2.072-1.337-4.187-2.6-6.28-3.906a24.164,24.164,0,0,1-1.776,2.7c-.4-2.528-.767-5.058-1.206-7.578-2.47.411-4.947.78-7.417,1.183.636,3.449,1.086,6.933,1.735,10.38,1.658-.375,3.362-.568,5.044-.836-.6,1.031-1.238,2.035-1.862,3.047,1.309.855,2.674,1.628,3.962,2.513-1.333.808-2.669,1.611-3.961,2.483.641,1,1.281,2,1.858,3.044-.786-.111-1.835-.32-2.624-.416h0a20.565,20.565,0,0,1-2.433-.444c-.606,3.46-1.1,6.94-1.716,10.4,2.466.428,4.951.743,7.409,1.219.439-2.567.823-5.142,1.223-7.717.638.9,1.165,1.868,1.765,2.789,2.112-1.35,4.319-2.563,6.359-4.017C110.8,33.961,109.343,31.493,107.828,29.064Zm-10.19-5.249c-.516-3.186-1.043-6.372-1.547-9.56,2.194-.341,4.381-.743,6.58-1.043.373,2.49.834,4.968,1.189,7.462.086.351-.188.626-.347.906-.3.45-.542.945-.878,1.375C100.983,23.3,99.3,23.506,97.638,23.815Zm3.456,2.6c1.135-2.008,2.415-3.938,3.593-5.924.514-.759.91-1.6,1.481-2.314,1.843,1.181,3.73,2.3,5.568,3.484-.011.054-.034.159-.043.214-1.4,2.209-2.714,4.482-4.148,6.674q-.321-.523-.624-1.054c-.718.366-1.376.831-2.07,1.24C103.581,28,102.363,27.165,101.094,26.42Zm1.577,18.391c-2.2-.289-4.383-.729-6.582-1.052.5-3.188,1.035-6.376,1.545-9.564.576.088,1.151.186,1.723.294h0c1.515.236,3.316.572,4.835.764C103.725,38.444,103.164,41.623,102.671,44.811ZM104.4,36.98a17.64,17.64,0,0,1,.341-2.074,9.172,9.172,0,0,1-1.8-.311c-.656-.977-1.286-1.984-1.849-3.019q2.827-1.727,5.626-3.494c1.628,2.543,3.15,5.151,4.769,7.7.086.178.272.338.249.549-1.838,1.189-3.726,2.3-5.568,3.488A28.562,28.562,0,0,1,104.4,36.98Z" transform="translate(-80.546 -12.74)" fill="#383838"/>
        <path id="Path_26628" data-name="Path 26628" d="M21.107,23.48a14.959,14.959,0,0,1,7.308-3.13,10.521,10.521,0,0,0-7.222,12.508,10.741,10.741,0,0,0,5.044,6.68,11.647,11.647,0,0,0,4.531,1.472c-.546,3.049-1,6.119-1.528,9.172a22.54,22.54,0,0,1-4.165-1.031,15.434,15.434,0,0,1-7.565-6.329,14.685,14.685,0,0,1-1.941-10A14.841,14.841,0,0,1,21.107,23.48Z" transform="translate(-15.368 -18.923)" fill="#383838"/>
      </g>
      <g id="Group_19301" data-name="Group 19301" transform="translate(6.496 2.063)">
        <g id="Group_19300" data-name="Group 19300" transform="translate(0 0)">
          <path id="Path_26629" data-name="Path 26629" d="M50.667,29.707A9.9,9.9,0,0,1,57.5,23.74c.349,2.335.8,4.654,1.123,6.993a18.248,18.248,0,0,0,.426,2.3,5.319,5.319,0,0,0-3.985,1.817,4.471,4.471,0,0,0-.623,4.949A6.23,6.23,0,0,0,57.851,42.5a9.97,9.97,0,0,1-6.886-5.251A9.275,9.275,0,0,1,50.667,29.707Zm1.99,3.721" transform="translate(-50.006 -23.74)" fill="#383838"/>
        </g>
      </g>
    </g>
    <g id="Group_19351" data-name="Group 19351" transform="translate(110.999 72.542)">
      <circle id="Ellipse_105" data-name="Ellipse 105" cx="6.964" cy="6.964" r="6.964" transform="translate(0 0)" fill="#383838"/>
      <path id="chat-question" d="M25.544,21.68H23.554a5.883,5.883,0,0,1,.113-1.411,1.813,1.813,0,0,1,.344-.577,9.933,9.933,0,0,1,1.022-.921c.284-.24.423-.442.423-.632a.591.591,0,0,0-.171-.45.741.741,0,0,0-.514-.156.825.825,0,0,0-.613.24,1.423,1.423,0,0,0-.313.856l-2.027-.24a2.758,2.758,0,0,1,.81-1.8,3.035,3.035,0,0,1,2.164-.68,3.231,3.231,0,0,1,1.839.481,1.983,1.983,0,0,1,.962,1.717,1.659,1.659,0,0,1-.24.858,4.188,4.188,0,0,1-1,1.007,2.721,2.721,0,0,0-.668.673,3.412,3.412,0,0,0-.137,1.051Zm.072.721v1.464H23.489V22.4Z" transform="translate(-17.935 -13.236)" fill="#fff" fill-rule="evenodd"/>
    </g>
  </g>
</svg>
