<svg xmlns="http://www.w3.org/2000/svg" width="32.655" height="28.522" viewBox="0 0 32.655 28.522">
  <g id="Group_19350" data-name="Group 19350" transform="translate(-79.486 -64.206)">
    <path id="business-loan" d="M2.635,5.11H4.914V15.542c-.2,0-.409-.017-.617-.017a9.119,9.119,0,0,0-4.146.946L0,16.552V7.742A2.64,2.64,0,0,1,2.635,5.11Zm5.58,19.814a1.238,1.238,0,0,1,.188.644c0,1.189-1.84,2.155-4.106,2.155S.191,26.749.191,25.56a1.281,1.281,0,0,1,.186-.644c.525.877,2.08,1.511,3.921,1.511s3.4-.634,3.918-1.511Zm11.8-.765a1.523,1.523,0,0,1,.23.79c0,1.456-2.254,2.638-5.033,2.638s-5.033-1.181-5.033-2.638a1.536,1.536,0,0,1,.23-.79c.641,1.072,2.549,1.85,4.8,1.85S19.383,25.231,20.02,24.158Zm0-3.19a1.523,1.523,0,0,1,.23.79c0,1.456-2.254,2.64-5.033,2.64s-5.033-1.191-5.033-2.648a1.543,1.543,0,0,1,.23-.79c.641,1.082,2.549,1.85,4.8,1.85s4.166-.768,4.8-1.85Zm-2.972-6.645-.059.654-2.477-.215a2.259,2.259,0,0,1,.424.889l-.6-.047a1.964,1.964,0,0,0-.267-.585,1.2,1.2,0,0,0-.513-.458l.047-.53,3.433.3ZM15.23,13.3c2.284,0,4.136.728,4.136,1.622s-1.853,1.622-4.136,1.622-4.136-.743-4.136-1.622S12.946,13.3,15.23,13.3Zm0-.54c2.779,0,5.033,1.184,5.033,2.64s-2.254,2.638-5.033,2.638-5.045-1.194-5.045-2.645,2.254-2.64,5.033-2.64Zm4.807,5.107a1.523,1.523,0,0,1,.213.758c0,1.456-2.254,2.638-5.033,2.638s-5.033-1.181-5.033-2.638a1.486,1.486,0,0,1,.218-.758c.619,1.087,2.541,1.882,4.82,1.882s4.21-.8,4.82-1.882ZM5.781,19.492l-.05.535-2.016-.176a1.84,1.84,0,0,1,.344.726l-.5-.042a1.528,1.528,0,0,0-.206-.473.991.991,0,0,0-.419-.376l.032-.436,2.8.248Zm-1.486-.837c1.863,0,3.376.594,3.376,1.325S6.16,21.3,4.3,21.3.921,20.708.921,19.98,2.435,18.655,4.3,18.655Zm0-.438c2.266,0,4.106.963,4.106,2.152s-1.84,2.155-4.106,2.155-4.1-.976-4.1-2.155,1.84-2.152,4.106-2.152ZM8.23,22.39a1.238,1.238,0,0,1,.173.619c0,1.186-1.84,2.152-4.106,2.152S.191,24.2.191,23.009a1.214,1.214,0,0,1,.173-.619c.5.887,2.073,1.536,3.933,1.536S7.725,23.282,8.23,22.39ZM12.488,0h5.246a2.972,2.972,0,0,1,2.972,2.972V4.557h-1.9V2.972a1.043,1.043,0,0,0-1.04-1.04H12.453a1.043,1.043,0,0,0-1.04,1.04v1.59H9.523V2.972A2.972,2.972,0,0,1,12.5,0ZM6.479,5.11H23.6V15.851c-.248.067-.5.141-.716.225a4.18,4.18,0,0,0,.054-.686,4.841,4.841,0,0,0-2.925-4.243,10.536,10.536,0,0,0-4.8-1.09,10.536,10.536,0,0,0-4.8,1.087,4.846,4.846,0,0,0-2.925,4.243,4.181,4.181,0,0,0,.057.686,9.132,9.132,0,0,0-1.07-.312V5.112Zm18.69,0H27.8a2.643,2.643,0,0,1,2.635,2.635v8.807l-.151-.082a9.119,9.119,0,0,0-4.146-.946,9.605,9.605,0,0,0-.968.047Z" transform="translate(79.486 64.206)" fill="#383838" fill-rule="evenodd"/>
    <g id="Group_19349" data-name="Group 19349" transform="translate(99.826 81.162)">
      <circle id="Ellipse_105" data-name="Ellipse 105" cx="6" cy="6" r="6" transform="translate(0.316 -0.435)" fill="#383838"/>
      <path id="chat-question" d="M24.958,20.772H23.281a4.958,4.958,0,0,1,.1-1.189,1.528,1.528,0,0,1,.29-.486,8.37,8.37,0,0,1,.861-.776c.239-.2.357-.373.357-.533a.5.5,0,0,0-.144-.379.624.624,0,0,0-.434-.132.7.7,0,0,0-.517.2,1.2,1.2,0,0,0-.263.721L21.818,18a2.324,2.324,0,0,1,.683-1.517,2.557,2.557,0,0,1,1.823-.573,2.723,2.723,0,0,1,1.55.405,1.671,1.671,0,0,1,.81,1.447,1.4,1.4,0,0,1-.2.723,3.529,3.529,0,0,1-.845.849,2.293,2.293,0,0,0-.563.567,2.875,2.875,0,0,0-.115.885Zm.061.608v1.234H23.226V21.378Z" transform="translate(-18.116 -13.772)" fill="#fff" fill-rule="evenodd"/>
    </g>
  </g>
</svg>
