<svg xmlns="http://www.w3.org/2000/svg" width="25.745" height="26.367" viewBox="0 0 25.745 26.367"><g transform="translate(7.404 9.512)"><path d="M64.14,75.4" transform="translate(-64.14 -75.4)" fill="#383838"/></g><path d="M105.5,25.955c0-.231.2-.4.305-.6,1.095-1.791,2.206-3.573,3.294-5.368,0-.035,0-.1,0-.14-1.677-1.082-3.39-2.107-5.084-3.162a19.561,19.561,0,0,1-1.438,2.189c-.32-2.046-.621-4.094-.976-6.134-2,.332-4,.632-6,.958.515,2.792.879,5.612,1.4,8.4,1.342-.3,2.722-.46,4.084-.677-.483.835-1,1.647-1.507,2.467,1.06.692,2.165,1.318,3.208,2.034-1.079.654-2.16,1.3-3.206,2.01.519.809,1.037,1.623,1.5,2.464-.636-.09-1.485-.259-2.124-.336h0a16.647,16.647,0,0,1-1.969-.359c-.49,2.8-.894,5.618-1.389,8.418,2,.346,4.008.6,6,.987.355-2.078.666-4.162.99-6.247.516.729.943,1.512,1.428,2.257,1.709-1.093,3.5-2.075,5.148-3.252C107.9,29.918,106.723,27.92,105.5,25.955Zm-8.249-4.249C96.83,19.126,96.4,16.547,96,13.967c1.776-.276,3.546-.6,5.327-.844.3,2.016.676,4.021.962,6.04.07.284-.152.507-.281.733-.246.364-.439.765-.71,1.113C99.956,21.288,98.593,21.455,97.248,21.706Zm2.8,2.109c.918-1.626,1.955-3.188,2.909-4.8.416-.615.736-1.292,1.2-1.873,1.492.956,3.019,1.858,4.507,2.821-.009.044-.027.129-.035.173-1.137,1.788-2.2,3.628-3.358,5.4q-.26-.424-.506-.853c-.581.3-1.114.672-1.676,1C102.058,25.091,101.073,24.417,100.045,23.814ZM101.322,38.7c-1.784-.234-3.548-.591-5.328-.852.408-2.581.838-5.161,1.251-7.742.466.071.932.15,1.4.238h0c1.227.191,2.684.463,3.914.618C102.175,33.548,101.721,36.121,101.322,38.7Zm1.4-6.339A14.283,14.283,0,0,1,103,30.683a7.425,7.425,0,0,1-1.459-.252c-.531-.791-1.041-1.606-1.5-2.444q2.288-1.4,4.554-2.828c1.318,2.058,2.55,4.17,3.86,6.233.07.144.22.273.2.445-1.488.962-3.016,1.864-4.507,2.824A23.122,23.122,0,0,1,102.725,32.362Z" transform="translate(-83.412 -12.74)" fill="#383838"/><path d="M20.014,22.884A12.11,12.11,0,0,1,25.93,20.35a8.517,8.517,0,0,0-5.846,10.125,8.7,8.7,0,0,0,4.084,5.407,9.428,9.428,0,0,0,3.668,1.192c-.442,2.468-.808,4.953-1.237,7.425a18.246,18.246,0,0,1-3.372-.835A12.494,12.494,0,0,1,17.1,38.541a11.888,11.888,0,0,1-1.571-8.094A12.014,12.014,0,0,1,20.014,22.884Z" transform="translate(-15.368 -19.195)" fill="#383838"/><g transform="translate(5.258 1.67)"><g transform="translate(0 0)"><path d="M50.541,28.57a8.01,8.01,0,0,1,5.535-4.83c.282,1.89.644,3.768.909,5.661a14.773,14.773,0,0,0,.345,1.858A4.306,4.306,0,0,0,54.1,32.73a3.62,3.62,0,0,0-.5,4.006,5.043,5.043,0,0,0,2.757,2.192,8.071,8.071,0,0,1-5.574-4.251A7.508,7.508,0,0,1,50.541,28.57Zm1.611,3.012" transform="translate(-50.006 -23.74)" fill="#383838"/></g></g></svg>