<svg xmlns="http://www.w3.org/2000/svg" width="36.615" height="30.882" viewBox="0 0 36.615 30.882">
  <g id="Group_19348" data-name="Group 19348" transform="translate(-84 -61.312)">
    <g id="Group_19294" data-name="Group 19294" transform="translate(84 61.312)">
      <path id="bank-finance-loan_1_" data-name="bank-finance-loan(1)" d="M.717,10.678,15.774,0,30.909,10.678Zm26.6,10.028-.346-1.584c1.482.276,3.859,3.294,4.628,4.665a12.954,12.954,0,0,1,1.017,2.334c.561,2.087.021,4.039-2.243,4.493a28.21,28.21,0,0,1-5.555.228c-1.6-.082-4.086-.08-4.735-1.727-1.046-2.658.871-5.824,2.619-7.762a9.714,9.714,0,0,1,.714-.712,6.819,6.819,0,0,1,2.14-1.5l-.791,1.472,1.149-1.522h.6l.8,1.614Zm-2.243-3.847c-.262-.771-.5-1.551-.7-2.344.74-.813,3.605-.7,4.428-.012l-.762,1.813c.41-.538.548-.76.793-1.06a2.4,2.4,0,0,1,.29.226,1.2,1.2,0,0,1,.45.715.75.75,0,0,1-.205.6l-1.751,2.038a3.8,3.8,0,0,1-.658-.167c.1-.233.219-.49.318-.724l-.637.688a2.381,2.381,0,0,0-1.694.206l-1.774-2.13a.589.589,0,0,1-.153-.38c0-.515.769-.959,1.171-1.128l.88,1.659ZM0,26.259H1.751V24.634H2.67v-.776h.988v-9.3H1.638V12.328H25.189a3.908,3.908,0,0,0-2.01.93,1.746,1.746,0,0,0-.47.779,4.044,4.044,0,0,0-.579.456l-.064.063H21.053V20.6a13.94,13.94,0,0,0-2.558,4.358,7.7,7.7,0,0,0-.43,3H0ZM27.8,12.328h2.1v.838A4.711,4.711,0,0,0,27.8,12.328ZM8.367,24.634h1.14v-.776H10.5v-9.3H7.379v9.3h.988Zm6.837,0h1.142v-.776h.986v-9.3H14.216v9.3H15.2v.776ZM10.7,7.985,15.8,4.077l5.122,3.908Z" fill="#383838" fill-rule="evenodd"/>
      <text id="ریال" transform="translate(20.834 20.896)" fill="#fff" font-size="6" font-family="IRANSans-Bold, IRAN Sans" font-weight="700"><tspan x="-4.25" y="4">ریال</tspan></text>
    </g>
    <path id="Path_26623" data-name="Path 26623" d="M1.783,0h.112A.621.621,0,0,1,2.26.326c.14.246.286.488.422.735.128-.052.253-.114.383-.164A6.514,6.514,0,0,1,5.842.391,6.194,6.194,0,0,1,8.417,1.1,9.066,9.066,0,0,1,11.174,3.4a2.692,2.692,0,0,1,.294.4c.021.047.053.1.023.152-.047.031-.1.007-.154-.006a3.183,3.183,0,0,1-.423-.22A5.753,5.753,0,0,0,9.4,3.146a5.528,5.528,0,0,0-2.445.01A7.383,7.383,0,0,0,4.512,4.227l.422.731a.626.626,0,0,1,.1.447.312.312,0,0,1-.239.217A1.24,1.24,0,0,1,4.3,5.6L.632,4.991a.773.773,0,0,1-.527-.346.783.783,0,0,1-.044-.7Q.75,2.158,1.44.369A.56.56,0,0,1,1.783,0Z" transform="translate(119.812 72.957) rotate(86)" fill="#383838"/>
  </g>
</svg>
