<svg xmlns="http://www.w3.org/2000/svg" width="75.799" height="74.511" viewBox="0 0 75.799 74.511">
  <g id="Group_19352" data-name="Group 19352" transform="translate(-91.687 -53.607)">
    <g id="Group_19298" data-name="Group 19298" transform="translate(91.687 53.607)">
      <g id="Group_19298-2" data-name="Group 19298" transform="translate(20.922 26.88)">
        <path id="Path_26626" data-name="Path 26626" d="M64.14,75.4" transform="translate(-64.14 -75.4)" fill="#fe5862"/>
      </g>
      <g id="Group_19299" data-name="Group 19299">
        <path id="Path_26627" data-name="Path 26627" d="M123.586,50.083c0-.652.579-1.137.862-1.694,3.093-5.062,6.233-10.1,9.309-15.169,0-.1-.009-.3-.013-.395-4.74-3.059-9.579-5.954-14.367-8.936-1.407,2.025-2.389,4.359-4.063,6.186-.905-5.783-1.755-11.57-2.758-17.335-5.65.939-11.317,1.785-16.966,2.707,1.454,7.889,2.484,15.86,3.968,23.744,3.792-.858,7.692-1.3,11.54-1.913-1.364,2.359-2.831,4.655-4.26,6.971,2.994,1.956,6.117,3.724,9.065,5.748-3.05,1.849-6.1,3.685-9.06,5.68,1.467,2.287,2.93,4.586,4.251,6.962-1.8-.253-4.2-.732-6-.951h0a47.046,47.046,0,0,1-5.565-1.015C98.138,68.59,97,76.552,95.6,84.462c5.641.978,11.325,1.7,16.949,2.788,1-5.873,1.883-11.763,2.8-17.653,1.459,2.059,2.664,4.273,4.037,6.379,4.83-3.089,9.88-5.864,14.547-9.189C130.381,61.284,127.052,55.639,123.586,50.083ZM100.275,38.076c-1.18-7.288-2.385-14.577-3.539-21.87,5.019-.781,10.021-1.7,15.053-2.385.854,5.7,1.909,11.364,2.72,17.069.2.8-.429,1.433-.794,2.072-.695,1.03-1.24,2.162-2.008,3.144C107.928,36.9,104.075,37.368,100.275,38.076Zm7.906,5.959c2.6-4.594,5.525-9.009,8.219-13.552,1.175-1.737,2.081-3.651,3.389-5.294,4.217,2.7,8.533,5.251,12.737,7.971-.026.124-.077.365-.1.489-3.213,5.053-6.207,10.253-9.489,15.268q-.734-1.2-1.429-2.411c-1.643.837-3.149,1.9-4.736,2.836C113.869,47.642,111.085,45.738,108.181,44.035Zm3.608,42.071c-5.041-.661-10.025-1.669-15.057-2.407,1.154-7.293,2.368-14.586,3.535-21.878,1.317.2,2.634.425,3.942.674l0,0c3.466.54,7.586,1.308,11.061,1.748C114.2,71.541,112.917,78.813,111.789,86.105Zm3.964-17.915a40.359,40.359,0,0,1,.781-4.745,20.983,20.983,0,0,1-4.123-.712c-1.5-2.235-2.943-4.539-4.23-6.907q6.467-3.951,12.87-7.992c3.724,5.817,7.207,11.784,10.909,17.614.2.408.622.772.571,1.257-4.2,2.72-8.524,5.268-12.737,7.979A65.341,65.341,0,0,1,115.752,68.191Z" transform="translate(-61.176 -12.74)" fill="#fe5862"/>
        <path id="Path_26628" data-name="Path 26628" d="M28.5,27.51a34.221,34.221,0,0,1,16.718-7.16,24.067,24.067,0,0,0-16.52,28.613,24.571,24.571,0,0,0,11.54,15.281A26.643,26.643,0,0,0,50.6,67.612c-1.248,6.975-2.282,14-3.5,20.982a51.562,51.562,0,0,1-9.528-2.359A35.307,35.307,0,0,1,20.268,71.756a33.594,33.594,0,0,1-4.44-22.874A33.951,33.951,0,0,1,28.5,27.51Z" transform="translate(-15.368 -17.085)" fill="#fe5862"/>
      </g>
      <g id="Group_19301" data-name="Group 19301" transform="translate(14.859 4.719)">
        <g id="Group_19300" data-name="Group 19300" transform="translate(0 0)">
          <path id="Path_26629" data-name="Path 26629" d="M51.518,37.39A22.635,22.635,0,0,1,67.159,23.74c.8,5.341,1.819,10.647,2.57,16a41.745,41.745,0,0,0,.974,5.251,12.168,12.168,0,0,0-9.116,4.157c-2.514,3.093-3.522,7.739-1.424,11.321,1.562,3.1,4.689,4.925,7.79,6.195C61.3,65.193,55.151,60.882,52.2,54.649A21.218,21.218,0,0,1,51.518,37.39ZM56.069,45.9" transform="translate(-50.006 -23.74)" fill="#fe5862"/>
        </g>
      </g>
    </g>
    <g id="Group_19351" data-name="Group 19351" transform="translate(-43 21.265)">
      <circle id="Ellipse_105" data-name="Ellipse 105" cx="16" cy="16" r="16" transform="translate(178.486 74.736)" fill="#fe5862"/>
      <path id="chat-question" d="M30.343,29.117H25.789a13.458,13.458,0,0,1,.258-3.228,4.147,4.147,0,0,1,.786-1.32,22.721,22.721,0,0,1,2.337-2.106c.649-.55.968-1.012.968-1.446a1.353,1.353,0,0,0-.39-1.028,1.694,1.694,0,0,0-1.177-.357,1.886,1.886,0,0,0-1.4.55,3.256,3.256,0,0,0-.715,1.958l-4.636-.55a6.308,6.308,0,0,1,1.853-4.119,6.942,6.942,0,0,1,4.95-1.556,7.392,7.392,0,0,1,4.207,1.1,4.537,4.537,0,0,1,2.2,3.927,3.8,3.8,0,0,1-.55,1.963,9.581,9.581,0,0,1-2.293,2.3,6.226,6.226,0,0,0-1.529,1.54,7.8,7.8,0,0,0-.313,2.4Zm.165,1.65v3.349H25.64V30.761Z" transform="translate(165.931 65.857)" fill="#fff" fill-rule="evenodd"/>
    </g>
  </g>
</svg>
