<svg xmlns="http://www.w3.org/2000/svg" width="56" height="51" viewBox="0 0 56 51"><g transform="translate(-407.353 -103)"><rect width="56" height="51" rx="5" transform="translate(407.353 103)" fill="#d5d5d5"/><g transform="translate(413.353 108)"><g transform="translate(11.827 15.195)"><path d="M64.14,75.4" transform="translate(-64.14 -75.4)" fill="#fff"/></g><path d="M111.415,33.849c0-.369.327-.643.487-.958,1.748-2.861,3.523-5.708,5.262-8.575,0-.056,0-.167-.007-.223-2.68-1.729-5.415-3.366-8.121-5.051a31.247,31.247,0,0,1-2.3,3.5c-.512-3.269-.992-6.54-1.559-9.8-3.194.531-6.4,1.009-9.591,1.53.822,4.459,1.4,8.965,2.243,13.422,2.144-.485,4.348-.735,6.523-1.082-.771,1.334-1.6,2.631-2.408,3.941,1.693,1.106,3.458,2.1,5.124,3.249-1.724,1.045-3.451,2.083-5.121,3.211.829,1.292,1.656,2.592,2.4,3.936-1.016-.143-2.372-.414-3.393-.537h0a26.593,26.593,0,0,1-3.146-.574c-.783,4.474-1.428,8.975-2.219,13.446,3.189.553,6.4.96,9.581,1.576.567-3.32,1.065-6.649,1.581-9.979.824,1.164,1.506,2.415,2.282,3.606,2.73-1.746,5.585-3.315,8.223-5.194C115.256,40.18,113.374,36.989,111.415,33.849ZM98.238,27.062c-.667-4.12-1.348-8.24-2-12.362,2.837-.441,5.665-.96,8.509-1.348.483,3.22,1.079,6.424,1.537,9.649.112.453-.242.81-.449,1.171-.393.582-.7,1.222-1.135,1.777C102.564,26.395,100.387,26.661,98.238,27.062Zm4.469,3.368c1.467-2.6,3.123-5.092,4.646-7.66.664-.982,1.176-2.064,1.916-2.992,2.384,1.528,4.823,2.968,7.2,4.506-.015.07-.044.206-.056.276-1.816,2.857-3.509,5.8-5.364,8.63q-.415-.677-.808-1.363c-.929.473-1.78,1.074-2.677,1.6C105.923,32.469,104.349,31.393,102.707,30.43Zm2.039,23.781c-2.849-.373-5.667-.943-8.511-1.36.652-4.122,1.339-8.245,2-12.367.744.114,1.489.24,2.229.381h0c1.959.305,4.288.74,6.253.988C106.109,45.978,105.384,50.089,104.747,54.211Zm2.241-10.126a22.814,22.814,0,0,1,.441-2.682,11.861,11.861,0,0,1-2.33-.4c-.849-1.263-1.663-2.566-2.391-3.9q3.656-2.233,7.275-4.518c2.1,3.288,4.074,6.661,6.167,9.957.112.23.352.436.323.71-2.376,1.537-4.818,2.978-7.2,4.51A36.936,36.936,0,0,1,106.987,44.085Z" transform="translate(-76.137 -12.74)" fill="#fff"/><path d="M22.789,24.4a19.344,19.344,0,0,1,9.45-4.047A13.6,13.6,0,0,0,22.9,36.524a13.889,13.889,0,0,0,6.523,8.638,15.06,15.06,0,0,0,5.859,1.9c-.706,3.943-1.29,7.913-1.976,11.86a29.146,29.146,0,0,1-5.386-1.334,19.958,19.958,0,0,1-9.782-8.184,18.989,18.989,0,0,1-2.51-12.93A19.191,19.191,0,0,1,22.789,24.4Z" transform="translate(-15.368 -18.505)" fill="#fff"/><g transform="translate(8.399 2.667)"><g transform="translate(0 0)"><path d="M50.861,31.456A12.8,12.8,0,0,1,59.7,23.74c.451,3.019,1.028,6.019,1.453,9.043a23.6,23.6,0,0,0,.55,2.968,6.878,6.878,0,0,0-5.153,2.35,5.782,5.782,0,0,0-.805,6.4,8.056,8.056,0,0,0,4.4,3.5,12.892,12.892,0,0,1-8.9-6.79A11.994,11.994,0,0,1,50.861,31.456Zm2.573,4.811" transform="translate(-50.006 -23.74)" fill="#fff"/></g></g></g></g></svg>