<svg id="building-icon" xmlns="http://www.w3.org/2000/svg" width="33.771" height="31.069" viewBox="0 0 33.771 31.069">
  <path id="Path_60580" data-name="Path 60580" d="M0,27.5H4.045V.431A.434.434,0,0,1,4.477,0h13.7a.434.434,0,0,1,.431.431V10.581H30.737a.434.434,0,0,1,.431.431V27.5h2.6v3.57H0V27.5ZM7.508,4.073h2.8a.158.158,0,0,1,.157.157v3.4a.158.158,0,0,1-.157.157h-2.8a.158.158,0,0,1-.157-.157V4.23a.158.158,0,0,1,.157-.157Zm4.749,16.9h2.8a.158.158,0,0,1,.157.157v3.4a.158.158,0,0,1-.157.157h-2.8a.158.158,0,0,1-.157-.157v-3.4a.157.157,0,0,1,.157-.157Zm-4.749,0h2.8a.158.158,0,0,1,.157.157v3.4a.158.158,0,0,1-.157.157h-2.8a.158.158,0,0,1-.157-.157v-3.4a.157.157,0,0,1,.157-.157Zm4.749-5.634h2.8a.158.158,0,0,1,.157.157v3.4a.158.158,0,0,1-.157.157h-2.8a.158.158,0,0,1-.157-.157V15.495a.159.159,0,0,1,.157-.159Zm-4.749,0h2.8a.158.158,0,0,1,.157.157v3.4a.158.158,0,0,1-.157.157h-2.8a.158.158,0,0,1-.157-.157V15.495a.159.159,0,0,1,.157-.159ZM12.257,9.7h2.8a.158.158,0,0,1,.157.157v3.4a.158.158,0,0,1-.157.157h-2.8a.158.158,0,0,1-.157-.157v-3.4a.158.158,0,0,1,.157-.157Zm-4.749,0h2.8a.158.158,0,0,1,.157.157v3.4a.158.158,0,0,1-.157.157h-2.8a.158.158,0,0,1-.157-.157v-3.4A.158.158,0,0,1,7.508,9.7Zm4.749-5.631h2.8a.158.158,0,0,1,.157.157v3.4a.158.158,0,0,1-.157.157h-2.8a.158.158,0,0,1-.157-.157V4.23a.158.158,0,0,1,.157-.157ZM6.368,2.012h9.872a.347.347,0,0,1,.311.371v23.6a.347.347,0,0,1-.311.371H6.368a.347.347,0,0,1-.311-.371V2.383a.347.347,0,0,1,.311-.371ZM19.955,14.684h2.8a.158.158,0,0,1,.157.157v3.4a.158.158,0,0,1-.157.157h-2.8a.158.158,0,0,1-.157-.157v-3.4a.158.158,0,0,1,.157-.157ZM24.7,20.969h2.8a.158.158,0,0,1,.157.157v3.4a.158.158,0,0,1-.157.157H24.7a.158.158,0,0,1-.157-.157v-3.4a.157.157,0,0,1,.157-.157Zm-4.749,0h2.8a.158.158,0,0,1,.157.157v3.4a.158.158,0,0,1-.157.157h-2.8a.158.158,0,0,1-.157-.157v-3.4a.157.157,0,0,1,.157-.157ZM24.7,14.684h2.8a.158.158,0,0,1,.157.157v3.4a.158.158,0,0,1-.157.157H24.7a.158.158,0,0,1-.157-.157v-3.4a.158.158,0,0,1,.157-.157Zm-5.78-2.091H28.8a.347.347,0,0,1,.311.371V25.982a.347.347,0,0,1-.311.371H18.925a.347.347,0,0,1-.311-.371V12.964a.347.347,0,0,1,.311-.371Z" fill="#fe5862" fill-rule="evenodd"/>
</svg>
