<svg xmlns="http://www.w3.org/2000/svg" width="50.337" height="43.193" viewBox="0 0 50.337 43.193">
  <g id="Group_19465" data-name="Group 19465" transform="translate(872.029 -593.348)">
    <g id="Group_19462" data-name="Group 19462" transform="translate(-21.608 71.906)">
      <path id="Subtraction_123" data-name="Subtraction 123" d="M-3166.418-3982.81h-24.641v-4.719h5.352v-35.806a.571.571,0,0,1,.571-.571h18.124a.571.571,0,0,1,.571.571v13.424h2.154a16.935,16.935,0,0,0-7.885,14.352,17.013,17.013,0,0,0,5.753,12.747Z" transform="translate(2340.638 4545.348)" fill="#383838"/>
      <rect id="Rectangle_3350" data-name="Rectangle 3350" width="13.863" height="33.058" transform="translate(-842.152 524.641)" fill="#fff"/>
      <rect id="Rectangle_3351" data-name="Rectangle 3351" width="4.266" height="5.332" transform="translate(-841.085 526.774)" fill="#383838"/>
      <rect id="Rectangle_3352" data-name="Rectangle 3352" width="4.266" height="5.332" transform="translate(-841.085 534.239)" fill="#383838"/>
      <rect id="Rectangle_3353" data-name="Rectangle 3353" width="4.266" height="5.332" transform="translate(-841.085 541.703)" fill="#383838"/>
      <rect id="Rectangle_3354" data-name="Rectangle 3354" width="4.266" height="5.332" transform="translate(-841.085 549.168)" fill="#383838"/>
      <rect id="Rectangle_3355" data-name="Rectangle 3355" width="4.266" height="5.332" transform="translate(-834.687 526.774)" fill="#383838"/>
      <rect id="Rectangle_3356" data-name="Rectangle 3356" width="4.266" height="5.332" transform="translate(-834.687 534.239)" fill="#383838"/>
      <rect id="Rectangle_3357" data-name="Rectangle 3357" width="4.266" height="5.332" transform="translate(-834.687 541.703)" fill="#383838"/>
      <rect id="Rectangle_3358" data-name="Rectangle 3358" width="4.266" height="5.332" transform="translate(-834.687 549.168)" fill="#383838"/>
    </g>
    <g id="Group_19464" data-name="Group 19464" transform="translate(274.175 146.973)">
      <g id="Group_19448" data-name="Group 19448" transform="translate(-1124.816 460.619)">
        <path id="Path_60589" data-name="Path 60589" d="M258.306,341a14.475,14.475,0,1,1-14.476,14.474A14.474,14.474,0,0,1,258.306,341Z" transform="translate(-243.83 -341)" fill="#fe5862" fill-rule="evenodd"/>
      </g>
      <path id="dollar-sign-icon" d="M46.62,33.157a1.567,1.567,0,0,0-.6-1.148,1.769,1.769,0,0,0-.557-.283l-.037,2.846.352.079a8.536,8.536,0,0,1,1.791.586,5,5,0,0,1,1.308.877,3.363,3.363,0,0,1,.8,1.165,4.016,4.016,0,0,1,.283,1.478,3.873,3.873,0,0,1-.655,2.217,4.07,4.07,0,0,1-1.86,1.422,6.945,6.945,0,0,1-2.129.463L45.3,44.243H43.572l.017-1.4a7.145,7.145,0,0,1-2.045-.473,4.188,4.188,0,0,1-1.983-1.559,4.73,4.73,0,0,1-.727-2.651H42a2.062,2.062,0,0,0,.35,1.1,1.919,1.919,0,0,0,.865.668,2.679,2.679,0,0,0,.411.133l.037-3.02L43,36.889a6.235,6.235,0,0,1-2.8-1.321,3.119,3.119,0,0,1-1.015-2.464,3.678,3.678,0,0,1,.682-2.217,4.516,4.516,0,0,1,1.9-1.478,6.484,6.484,0,0,1,2-.493l.017-1.377h1.742l-.017,1.4a5.977,5.977,0,0,1,1.794.493,4.262,4.262,0,0,1,1.821,1.505,4.011,4.011,0,0,1,.663,2.244Zm-2.885-1.478a1.878,1.878,0,0,0-.266.081,1.426,1.426,0,0,0-.653.463,1.151,1.151,0,0,0-.222.663.985.985,0,0,0,.126.544,1.293,1.293,0,0,0,.4.409,2.668,2.668,0,0,0,.569.286l.032-2.441Zm1.628,8.391a1.865,1.865,0,0,0,.273-.086,1.633,1.633,0,0,0,.724-.493,1.192,1.192,0,0,0,.259-.739,1,1,0,0,0-.246-.663,1.858,1.858,0,0,0-.717-.493c-.081-.034-.17-.069-.264-.1l-.034,2.567Z" transform="translate(-1154.74 439.202)" fill="#fff" fill-rule="evenodd"/>
    </g>
  </g>
</svg>
