<svg xmlns="http://www.w3.org/2000/svg" width="90.903" height="78.002" viewBox="0 0 90.903 78.002">
  <g id="Group_19468" data-name="Group 19468" transform="translate(-1381.637 -285.535)">
    <g id="Group_19465" data-name="Group 19465" transform="translate(2253.666 -307.813)">
      <g id="Group_19462" data-name="Group 19462" transform="translate(-872.029 593.348)">
        <path id="Subtraction_123" data-name="Subtraction 123" d="M44.5,74.213H0V65.691H9.666V1.03A1.031,1.031,0,0,1,10.7,0h32.73a1.032,1.032,0,0,1,1.031,1.03V25.272h3.889A30.7,30.7,0,0,0,44.5,74.21Z" transform="translate(0 0)" fill="#383838"/>
        <rect id="Rectangle_3350" data-name="Rectangle 3350" width="25.035" height="59.698" transform="translate(14.934 5.777)" fill="#fff"/>
        <rect id="Rectangle_3351" data-name="Rectangle 3351" width="7.703" height="9.629" transform="translate(16.86 9.629)" fill="#383838"/>
        <rect id="Rectangle_3352" data-name="Rectangle 3352" width="7.703" height="9.629" transform="translate(16.86 23.109)" fill="#383838"/>
        <rect id="Rectangle_3353" data-name="Rectangle 3353" width="7.703" height="9.629" transform="translate(16.86 36.589)" fill="#383838"/>
        <rect id="Rectangle_3354" data-name="Rectangle 3354" width="7.703" height="9.629" transform="translate(16.86 50.069)" fill="#383838"/>
        <rect id="Rectangle_3355" data-name="Rectangle 3355" width="7.703" height="9.629" transform="translate(28.414 9.629)" fill="#383838"/>
        <rect id="Rectangle_3356" data-name="Rectangle 3356" width="7.703" height="9.629" transform="translate(28.414 23.109)" fill="#383838"/>
        <rect id="Rectangle_3357" data-name="Rectangle 3357" width="7.703" height="9.629" transform="translate(28.414 36.589)" fill="#383838"/>
        <rect id="Rectangle_3358" data-name="Rectangle 3358" width="7.703" height="9.629" transform="translate(28.414 50.069)" fill="#383838"/>
      </g>
      <g id="Group_19464" data-name="Group 19464" transform="translate(-833.405 619.071)">
        <g id="Group_19448" data-name="Group 19448">
          <path id="Path_60589" data-name="Path 60589" d="M269.971,341a26.14,26.14,0,1,1-26.141,26.138A26.138,26.138,0,0,1,269.971,341Z" transform="translate(-243.83 -341)" fill="#fe5862" fill-rule="evenodd"/>
        </g>
        <path id="receipt-us-dollar-icon" d="M24.912,25.018l-.477-.55L22.113,26.79a.7.7,0,0,1-.981,0l-2.366-2.3L16.448,26.72a.7.7,0,0,1-.974.029l-2.461-2.272L10.741,26.83a.7.7,0,0,1-.992,0l-2.34-2.353-2.419,2.3a.7.7,0,0,1-.976-.013L1.726,24.442l-.462.534A.7.7,0,0,1,0,24.56V.7A.7.7,0,0,1,.7,0H25.438a.7.7,0,0,1,.7.7V24.56a.708.708,0,0,1-.244.528.7.7,0,0,1-.983-.07ZM5.79,17.483a1.608,1.608,0,0,1-.286-.035l-.5-.075L4.7,17.323q-.15-.026-.3-.059c-.106-.024-.2-.046-.288-.07L4,17.162V15.24l.543.044.4.024.418.02.427.013h1.1A2.166,2.166,0,0,0,7.13,15.3a.8.8,0,0,0,.169-.057.407.407,0,0,0,.1-.07.231.231,0,0,0,.051-.079.378.378,0,0,0,.02-.128v-.128a.246.246,0,0,0-.1-.22.464.464,0,0,0-.132-.066.539.539,0,0,0-.163-.022H6.518a4.036,4.036,0,0,1-1.124-.141,2.223,2.223,0,0,1-.842-.44,1.784,1.784,0,0,1-.523-.79,3.466,3.466,0,0,1-.169-1.141v-.35A2.9,2.9,0,0,1,4.046,10.6a1.942,1.942,0,0,1,.572-.787,2.681,2.681,0,0,1,.563-.372,2.281,2.281,0,0,1,.611-.183V8.4H7.565v.818a7.627,7.627,0,0,1,.809.117l.147.026.372.07c.117.024.22.048.332.075l.121.029v1.926l-.172-.015-.512-.037-.576-.031-.576-.02H6.716a2.252,2.252,0,0,0-.233.029.71.71,0,0,0-.167.051.4.4,0,0,0-.108.077.231.231,0,0,0-.059.095.5.5,0,0,0-.022.163v.108a.44.44,0,0,0,.029.172.281.281,0,0,0,.081.108.411.411,0,0,0,.156.073,1.018,1.018,0,0,0,.264.029h.7a3.316,3.316,0,0,1,.715.075,2.166,2.166,0,0,1,.6.22,1.979,1.979,0,0,1,.8.827,2.419,2.419,0,0,1,.2.565,2.8,2.8,0,0,1,.066.616v.35a4.159,4.159,0,0,1-.1.919,2.063,2.063,0,0,1-.284.7,1.812,1.812,0,0,1-.464.486,1.979,1.979,0,0,1-.62.295l-.059.018a3.519,3.519,0,0,1-.66.141V18.4H5.79Zm12.881-1.126a.66.66,0,0,1,0,1.32H12.5a.66.66,0,0,1,0-1.32Zm3.444-3.6a.66.66,0,1,1,0,1.32H12.5a.66.66,0,0,1,0-1.32Zm.022-3.576a.66.66,0,1,1,0,1.32H12.5a.66.66,0,0,1,0-1.32ZM21.112,3.448a1.163,1.163,0,1,1-.822.341,1.163,1.163,0,0,1,.822-.341Zm-5.359,0a1.159,1.159,0,1,1-.822.341,1.159,1.159,0,0,1,.822-.341Zm-5.357,0a1.163,1.163,0,1,1-.822.341A1.163,1.163,0,0,1,10.4,3.448Zm-5.359,0a1.159,1.159,0,1,1-.822.341,1.159,1.159,0,0,1,.822-.341ZM24.743,22.8V1.4H1.4V22.783a.7.7,0,0,1,.75.106l2.38,2.4,2.419-2.3a.7.7,0,0,1,.976.013l2.322,2.32,2.245-2.314a.7.7,0,0,1,.974-.026l2.478,2.287,2.347-2.254a.7.7,0,0,1,.976,0l2.349,2.285,2.353-2.355a.7.7,0,0,1,.765-.152Z" transform="translate(13.07 12.623)" fill="#fff"/>
      </g>
    </g>
    <path id="Path_60624" data-name="Path 60624" d="M4.019,0h.253a1.4,1.4,0,0,1,.823.734c.315.553.644,1.1.95,1.658.29-.118.571-.256.863-.369A14.685,14.685,0,0,1,13.17.882a13.963,13.963,0,0,1,5.8,1.607,20.436,20.436,0,0,1,6.213,5.172,6.069,6.069,0,0,1,.662.905c.047.105.119.231.052.344-.105.07-.237.017-.346-.013a7.177,7.177,0,0,1-.953-.5,12.967,12.967,0,0,0-3.4-1.309,12.462,12.462,0,0,0-5.513.023,16.644,16.644,0,0,0-5.515,2.414q.477.823.952,1.647a1.41,1.41,0,0,1,.223,1.007.7.7,0,0,1-.538.49,2.794,2.794,0,0,1-1.122-.054l-8.26-1.367a1.743,1.743,0,0,1-1.188-.781A1.765,1.765,0,0,1,.137,8.9Q1.69,4.864,3.246.831A1.262,1.262,0,0,1,4.019,0Z" transform="translate(1437.444 285.535) rotate(30)" fill="#fe5862"/>
  </g>
</svg>
