<svg xmlns="http://www.w3.org/2000/svg" width="80.854" height="54.441" viewBox="0 0 80.854 54.441"><path d="M9.03,0H69.751A1.749,1.749,0,0,1,71.5,1.745V7.023H68.956V4.289a1.544,1.544,0,0,0-1.541-1.541H11.37A1.542,1.542,0,0,0,9.829,4.289V21.48a15.735,15.735,0,0,0-2.544.673V1.745A1.749,1.749,0,0,1,9.03,0Zm2.009,41.6H14.3v2.607H11.038ZM14.3,40.136H11.038c-.234-2.857-.606-3.367-.764-5.229s-.272-4.565,2.4-4.565c2.8,0,2.577,3,2.366,4.935-.175,1.6-.518,2.2-.739,4.859ZM12.63,24.629A12.629,12.629,0,1,1,0,37.259,12.63,12.63,0,0,1,12.63,24.629ZM61.716,10.585H78.667a2.192,2.192,0,0,1,2.187,2.187V51.927a2.193,2.193,0,0,1-2.187,2.186H61.716a2.193,2.193,0,0,1-2.187-2.186V12.772a2.192,2.192,0,0,1,2.187-2.187ZM75.4,19.808h2.012v.733H75.4ZM70.19,45.062a2.377,2.377,0,1,1-2.377,2.375A2.378,2.378,0,0,1,70.19,45.062Zm-7.7-27.326h15.4a.456.456,0,0,1,.456.455V21a.46.46,0,0,1-.456.456H62.49A.458.458,0,0,1,62.033,21V18.191a.456.456,0,0,1,.456-.455ZM55.876,44.909H26.7a15.89,15.89,0,0,0,1.933-6.917H55.876v6.917Zm-24.4,2.41H47.307a8.131,8.131,0,0,0,4.226,7.122H27.247c2.445-1.772,4.237-3.926,4.226-7.122Z" fill="#fe5862" fill-rule="evenodd"/></svg>