<svg xmlns="http://www.w3.org/2000/svg" width="66.828" height="82.168" viewBox="0 0 66.828 82.168"><g transform="translate(-81.886 -59.13)"><g transform="translate(81.886 59.13)"><path d="M28.688,20.465a4.439,4.439,0,0,1,.669,2.3,4.294,4.294,0,0,1-.375,1.735A17.1,17.1,0,0,0,25.6,23.3a8.524,8.524,0,0,0,3.089-2.839ZM21.477,25.7a14.64,14.64,0,1,1-14.64,14.64A14.639,14.639,0,0,1,21.477,25.7Zm2.768,7.929h1.789a.382.382,0,0,1,.392.37.346.346,0,0,1-.065.207l-7.25,12.645a.4.4,0,0,1-.343.2H16.979a.382.382,0,0,1-.392-.37.346.346,0,0,1,.065-.207l7.255-12.645a.374.374,0,0,1,.337-.2ZM13.167,37.107a4.03,4.03,0,0,1,.1-.886,3.827,3.827,0,0,1,.315-.838h0a2.949,2.949,0,0,1,.555-.756,2.99,2.99,0,0,1,.778-.549,3.872,3.872,0,0,1,.952-.337,4.935,4.935,0,0,1,1.082-.109,4.714,4.714,0,0,1,1.539.234,3.315,3.315,0,0,1,1.218.723,3.163,3.163,0,0,1,.772,1.12l.005.022a4.056,4.056,0,0,1-.005,2.79,3.068,3.068,0,0,1-.772,1.126,3.3,3.3,0,0,1-1.218.718,4.714,4.714,0,0,1-1.539.234,5.29,5.29,0,0,1-1.082-.109,3.719,3.719,0,0,1-.952-.337l-.027-.016a3.139,3.139,0,0,1-.751-.538,2.949,2.949,0,0,1-.555-.756l-.011-.022a3.837,3.837,0,0,1-.3-.821l-.005-.011a3.977,3.977,0,0,1-.1-.881Zm3.187.016a3.53,3.53,0,0,0,.076.783,1.172,1.172,0,0,0,.19.446l.005.011a.34.34,0,0,0,.12.1.561.561,0,0,0,.207.038.366.366,0,0,0,.321-.136l.005-.011a1.172,1.172,0,0,0,.19-.446,3.53,3.53,0,0,0,.076-.783,3.426,3.426,0,0,0-.076-.772h0a1.182,1.182,0,0,0-.2-.457h0a.262.262,0,0,0-.114-.092.561.561,0,0,0-.207-.038.478.478,0,0,0-.212.038h0a.314.314,0,0,0-.125.1h0a1.211,1.211,0,0,0-.19.446l-.005.011a3.838,3.838,0,0,0-.065.767Zm5.874,6.407a3.78,3.78,0,0,1,.419-1.735,2.782,2.782,0,0,1,.549-.751,3.307,3.307,0,0,1,.778-.56l.022-.011a3.733,3.733,0,0,1,.935-.326,4.9,4.9,0,0,1,1.082-.109A3.858,3.858,0,0,1,28.775,41a3.135,3.135,0,0,1,.772,1.126,4.09,4.09,0,0,1,0,2.817,3.068,3.068,0,0,1-.772,1.126,3.867,3.867,0,0,1-2.763.963,5.33,5.33,0,0,1-1.082-.109,3.873,3.873,0,0,1-.952-.337h-.005a3.142,3.142,0,0,1-.778-.555,2.869,2.869,0,0,1-.549-.751,3.9,3.9,0,0,1-.419-1.751Zm3.182.022a3.53,3.53,0,0,0,.076.783,1.2,1.2,0,0,0,.19.451v.005h0a.262.262,0,0,0,.114.092.569.569,0,0,0,.212.038.414.414,0,0,0,.337-.136l.011-.011a1.28,1.28,0,0,0,.179-.441,3.53,3.53,0,0,0,.076-.783,2.149,2.149,0,0,0-.266-1.24.273.273,0,0,0-.125-.1h0A.478.478,0,0,0,26,42.176a.366.366,0,0,0-.321.136l-.016.022a1.294,1.294,0,0,0-.179.435,3.53,3.53,0,0,0-.076.783ZM7.685,29.531C3.111,28.226,0,25.686,0,22.766a4.454,4.454,0,0,1,.669-2.3c1.588,2.659,5.863,4.7,11.154,5.248a17.609,17.609,0,0,0-4.139,3.818Zm58.475,2.393a4.454,4.454,0,0,1,.669,2.3c0,4.247-6.575,7.7-14.679,7.7s-14.679-3.448-14.679-7.7a4.454,4.454,0,0,1,.669-2.3c1.865,3.127,7.434,5.395,14.01,5.395s12.144-2.268,14.01-5.395ZM54.282,20.672l-.027-1.9a1.617,1.617,0,0,0,1.055-.392,1.309,1.309,0,0,0,.065-1.936,2.189,2.189,0,0,0-1.419-.538,1.982,1.982,0,0,0-1.4.294A1.369,1.369,0,0,0,52,17.218a1.932,1.932,0,0,0,.6,1.528l-.359,1.517-5.063-1.419.435-5.014,1.773.152-.31,3.579L50.73,18a2.9,2.9,0,0,1-.207-1.327,2.839,2.839,0,0,1,1.1-2.056,3.306,3.306,0,0,1,2.458-.669,3.563,3.563,0,0,1,2.116.9,3.154,3.154,0,0,1,1.077,2.79,3.331,3.331,0,0,1-.93,2.17,3.005,3.005,0,0,1-2.067.865ZM52.15,13.031c6.662,0,12.063,2.121,12.063,4.731s-5.4,4.731-12.063,4.731-12.063-2.121-12.063-4.731,5.4-4.731,12.063-4.731Zm0-1.572c8.1,0,14.679,3.448,14.679,7.7s-6.575,7.7-14.679,7.7-14.679-3.448-14.679-7.7,6.575-7.7,14.679-7.7ZM66.214,24.288a4.4,4.4,0,0,1,.615,2.208c0,4.247-6.575,7.7-14.679,7.7s-14.679-3.443-14.679-7.7a4.437,4.437,0,0,1,.615-2.208C39.9,27.459,45.509,29.77,52.15,29.77S64.4,27.459,66.214,24.288ZM19.981,4.563l-.169,1.909-7.206-.625a6.59,6.59,0,0,1,1.235,2.594l-1.735-.152a5.533,5.533,0,0,0-.783-1.7,3.553,3.553,0,0,0-1.5-1.343l.136-1.55,10.018.87Zm-5.3-3c6.662,0,12.063,2.121,12.063,4.731s-5.4,4.731-12.063,4.731S2.616,8.908,2.616,6.3s5.4-4.731,12.063-4.731Zm0-1.566c8.1,0,14.679,3.443,14.679,7.7s-6.575,7.7-14.679,7.7S0,11.943,0,7.7,6.575,0,14.679,0ZM28.742,12.824a4.4,4.4,0,0,1,.615,2.208c0,4.247-6.575,7.7-14.679,7.7S0,19.279,0,15.032a4.452,4.452,0,0,1,.615-2.208c1.811,3.171,7.424,5.487,14.064,5.487s12.253-2.317,14.064-5.487ZM4.356,44.057C1.664,42.665,0,40.729,0,38.592a4.485,4.485,0,0,1,.761-2.447,8.887,8.887,0,0,0,3.252,2.833q-.049.669-.049,1.354a17.112,17.112,0,0,0,.392,3.725Zm.12-7.962C1.719,34.7,0,32.734,0,30.564a4.462,4.462,0,0,1,.691-2.333A10.5,10.5,0,0,0,6.01,32.1,17.279,17.279,0,0,0,4.476,36.1Z" transform="translate(0)" fill="#fe5862" fill-rule="evenodd"/></g><path d="M10.973,28.626a.813.813,0,1,1-1.626,0v-1.5a.967.967,0,0,1-.124-.082c-.515-.412-1.084-.858-1.565-1.28-.71-.58-1.527-1.249-2.093-1.716a3.006,3.006,0,0,0-1.252-.631,1.3,1.3,0,0,0-.707.031.738.738,0,0,0-.408.388,2.494,2.494,0,0,0-.141,1.143,4.33,4.33,0,0,0,.395,1.407,9.305,9.305,0,0,0,1.029,1.736l.051.075,6.176,9.336a.81.81,0,0,1,.13.343,5.373,5.373,0,0,0,.659,2.254,1.009,1.009,0,0,0,.9.511h9.686a2.879,2.879,0,0,0,1.647-.532,5.246,5.246,0,0,0,1.51-1.767l.117-.2c1.2-2.059,2.364-4.073,2.484-6.454l-.062-2.745v-.769c.024-1.825.051-4.083-1.62-4.368H25.082c0,.515-.038,1.029-.069,1.544-.031.453-.058.892-.058,1.307a.813.813,0,0,1-1.623,0c0-.419.031-.906.062-1.407.11-1.716.233-3.7-1.143-3.942H21.184a.947.947,0,0,1-.175,0c0,.621-.031,1.266-.069,1.887-.031.453-.058.892-.058,1.307a.813.813,0,1,1-1.623,0c0-.419.031-.9.062-1.407.11-1.716.233-3.7-1.143-3.942H17.111a.724.724,0,0,1-.213-.027v3.146a.813.813,0,1,1-1.626,0V13.81a2.811,2.811,0,0,0-1.311-2.676,1.88,1.88,0,0,0-.848-.206,1.846,1.846,0,0,0-.844.206,2.831,2.831,0,0,0-1.3,2.711V28.626ZM4.2,13.021a1.071,1.071,0,1,1,0,2.138H1.177a1.071,1.071,0,0,1,0-2.138ZM7.253,6.629a1.071,1.071,0,0,1-1.52,1.506l-2.4-2.4a1.07,1.07,0,1,1,1.52-1.506Zm14.068,8.523a1.071,1.071,0,0,1,0-2.138h3.023a1.071,1.071,0,1,1,0,2.138ZM19.77,7.908A1.071,1.071,0,0,1,18.253,6.4l2.4-2.4a1.071,1.071,0,0,1,1.517,1.51l-2.4,2.4ZM13.937,4.2a1.071,1.071,0,1,1-2.138,0V1.177a1.071,1.071,0,0,1,2.138,0V4.2Zm9.2,26.955a.666.666,0,1,1,1.328,0v3.033a.666.666,0,0,1-1.328,0V31.155ZM19.2,29.813a.666.666,0,0,1,1.328,0v4.375a.666.666,0,0,1-1.328,0ZM9.346,25.061V13.834a4.386,4.386,0,0,1,2.186-4.159,3.5,3.5,0,0,1,3.157,0,4.351,4.351,0,0,1,2.21,4.117v3.74a.861.861,0,0,1,.213-.027h1.119a.8.8,0,0,1,.182.021,2.707,2.707,0,0,1,2.429,2.227.81.81,0,0,1,.343-.075H22.3a.8.8,0,0,1,.182.021,2.756,2.756,0,0,1,2.484,2.484.762.762,0,0,1,.127,0h1.119a.8.8,0,0,1,.182.021c3.088.473,3.037,3.531,3.006,5.994,0,1.16.034,2.319.062,3.479a.834.834,0,0,1,0,.093c-.137,2.786-1.4,4.961-2.7,7.205l-.11.2a6.914,6.914,0,0,1-2,2.3,4.512,4.512,0,0,1-2.563.817H12.414a2.522,2.522,0,0,1-2.265-1.228,6.588,6.588,0,0,1-.9-2.772L3.2,29.093A10.98,10.98,0,0,1,1.99,27.034a5.854,5.854,0,0,1-.525-1.959,3.977,3.977,0,0,1,.281-1.908A2.3,2.3,0,0,1,3,21.939a2.831,2.831,0,0,1,1.626-.12,4.6,4.6,0,0,1,1.976.974c.491.4,1.3,1.071,2.09,1.716l.686.552Z" transform="translate(118.356 99.014)" fill="#fe5862"/></g></svg>