<svg xmlns="http://www.w3.org/2000/svg" width="31.657" height="26.044" viewBox="0 0 31.657 26.044"><g transform="translate(0 15)"><path d="M13.59,9.695a2.1,2.1,0,0,1,.317,1.09,2.034,2.034,0,0,1-.178.822,8.1,8.1,0,0,0-1.6-.567A4.038,4.038,0,0,0,13.59,9.695Zm-3.416,2.478a6.935,6.935,0,1,1-6.935,6.935,6.935,6.935,0,0,1,6.935-6.935Zm1.311,3.756h.848a.181.181,0,0,1,.185.175.164.164,0,0,1-.031.1l-3.434,5.99a.187.187,0,0,1-.162.093H8.043a.181.181,0,0,1-.185-.175.164.164,0,0,1,.031-.1l3.437-5.99a.177.177,0,0,1,.16-.093ZM6.237,17.578a1.909,1.909,0,0,1,.049-.42,1.813,1.813,0,0,1,.149-.4h0A1.4,1.4,0,0,1,6.7,16.4a1.416,1.416,0,0,1,.368-.26,1.834,1.834,0,0,1,.451-.16,2.338,2.338,0,0,1,.513-.052,2.233,2.233,0,0,1,.729.111,1.57,1.57,0,0,1,.577.343,1.5,1.5,0,0,1,.366.531l0,.01a1.921,1.921,0,0,1,0,1.322,1.453,1.453,0,0,1-.366.533,1.565,1.565,0,0,1-.577.34,2.233,2.233,0,0,1-.729.111,2.506,2.506,0,0,1-.513-.052,1.762,1.762,0,0,1-.451-.16l-.013-.008a1.487,1.487,0,0,1-.356-.255,1.4,1.4,0,0,1-.263-.358l-.005-.01A1.818,1.818,0,0,1,6.286,18l0-.005a1.884,1.884,0,0,1-.046-.417Zm1.51.008a1.672,1.672,0,0,0,.036.371.555.555,0,0,0,.09.211l0,.005a.161.161,0,0,0,.057.046.265.265,0,0,0,.1.018.173.173,0,0,0,.152-.064l0-.005a.555.555,0,0,0,.09-.211,1.672,1.672,0,0,0,.036-.371,1.623,1.623,0,0,0-.036-.366h0A.56.56,0,0,0,8.182,17h0a.124.124,0,0,0-.054-.044.266.266,0,0,0-.1-.018.226.226,0,0,0-.1.018h0a.149.149,0,0,0-.059.046h0a.574.574,0,0,0-.09.211l0,.005a1.818,1.818,0,0,0-.031.363Zm2.782,3.035a1.79,1.79,0,0,1,.2-.822,1.318,1.318,0,0,1,.26-.356,1.567,1.567,0,0,1,.368-.265l.01-.005a1.768,1.768,0,0,1,.443-.155,2.322,2.322,0,0,1,.513-.052,1.828,1.828,0,0,1,1.309.456,1.485,1.485,0,0,1,.366.533,1.938,1.938,0,0,1,0,1.335,1.453,1.453,0,0,1-.366.533,1.832,1.832,0,0,1-1.309.456,2.525,2.525,0,0,1-.513-.052,1.834,1.834,0,0,1-.451-.16h0a1.488,1.488,0,0,1-.368-.263,1.359,1.359,0,0,1-.26-.356,1.846,1.846,0,0,1-.2-.83Zm1.507.01a1.672,1.672,0,0,0,.036.371.569.569,0,0,0,.09.214v0h0a.124.124,0,0,0,.054.044.27.27,0,0,0,.1.018.2.2,0,0,0,.16-.064l.005-.005A.606.606,0,0,0,12.567,21a1.672,1.672,0,0,0,.036-.371,1.018,1.018,0,0,0-.126-.587A.129.129,0,0,0,12.418,20h0a.226.226,0,0,0-.1-.018.173.173,0,0,0-.152.064l-.008.01a.613.613,0,0,0-.085.206,1.672,1.672,0,0,0-.036.371Zm-8.4-6.642C1.474,13.371,0,12.168,0,10.784a2.11,2.11,0,0,1,.317-1.09c.752,1.26,2.777,2.228,5.284,2.486A8.342,8.342,0,0,0,3.64,13.989Zm27.7,1.134a2.11,2.11,0,0,1,.317,1.09c0,2.012-3.115,3.645-6.953,3.645s-6.953-1.633-6.953-3.645a2.11,2.11,0,0,1,.317-1.09c.884,1.481,3.522,2.556,6.636,2.556s5.753-1.074,6.636-2.556Zm-5.627-5.33-.013-.9a.766.766,0,0,0,.5-.185.62.62,0,0,0,.031-.917,1.037,1.037,0,0,0-.672-.255.939.939,0,0,0-.665.139.649.649,0,0,0-.26.484.915.915,0,0,0,.283.724l-.17.719-2.4-.672.206-2.375.84.072-.147,1.7.783.209a1.372,1.372,0,0,1-.1-.629,1.345,1.345,0,0,1,.523-.974,1.566,1.566,0,0,1,1.164-.317,1.688,1.688,0,0,1,1,.425,1.494,1.494,0,0,1,.51,1.322,1.578,1.578,0,0,1-.441,1.028,1.424,1.424,0,0,1-.979.41ZM24.7,6.173c3.156,0,5.714,1,5.714,2.241S27.86,10.655,24.7,10.655s-5.714-1-5.714-2.241S21.548,6.173,24.7,6.173Zm0-.745c3.839,0,6.953,1.633,6.953,3.645s-3.115,3.645-6.953,3.645-6.953-1.633-6.953-3.645S20.865,5.428,24.7,5.428Zm6.662,6.077a2.083,2.083,0,0,1,.291,1.046c0,2.012-3.115,3.645-6.953,3.645s-6.953-1.631-6.953-3.645a2.1,2.1,0,0,1,.291-1.046c.858,1.5,3.517,2.6,6.662,2.6s5.8-1.095,6.662-2.6ZM9.465,2.161l-.08.9-3.414-.3A3.122,3.122,0,0,1,6.557,4l-.822-.072a2.621,2.621,0,0,0-.371-.806,1.683,1.683,0,0,0-.708-.636l.064-.734,4.745.412ZM6.953.742c3.156,0,5.714,1,5.714,2.241S10.109,5.225,6.953,5.225s-5.714-1-5.714-2.241S3.8.742,6.953.742Zm0-.742c3.839,0,6.953,1.631,6.953,3.645S10.792,7.291,6.953,7.291,0,5.657,0,3.645,3.115,0,6.953,0Zm6.662,6.075a2.083,2.083,0,0,1,.291,1.046c0,2.012-3.115,3.645-6.953,3.645S0,9.133,0,7.121A2.109,2.109,0,0,1,.291,6.075c.858,1.5,3.517,2.6,6.662,2.6s5.8-1.1,6.662-2.6ZM2.064,20.87A3.2,3.2,0,0,1,0,18.281a2.125,2.125,0,0,1,.361-1.159A4.21,4.21,0,0,0,1.9,18.464q-.023.317-.023.641a8.106,8.106,0,0,0,.185,1.765ZM2.12,17.1C.814,16.437,0,15.507,0,14.479a2.114,2.114,0,0,1,.327-1.105,4.973,4.973,0,0,0,2.52,1.834A8.185,8.185,0,0,0,2.12,17.1Z" transform="translate(0 -15)" fill="#383838" fill-rule="evenodd"/></g></svg>