<svg xmlns="http://www.w3.org/2000/svg" width="22.386" height="22.371" viewBox="0 0 22.386 22.371"><g transform="translate(0 0)"><path d="M15.476.833A11.195,11.195,0,1,1,0,11.177,11.373,11.373,0,0,1,6.967.76a11.781,11.781,0,0,1,8.51.073Zm-6,10.045a1.917,1.917,0,0,1,.494-.384V5.624a.9.9,0,0,1,1.8,0v4.87a1.909,1.909,0,0,1,.774.774h3.695a.9.9,0,0,1,0,1.8H12.539a1.9,1.9,0,1,1-3.068-2.186Zm8.366-6.17A9.4,9.4,0,0,0,2.667,7.222a9.4,9.4,0,1,0,16.981-.153,8.657,8.657,0,0,0-1.811-2.361Z" transform="translate(0 0)" fill="#fe5862"/></g></svg>