<svg xmlns="http://www.w3.org/2000/svg" width="133.993" height="28.314" viewBox="0 0 133.993 28.314"><g transform="translate(-381.221 -85.457)"><g transform="translate(480.301 85.457)"><path d="M1659.032,201.113v4.5s-8.842,2.026-12.315,3.474c0,0-5.684,2.289-5.526,4.737,0,0,.158,2.053,4.579,1.658l.079,4.816s-9.473.158-9.552-6.158C1636.3,214.139,1634.954,204.744,1659.032,201.113Z" transform="translate(-1636.283 -191.983)" fill="#bf0015"/><path d="M1780.369,175.657v-4.895a97.944,97.944,0,0,0,12.19-3.947s6.592-3.077,6.434-5.524c0,0-.223-1.449-4.644-1.054l-.013-5.419s9.118-.791,9.552,6.158C1803.888,160.975,1805.454,169.92,1780.369,175.657Z" transform="translate(-1768.994 -149.317)" fill="#f48400"/><path d="M1688.489,157.975a3.184,3.184,0,1,1-3.184-3.184A3.184,3.184,0,0,1,1688.489,157.975Z" transform="translate(-1678.502 -149.317)" fill="#bf0015"/><path d="M1785.155,117.975a3.184,3.184,0,1,1-3.184-3.184A3.184,3.184,0,0,1,1785.155,117.975Z" transform="translate(-1767.537 -112.475)" fill="#f48400"/><path d="M1878.488,88.641a3.184,3.184,0,1,1-3.184-3.184A3.184,3.184,0,0,1,1878.488,88.641Z" transform="translate(-1853.502 -85.457)" fill="#f48400"/></g><path d="M784.261,187.447a2.765,2.765,0,0,1-.129.5q-.088.243-.29.677t-.243.5q-.166.259-.29.259-.093-.062-.165-.119a.225.225,0,0,0-.134-.057,1.647,1.647,0,0,0-.682.212,4.217,4.217,0,0,0-.931.677,5.608,5.608,0,0,0-.791.869,1.3,1.3,0,0,0-.284.558.437.437,0,0,0,.145.352,2.03,2.03,0,0,0,.445.217,1.831,1.831,0,0,1,.424.207,1.067,1.067,0,0,1,.341.931,7.929,7.929,0,0,1-.362,2.2,8.134,8.134,0,0,1-.951,2.146,7.658,7.658,0,0,1-.7.848,4.757,4.757,0,0,1-.869.724,3.621,3.621,0,0,1-2.047.589,2.438,2.438,0,0,1-2-.889,2.755,2.755,0,0,1-.429-.941,4.04,4.04,0,0,1-.119-.941,7.351,7.351,0,0,1,.083-1.112,7.022,7.022,0,0,1,.258-1.091,13.171,13.171,0,0,1,.651-1.717q.383-.827.621-1.334l.486-1.034q.083-.176.176-.341t.165-.165q.1,0,.109.165a.541.541,0,0,1-.036.248q-.114.3-.2.5t-.248.584l-.357.827-.315.734a7.67,7.67,0,0,0-.61,2.42,1.648,1.648,0,0,0,.6,1.344,2.612,2.612,0,0,0,1.7.5,3.885,3.885,0,0,0,1.758-.424,3.742,3.742,0,0,0,1.055-.776,4.529,4.529,0,0,0,.646-.853,1.5,1.5,0,0,0,.222-.719q0-.2-.295-.289t-.424-.124a1.394,1.394,0,0,1-.295-.114,1.242,1.242,0,0,1-.486-.388,1.079,1.079,0,0,1-.165-.636,4.192,4.192,0,0,1,.4-1.551,7.974,7.974,0,0,1,1.122-1.851,12.012,12.012,0,0,1,1.075-1.21q.258-.238.662-.543a7.229,7.229,0,0,1,.786-.522,2.339,2.339,0,0,1,.734-.31.154.154,0,0,1,.155.093A.267.267,0,0,1,784.261,187.447Z" transform="translate(-361.954 -93.691)" fill="#161615"/><path d="M830.069,295.056a5.4,5.4,0,0,1-.212,1.013q-.2.734-.527,1.6a10.207,10.207,0,0,1-.574,1.313,2.239,2.239,0,0,1-.543.677,2.889,2.889,0,0,1-.951.424,9.808,9.808,0,0,1-1.055.259,4.219,4.219,0,0,1-.5.067c-.069-.007-.11-.034-.124-.083a.23.23,0,0,1,.062-.186,1.961,1.961,0,0,1,.574-.46q.46-.284,1.07-.714a4.389,4.389,0,0,0,.869-.75,5.72,5.72,0,0,0,.584-.962q.326-.641.59-1.293t.377-.889q.114-.238.248-.228Q830.069,294.87,830.069,295.056Z" transform="translate(-409.276 -192.861)" fill="#161615"/><path d="M866.453,303.576a7.557,7.557,0,0,1-.672,1.479,2.192,2.192,0,0,1-.486.589,2.783,2.783,0,0,1-.527.243q-.352.129-1.07.362a4.849,4.849,0,0,1-.853.233c-.055,0-.083-.014-.083-.041q-.083-.114.858-.745t1.215-.827a2.693,2.693,0,0,0,.558-.574,2.561,2.561,0,0,0,.419-.853.484.484,0,0,0-.295.057.639.639,0,0,1-.295.078.949.949,0,0,1-.641-.248.582.582,0,0,1-.217-.527q.041-.176.119-.409a6.871,6.871,0,0,1,.326-.739,5,5,0,0,1,.5-.838.68.68,0,0,1,.5-.331.868.868,0,0,1,.708.362,1.364,1.364,0,0,1,.284.869,4.194,4.194,0,0,1-.031.512q-.031.254-.067.424t-.1.434Q866.535,303.348,866.453,303.576Z" transform="translate(-443.519 -198.052)" fill="#161615"/><path d="M893.166,216.747a3.559,3.559,0,0,0,1.417-.279,4.274,4.274,0,0,0,.7-.383q.32-.217.429-.284a.368.368,0,0,1,.181-.067q.062,0,.057.109a.539.539,0,0,1-.1.253,3.777,3.777,0,0,1-.543.729,4.512,4.512,0,0,1-.843.708,6.472,6.472,0,0,1-1.355.693,4.2,4.2,0,0,1-1.5.176,3.123,3.123,0,0,1-.636-.114,4.654,4.654,0,0,0-.672-.14,1.62,1.62,0,0,0-.7.036,1.892,1.892,0,0,0-.517.238q-.212.145-.393.295t-.274.088q-.052-.072.088-.321a3.013,3.013,0,0,1,.367-.507,4.85,4.85,0,0,1,1.127-1,2.43,2.43,0,0,1,1.251-.465,9.048,9.048,0,0,1,1.044.165A5.147,5.147,0,0,0,893.166,216.747Z" transform="translate(-467.145 -119.992)" fill="#161615"/><path d="M937.781,303.576a7.54,7.54,0,0,1-.672,1.479,2.191,2.191,0,0,1-.486.589,2.787,2.787,0,0,1-.527.243q-.352.129-1.07.362a4.853,4.853,0,0,1-.853.233q-.083,0-.083-.041-.083-.114.858-.745t1.215-.827a2.7,2.7,0,0,0,.558-.574,2.563,2.563,0,0,0,.419-.853.484.484,0,0,0-.295.057.639.639,0,0,1-.295.078.95.95,0,0,1-.641-.248.583.583,0,0,1-.217-.527q.041-.176.119-.409a6.867,6.867,0,0,1,.326-.739,5.015,5.015,0,0,1,.5-.838.68.68,0,0,1,.5-.331.868.868,0,0,1,.708.362,1.364,1.364,0,0,1,.284.869,4.219,4.219,0,0,1-.031.512q-.031.254-.067.424t-.1.434Q937.863,303.348,937.781,303.576Z" transform="translate(-509.216 -198.052)" fill="#161615"/><path d="M976.47,224.129a4.993,4.993,0,0,0-.1-.548,1.991,1.991,0,0,1-.021-.279q0-.248.476-.424a1.388,1.388,0,0,0,.393-.29.843.843,0,0,0,.269-.383,1.016,1.016,0,0,0,.021-.279q-.011-.124-.031-.341a1.808,1.808,0,0,1-.021-.31.812.812,0,0,1,.021-.2q.021-.124.848-2.027c.069-.041.114-.041.134,0a.647.647,0,0,1,.031.248l-.021,1.634a3.978,3.978,0,0,1-.4,1.665,5.078,5.078,0,0,1-.657,1.091q-.274.305-.574.6Q976.563,224.76,976.47,224.129Zm.589-7.3a3.1,3.1,0,0,1,.388-.988q.388-.76.5-.76.227-.093.662.346a1.472,1.472,0,0,1,.465.688,2.149,2.149,0,0,1-.362.951q-.362.621-.527.62-.062-.031-.429-.274t-.543-.367Q977.06,216.948,977.059,216.834Z" transform="translate(-548.143 -119.381)" fill="#161615"/><path d="M1011.014,303.576a7.551,7.551,0,0,1-.672,1.479,2.191,2.191,0,0,1-.486.589,2.783,2.783,0,0,1-.527.243q-.352.129-1.07.362a4.846,4.846,0,0,1-.853.233c-.055,0-.083-.014-.083-.041q-.083-.114.858-.745t1.215-.827a2.693,2.693,0,0,0,.558-.574,2.561,2.561,0,0,0,.419-.853.484.484,0,0,0-.295.057.639.639,0,0,1-.295.078.95.95,0,0,1-.641-.248.583.583,0,0,1-.217-.527q.041-.176.119-.409a6.891,6.891,0,0,1,.326-.739,5.006,5.006,0,0,1,.5-.838.68.68,0,0,1,.5-.331.868.868,0,0,1,.708.362,1.364,1.364,0,0,1,.284.869,4.194,4.194,0,0,1-.031.512q-.031.254-.067.424t-.1.434Q1011.1,303.348,1011.014,303.576Z" transform="translate(-576.668 -198.052)" fill="#161615"/><path d="M1055.89,356.551a2.54,2.54,0,0,0-1.582.372.116.116,0,0,1-.155.005q-.072-.057.041-.315a3.968,3.968,0,0,1,.6-.864,4.04,4.04,0,0,1,1.091-.9A2.424,2.424,0,0,1,1055.89,356.551Z" transform="translate(-619.781 -248.121)" fill="#161615"/><path d="M1080.875,327.9a1.672,1.672,0,0,1-.5.362,1.285,1.285,0,0,1-.517.1,2.279,2.279,0,0,1-.352-.031,1.5,1.5,0,0,1-.32-.072l-.724.61-.631.548a2.419,2.419,0,0,1-1.427.445,1.658,1.658,0,0,1-.574-.093,3.547,3.547,0,0,0-.388-.124q-.031-.134-.057-.336a4.214,4.214,0,0,1-.031-.434q-.005-.233.01-.476a2.175,2.175,0,0,1,.078-.46,1.816,1.816,0,0,1,.776-.2,2.6,2.6,0,0,1,.765.124,1.339,1.339,0,0,0,.465.052,1.9,1.9,0,0,0,.848-.165q.331-.165.331-.362,0-.465-.155-.589a.66.66,0,0,0-.445-.114q-.465.052-.393.041-.114-.031-.062-.124a1.125,1.125,0,0,1,.424-.486,2.792,2.792,0,0,1,.455-.279,4,4,0,0,1,.434-.145,2.25,2.25,0,0,1,.579-.062,2.162,2.162,0,0,1,.7.124.463.463,0,0,1,.341.465,1.019,1.019,0,0,1-.124.393,3.107,3.107,0,0,1-.341.558q0,.073.2.072a.7.7,0,0,0,.259-.041,1.574,1.574,0,0,0,.372-.176q.041.041.124.145a.441.441,0,0,1,.052.2.852.852,0,0,1-.052.259Q1080.916,327.816,1080.875,327.9Z" transform="translate(-639.338 -221.216)" fill="#161615"/><path d="M1144.765,307.227a3.8,3.8,0,0,0,.558-.569,2.289,2.289,0,0,0,.269-.434,3.506,3.506,0,0,0,.351.041.525.525,0,0,0,.471-.248,4.461,4.461,0,0,0,.233-.393,2.274,2.274,0,0,1,.166-.279c.027-.021.076-.012.145.026a.212.212,0,0,0,.2.016,1.308,1.308,0,0,0,.465-.621q.052-.1.114-.207.052-.083.1-.062.062,0,.062.145a1.587,1.587,0,0,1-.093.445,2.572,2.572,0,0,1-.589,1.1,4.561,4.561,0,0,1-.755.682,2.368,2.368,0,0,1-.693.553q-.279.119-.289.119l-1.2.889a1.62,1.62,0,0,1-.083-.434.977.977,0,0,1,.083-.434Z" transform="translate(-702.742 -201.744)" fill="#161615"/><path d="M1192.883,303.576a7.539,7.539,0,0,1-.672,1.479,2.189,2.189,0,0,1-.486.589,2.782,2.782,0,0,1-.527.243q-.352.129-1.07.362a4.847,4.847,0,0,1-.853.233q-.083,0-.083-.041-.083-.114.858-.745t1.215-.827a2.7,2.7,0,0,0,.558-.574,2.561,2.561,0,0,0,.419-.853.484.484,0,0,0-.295.057.639.639,0,0,1-.295.078.949.949,0,0,1-.641-.248.583.583,0,0,1-.217-.527q.041-.176.119-.409a6.874,6.874,0,0,1,.326-.739,5,5,0,0,1,.5-.838.68.68,0,0,1,.5-.331.868.868,0,0,1,.708.362,1.364,1.364,0,0,1,.284.869,4.194,4.194,0,0,1-.031.512q-.031.254-.067.424t-.1.434Q1192.965,303.348,1192.883,303.576Z" transform="translate(-744.179 -198.052)" fill="#161615"/><path d="M1227.91,214.091a4.038,4.038,0,0,1,.424-.931q.424-.8.517-.8.176-.072.512.253a4.326,4.326,0,0,1,.512.574q.207-.341.46-.765t.336-.424a.964.964,0,0,1,.615.377,1.191,1.191,0,0,1,.377.708,1.7,1.7,0,0,1-.383.931q-.372.527-.548.527-.114,0-.414-.3a4.684,4.684,0,0,0-.527-.465q-.558,1.127-.889,1.127a.444.444,0,0,1-.238-.134q-.145-.124-.45-.372T1227.91,214.091Zm.4,7.213a4.993,4.993,0,0,0-.1-.548,1.973,1.973,0,0,1-.021-.279q0-.248.476-.424a1.386,1.386,0,0,0,.393-.29.841.841,0,0,0,.269-.383,1.016,1.016,0,0,0,.021-.279q-.011-.124-.031-.341a1.808,1.808,0,0,1-.021-.31.812.812,0,0,1,.021-.2q.021-.124.848-2.027.1-.062.134,0a.644.644,0,0,1,.031.248l-.021,1.634a3.98,3.98,0,0,1-.4,1.665,5.077,5.077,0,0,1-.657,1.091q-.274.305-.574.6Q1228.406,221.934,1228.313,221.3Z" transform="translate(-779.848 -116.555)" fill="#161615"/><path d="M1296.142,278.288a3.148,3.148,0,0,0-.61.052,1.142,1.142,0,0,0-.5.279,2.924,2.924,0,0,0-.507.579q-.124.186-.253.367t-.253.367a2.747,2.747,0,0,1-.693.662,7.377,7.377,0,0,1-2.833,1.138,19.027,19.027,0,0,1-4.085.4,14.362,14.362,0,0,1-1.582-.083,2.724,2.724,0,0,1-1.251-.341,1.6,1.6,0,0,1-.651-1.479,8.927,8.927,0,0,1,.114-1.406q.1-.776.238-.776.083,0,.155.476a1.156,1.156,0,0,0,.336.745,2.115,2.115,0,0,0,.92.434,8.064,8.064,0,0,0,1.846.176q.993.021,2.229-.036t2.006-.16a12.233,12.233,0,0,0,1.887-.445,6.911,6.911,0,0,0,1.22-.47,2.95,2.95,0,0,0,.765-.543,3.626,3.626,0,0,0,.279-.357,4.633,4.633,0,0,1,.4-.491,1.513,1.513,0,0,1,.817-.445.676.676,0,0,1,.29.693A1.752,1.752,0,0,1,1296.142,278.288Zm-9.462-2.306a4.032,4.032,0,0,1,.424-.931q.424-.8.517-.8.176-.072.512.253a4.318,4.318,0,0,1,.512.574q.207-.341.46-.765t.336-.424a.964.964,0,0,1,.615.377,1.192,1.192,0,0,1,.378.708,1.7,1.7,0,0,1-.383.931q-.372.527-.548.527-.114,0-.414-.3a4.665,4.665,0,0,0-.527-.465q-.558,1.127-.889,1.127a.444.444,0,0,1-.238-.134q-.145-.124-.45-.372T1286.68,275.982Z" transform="translate(-830.52 -173.56)" fill="#161615"/><path d="M1448.994,108.656a2.612,2.612,0,0,1-.114-.677,1.81,1.81,0,0,1,.114-.677,1.771,1.771,0,0,1,.532.083q.264.083.419-.341a2.889,2.889,0,0,0,.145-.672,6.724,6.724,0,0,0,.062-.786l-.021-2.875.486-1.52.362-1.086q.072-.165.145-.041a.988.988,0,0,1,.021.279q0,.445-.041.941-.031.558-.062,1.024-.083,2.689-.155,3.278a6.352,6.352,0,0,1-.227,1.117,4.2,4.2,0,0,1-.4.9,6.051,6.051,0,0,1-.538.755.744.744,0,0,1-.517.341A.524.524,0,0,1,1448.994,108.656Zm3.061-10.217a23.376,23.376,0,0,1,1.985-1.737q1.231-.962,2.709-2.172.92-.765,1.861-1.634.506-.476,1.675-1.6,1.592-1.541,1.592-1.572a.669.669,0,0,1-.041.2,4.5,4.5,0,0,1-.4.889,8.131,8.131,0,0,1-.579.879q-.269.362-.724.879-.538.579-.631.672-.269.269-1.076.993-.29.259-.719.631t-1,.848q-.775.662-1.437,1.169-.879.693-1.7,1.293l-1.458,1.138q-.155.135-.31.253l-.29.222q-.289.238-.331.165a6.373,6.373,0,0,1,.383-.848A2.938,2.938,0,0,1,1452.055,98.439Z" transform="translate(-983.373 -3.928)" fill="#161615"/><path d="M1413.115,300.467a.99.99,0,0,1,.222-.072l.222-.041a1.474,1.474,0,0,1,.259.548,1.858,1.858,0,0,1,.041.548,2.081,2.081,0,0,1-.109.522,3.879,3.879,0,0,1-.191.46,3.192,3.192,0,0,0-.419-.021,2.362,2.362,0,0,0-.615.093,5.621,5.621,0,0,0-.827.331,4.175,4.175,0,0,0-1.277,1.075q-.512.651-1.231,1.66a12.92,12.92,0,0,1-1.463,1.737,11.659,11.659,0,0,1-1.23,1.081q-.486.351-.9.595a7.127,7.127,0,0,1-.889.439.8.8,0,0,1-.1.041c-.048.021-.1.041-.165.062a.306.306,0,0,1-.29,0q-.031-.052.093-.2a5.949,5.949,0,0,1,.589-.507,13.826,13.826,0,0,0,1.122-.822,12.065,12.065,0,0,0,1.282-1.21,11.284,11.284,0,0,0,1.246-1.639q.279-.372.527-.776.92-1.334,1.189-1.655a7.824,7.824,0,0,1,1.52-1.489A6.312,6.312,0,0,1,1413.115,300.467Z" transform="translate(-942.168 -197.931)" fill="#161615"/><path d="M1520.2,201.148q-.445,1.1-.8,1.117a2.01,2.01,0,0,0-.445.067,1.284,1.284,0,0,0-.4.191,2.232,2.232,0,0,0-.46.507,12.926,12.926,0,0,1-1.215,1.836,1.058,1.058,0,0,1-.884.295,3.56,3.56,0,0,1,0-2.079,4.1,4.1,0,0,1,.812-.067l.4.005q.217,0,.445-.31.093-.124.321-.445.134-.186.465-.589a1.307,1.307,0,0,1,.683-.486,2.719,2.719,0,0,1,.61-.083q.145-.217.264-.419a.642.642,0,0,1,.2-.243c.083-.041.131.01.145.155A1.923,1.923,0,0,1,1520.2,201.148Zm-4.834-2.019a4.174,4.174,0,0,1,.476-.967q.476-.832.579-.832a1.138,1.138,0,0,1,.569.305,1.806,1.806,0,0,1,.517.584q.238-.383.465-.745.321-.507.4-.507a1.137,1.137,0,0,1,.672.362,1.122,1.122,0,0,1,.4.745,1.829,1.829,0,0,1-.4.962q-.4.569-.589.569-.145,0-.414-.269a4.066,4.066,0,0,0-.61-.538q-.61,1.179-.951,1.179a2.383,2.383,0,0,1-.6-.388Q1515.366,199.2,1515.366,199.129Zm1.013-2.616a4.847,4.847,0,0,1,.419-.941q.419-.827.543-.827a1.043,1.043,0,0,1,.682.362,1.155,1.155,0,0,1,.383.765,2.137,2.137,0,0,1-.351.962q-.352.61-.517.61-.1,0-.445-.29a6.379,6.379,0,0,0-.527-.414Q1516.379,196.616,1516.379,196.512Z" transform="translate(-1044.61 -100.659)" fill="#161615"/><path d="M918.683,266.018q-.021.744-.031,1.344a9.678,9.678,0,0,1-.062,1.013,6.091,6.091,0,0,1-.341,1.577,5.4,5.4,0,0,1-.409.915,2.97,2.97,0,0,1-.243.331c-.076.069-.134.091-.176.067a.1.1,0,0,1-.041-.119q0-.021.124-.626a8.02,8.02,0,0,0,.155-1.174q.031-.569.01-1.608a11.3,11.3,0,0,1,.052-1.587,4.438,4.438,0,0,1,.14-.662q.1-.341.222-.672t.264-.626q.14-.295.253-.522.093-.145.165-.114a.1.1,0,0,1,.062.114,3.2,3.2,0,0,0-.047.388q-.026.305-.047.682t-.036.739Q918.683,265.842,918.683,266.018Z" transform="translate(-493.828 -164.035)" fill="#161615"/><g transform="translate(381.221 89.415)"><path d="M413.125,206.511c-.044.008-.092.06-.13.151a4.435,4.435,0,0,1-.253.581.9.9,0,0,1-.407.4.211.211,0,0,1-.135.039.179.179,0,0,1-.138-.06c-.046-.039-.077-.057-.1-.057-.214.214-.4.417-.56.612a.944.944,0,0,1-.64.286.267.267,0,0,1-.3-.175.273.273,0,0,0-.294-.177c-.581,0-1.377.535-2.373,1.6V209.7c-.32.341-.588.646-.8.914a.7.7,0,0,0-.209-.437.781.781,0,0,0-.562-.247c-.369.008-.776.321-1.2.945a8.248,8.248,0,0,0-.836,1.651c-.282.784-.43,1.18-.443,1.2a1.863,1.863,0,0,1-.575.508,17.493,17.493,0,0,1-5.812,2.461,28.427,28.427,0,0,1-6.931.781,13.776,13.776,0,0,1-2.672-.221,10.371,10.371,0,0,1-1.519-.424,3.887,3.887,0,0,0-.862-.229,1.075,1.075,0,0,0-.854.463c-.026.047-.19.341-.477.88a18.971,18.971,0,0,1-.966,1.711,7.8,7.8,0,0,1-1.213,1.2c-.425.357-.638.607-.638.737,0,.07.064.1.182.1a1.606,1.606,0,0,0,.37-.057,2.241,2.241,0,0,0,1.026-.477,6.293,6.293,0,0,0,.815-1.4c.3-.594.463-.927.5-1,.15-.263.294-.4.417-.406a1,1,0,0,1,.45.2,3.272,3.272,0,0,0,.888.463,13.189,13.189,0,0,0,4.533.658h.047v0a20.738,20.738,0,0,0,5.916-.951,22.844,22.844,0,0,0,6.927-3.312c.836-.581,1.411-.966,1.71-1.135a9.109,9.109,0,0,1,1.057-.391,17.25,17.25,0,0,0,1.93-.723,2.334,2.334,0,0,0,.731-.667,1.881,1.881,0,0,0,.56-1.135.889.889,0,0,0-.331-.677,1.164,1.164,0,0,0-.765-.295,1.186,1.186,0,0,0-.436.091c.013-.02.025-.037.037-.057v0a2.633,2.633,0,0,1,1.682-1.049.542.542,0,0,1,.407.169.525.525,0,0,0,.437.161,1.178,1.178,0,0,0,.764-.318,4.609,4.609,0,0,1,.659-.45,1.993,1.993,0,0,0,.932-.836,2.764,2.764,0,0,0,.521-1.427C413.2,206.571,413.176,206.519,413.125,206.511Zm-9.008,7.078q.625-1.437.881-1.872c.229-.357.463-.542.705-.542a.717.717,0,0,1,.45.146.373.373,0,0,1,.175.292c-.014.169-.279.484-.807.935A8.5,8.5,0,0,1,404.117,213.589Zm4.117-1.846c.169.078.256.159.256.242,0,.151-.419.43-1.253.836-.594.279-1.2.56-1.8.833l1.1-1.6a1.844,1.844,0,0,1,1.167-.451A1.506,1.506,0,0,1,408.234,211.743Z" transform="translate(-381.221 -200.913)" fill="#161615"/><path d="M737.588,137.38c.112.078.221.148.327.214.109.1.221.19.331.281a.355.355,0,0,0,.238.125c.1.005.26-.164.474-.515a1.731,1.731,0,0,0,.34-.88,1.01,1.01,0,0,0-.372-.68.975.975,0,0,0-.628-.325c-.064,0-.226.247-.495.737a4.812,4.812,0,0,0-.391.841C737.418,137.242,737.479,137.315,737.588,137.38Z" transform="translate(-709.294 -135.599)" fill="#161615"/><path d="M725.039,162.632a3.007,3.007,0,0,0,.586.367q.353,0,.959-1.117a3.918,3.918,0,0,1,.633.5c.184.169.315.253.4.253.13,0,.32-.174.581-.515a1.633,1.633,0,0,0,.419-.933,1.017,1.017,0,0,0-.412-.69,1.143,1.143,0,0,0-.667-.359c-.044.006-.187.17-.411.49-.148.227-.3.464-.455.685a2.1,2.1,0,0,0-.521-.523,1.178,1.178,0,0,0-.581-.292c-.064,0-.25.266-.567.789a4.367,4.367,0,0,0-.477.919A2.244,2.244,0,0,0,725.039,162.632Z" transform="translate(-697.422 -158.198)" fill="#161615"/></g></g></svg>