<svg xmlns="http://www.w3.org/2000/svg" width="35.546" height="22.968" viewBox="0 0 35.546 22.968">
  <path id="followers-friends-icon" d="M22.154,17.027A.984.984,0,0,0,22.21,15.7c-.563-.773-1.073-1.316-1.584-2.131a2.723,2.723,0,0,1-.564-1.418,1.006,1.006,0,0,1,.661-1.009,27.013,27.013,0,0,1-.039-2.827,3.773,3.773,0,0,1,2.661-3.166c.563-.214.292-1.069.913-1.088a8.109,8.109,0,0,1,4.779,2.214,3.682,3.682,0,0,1,.952,2.39l-.059,2.574a.72.72,0,0,1,.525.525,2.159,2.159,0,0,1-.272,1.341c0,.019-.019.019-.019.039A30.174,30.174,0,0,1,28.253,15.7c-.966,1.288,1.711,2.4,2.615,2.64,2.027.528,4.187.458,4.647,4.1a1,1,0,0,1,.031.242.287.287,0,0,1-.287.287H24.6a1.888,1.888,0,0,0,.033-.351,2.787,2.787,0,0,0-.028-.351l-.042-.245c-.379-2.872-1.236-4.237-2.412-5ZM.351,22.971A.35.35,0,0,1,0,22.62a1.217,1.217,0,0,1,.038-.3c.562-4.45,2.533-4.369,5-5.008,1.19-.307,3.55-1.495,3.264-3.028a3.741,3.741,0,0,1-1.3-2.463H6.938a.973.973,0,0,1-.476-.124,1.369,1.369,0,0,1-.6-.958c-.183-1.251-.23-1.891.438-2.17l.006,0c-.083-1.545.178-3.818-1.408-4.3C8.033.4,11.643-1.7,14.354,1.742c3.021.158,4.368,4.436,2.492,6.832h-.08c.668.278.567,1,.439,2.17a1.371,1.371,0,0,1-.6.958.975.975,0,0,1-.476.124H16.06a3.739,3.739,0,0,1-1.3,2.463c-.287,1.535,2.076,2.722,3.266,3.028,2.47.638,4.441.558,5,5.008a1.251,1.251,0,0,1,.037.3.35.35,0,0,1-.351.351Z" transform="translate(0 -0.003)" fill="#383838" fill-rule="evenodd"/>
</svg>
