<svg xmlns="http://www.w3.org/2000/svg" width="88" height="76.795" viewBox="0 0 88 76.795">
  <g id="Group_19350" data-name="Group 19350" transform="translate(-79.486 -64.206)">
    <path id="business-loan" d="M7.154,13.871h6.186V42.19c-.551,0-1.109-.047-1.674-.047A24.756,24.756,0,0,0,.41,44.711L0,44.933V21.018a7.167,7.167,0,0,1,7.154-7.147ZM22.3,67.658a3.362,3.362,0,0,1,.511,1.748c0,3.227-5,5.849-11.148,5.849S.518,72.613.518,69.386a3.476,3.476,0,0,1,.5-1.748c1.425,2.38,5.648,4.1,10.643,4.1s9.225-1.721,10.637-4.1Zm32.044-2.078a4.135,4.135,0,0,1,.625,2.145c0,3.953-6.118,7.16-13.662,7.16s-13.662-3.207-13.662-7.16a4.169,4.169,0,0,1,.625-2.145c1.741,2.911,6.918,5.022,13.037,5.022S52.618,68.492,54.346,65.581Zm0-8.66a4.135,4.135,0,0,1,.625,2.145c0,3.953-6.118,7.167-13.662,7.167S27.647,63,27.647,59.045a4.189,4.189,0,0,1,.625-2.145c1.741,2.938,6.918,5.022,13.037,5.022S52.618,59.839,54.346,56.9ZM46.278,38.882l-.161,1.775-6.723-.585a6.132,6.132,0,0,1,1.15,2.414l-1.627-.128a5.332,5.332,0,0,0-.726-1.587A3.268,3.268,0,0,0,36.8,39.527l.128-1.439,9.319.807ZM41.343,36.1c6.2,0,11.228,1.977,11.228,4.4s-5.029,4.4-11.228,4.4-11.228-2.017-11.228-4.4S35.144,36.1,41.343,36.1Zm0-1.466C48.886,34.633,55,37.846,55,41.8s-6.118,7.16-13.662,7.16-13.7-3.241-13.7-7.181,6.118-7.167,13.662-7.167ZM54.393,48.5a4.135,4.135,0,0,1,.578,2.057c0,3.953-6.118,7.16-13.662,7.16s-13.662-3.207-13.662-7.16a4.034,4.034,0,0,1,.592-2.057c1.681,2.952,6.9,5.11,13.084,5.11s11.43-2.158,13.084-5.11Zm-38.7,4.417-.134,1.452-5.473-.477a5,5,0,0,1,.935,1.97l-1.345-.114a4.148,4.148,0,0,0-.558-1.284,2.689,2.689,0,0,0-1.136-1.022l.087-1.183,7.611.672Zm-4.034-2.273c5.056,0,9.164,1.614,9.164,3.6s-4.1,3.584-9.157,3.584S2.5,56.215,2.5,54.238s4.108-3.6,9.164-3.6Zm0-1.19c6.152,0,11.148,2.615,11.148,5.843s-5,5.849-11.148,5.849S.518,58.494.518,55.294s5-5.843,11.148-5.843ZM22.342,60.78a3.362,3.362,0,0,1,.471,1.681c0,3.221-5,5.843-11.148,5.843S.518,65.682.518,62.461A3.294,3.294,0,0,1,.988,60.78c1.345,2.407,5.628,4.169,10.677,4.169S20.97,63.2,22.342,60.78ZM33.9,0H48.14a8.068,8.068,0,0,1,8.068,8.068v4.3h-5.15v-4.3a2.831,2.831,0,0,0-2.824-2.824H33.806a2.831,2.831,0,0,0-2.824,2.824v4.316h-5.13V8.068A8.068,8.068,0,0,1,33.92,0ZM17.589,13.871H64.075V43.03c-.672.182-1.345.383-1.943.612a11.349,11.349,0,0,0,.148-1.862c0-4.9-3.032-8.949-7.94-11.517A28.6,28.6,0,0,0,41.309,27.3a28.6,28.6,0,0,0-13.03,2.952c-4.9,2.568-7.94,6.616-7.94,11.517a11.349,11.349,0,0,0,.155,1.862,24.79,24.79,0,0,0-2.9-.847V13.877Zm50.735,0h7.14a7.174,7.174,0,0,1,7.154,7.154V44.933l-.41-.222a24.756,24.756,0,0,0-11.255-2.568,26.074,26.074,0,0,0-2.629.128Z" transform="translate(79.486 64.206)" fill="#fe5862" fill-rule="evenodd"/>
    <g id="Group_19349" data-name="Group 19349" transform="translate(-43 34.265)">
      <circle id="Ellipse_105" data-name="Ellipse 105" cx="16" cy="16" r="16" transform="translate(178.486 74.736)" fill="#fe5862"/>
      <path id="chat-question" d="M30.343,29.117H25.789a13.458,13.458,0,0,1,.258-3.228,4.147,4.147,0,0,1,.786-1.32,22.721,22.721,0,0,1,2.337-2.106c.649-.55.968-1.012.968-1.446a1.353,1.353,0,0,0-.39-1.028,1.694,1.694,0,0,0-1.177-.357,1.886,1.886,0,0,0-1.4.55,3.256,3.256,0,0,0-.715,1.958l-4.636-.55a6.308,6.308,0,0,1,1.853-4.119,6.942,6.942,0,0,1,4.95-1.556,7.392,7.392,0,0,1,4.207,1.1,4.537,4.537,0,0,1,2.2,3.927,3.8,3.8,0,0,1-.55,1.963,9.581,9.581,0,0,1-2.293,2.3,6.226,6.226,0,0,0-1.529,1.54,7.8,7.8,0,0,0-.313,2.4Zm.165,1.65v3.349H25.64V30.761Z" transform="translate(165.931 65.857)" fill="#fff" fill-rule="evenodd"/>
    </g>
  </g>
</svg>
