<svg xmlns="http://www.w3.org/2000/svg" width="47.421" height="47.414" viewBox="0 0 47.421 47.414">
  <path id="my-account-icon" d="M23.7,0A23.767,23.767,0,0,1,45.609,14.664l.027.069a23.705,23.705,0,0,1-38.7,25.739h0a23.747,23.747,0,0,1-5.148-7.695L1.76,32.7A23.674,23.674,0,0,1,6.935,6.946h0A23.748,23.748,0,0,1,14.63,1.8l.069-.027A23.636,23.636,0,0,1,23.7,0ZM19.106,30.609a4.188,4.188,0,0,1-1.752-2.952h-.108a1.463,1.463,0,0,1-.722-.189,1.968,1.968,0,0,1-.791-.961c-.367-.841-.656-3.052.262-3.685l-.185-.112v-.247c-.039-.444-.046-.984-.054-1.544-.035-2.08-.077-4.6-1.748-5.1l-.714-.216.471-.583a27.012,27.012,0,0,1,4.183-4.245A10.69,10.69,0,0,1,22.8,8.42,5.823,5.823,0,0,1,27.5,9.732,8.875,8.875,0,0,1,28.765,11a5.375,5.375,0,0,1,3.774,2.207,7.675,7.675,0,0,1,1.227,2.477,8.621,8.621,0,0,1,.332,2.809,6.768,6.768,0,0,1-1.96,4.557,1.4,1.4,0,0,1,.61.154,1.522,1.522,0,0,1,.536,1.864c-.181.567-.409,1.223-.629,1.775-.251.749-.637.888-1.408.807-.031,1.613-1.08,2.385-2.111,3.276l.031.046a12.306,12.306,0,0,0,1.354,1.744.289.289,0,0,1,.046.054c2.389,1.69,7.548,2.1,9.778,3.342l.089.054a20.873,20.873,0,1,0-33.507,0h0l.089-.054c2.234-1.243,8.69-1.652,11.11-3.311a7.5,7.5,0,0,0,.552-1.069c.158-.386.313-.772.444-1.1Z" transform="translate(0.018 0)" fill="#fff"/>
</svg>
